{"glyphs":{"0":{"ha":824,"x_min":60,"x_max":764,"o":"m 400 -17 q 148 95 236 -17 q 60 431 60 207 q 103 678 60 576 q 229 832 147 781 q 424 883 311 883 q 675 772 586 883 q 764 436 764 660 q 668 100 764 217 q 400 -17 572 -17 m 414 57 q 563 144 513 57 q 614 421 614 232 q 589 640 614 553 q 519 768 564 726 q 413 810 474 810 q 299 772 343 810 q 231 655 254 735 q 208 446 208 575 q 233 229 208 317 q 305 99 258 142 q 414 57 351 57 z "},"1":{"ha":488,"x_min":65,"x_max":442,"o":"m 332 93 q 363 86 340 92 q 410 76 386 81 q 442 71 433 72 l 442 0 l 71 0 l 71 71 q 106 78 79 72 q 158 88 132 83 q 192 93 183 92 l 192 699 l 65 699 l 65 754 q 185 808 121 774 q 286 871 249 843 l 332 871 l 332 93 z "},"2":{"ha":635,"x_min":47,"x_max":582,"o":"m 47 97 q 111 168 79 133 q 174 238 143 203 q 305 399 254 332 q 385 529 356 465 q 414 649 414 593 q 392 748 414 710 q 323 801 371 786 q 200 807 275 817 q 184 752 192 781 q 168 693 176 724 q 151 635 160 665 q 132 572 142 606 l 71 572 l 78 850 q 166 874 114 864 q 275 883 218 883 q 486 826 422 883 q 550 642 550 769 q 497 461 550 550 q 356 292 443 372 q 144 124 269 213 q 188 121 165 121 q 232 121 210 121 l 467 121 q 479 152 474 136 q 492 183 485 168 q 504 222 497 201 q 521 267 511 242 l 582 267 l 558 0 l 47 0 l 47 97 z "},"3":{"ha":618,"x_min":39,"x_max":571,"o":"m 100 272 q 110 241 106 256 q 119 214 114 226 q 144 138 132 174 q 168 67 156 103 q 310 67 251 51 q 397 121 368 83 q 426 210 426 158 q 353 346 426 297 q 158 411 279 394 l 153 440 q 267 524 211 476 q 358 626 322 572 q 394 726 394 679 q 367 782 394 761 q 296 808 340 803 q 200 804 251 814 q 190 776 196 790 q 179 747 185 761 q 160 690 169 719 q 140 628 150 660 l 79 628 l 85 850 q 185 874 124 864 q 311 883 247 883 q 479 845 422 883 q 536 735 536 807 q 501 632 536 682 q 406 540 465 582 q 318 492 365 514 q 417 457 369 479 q 529 368 488 422 q 571 246 571 314 q 535 108 571 167 q 433 16 500 49 q 271 -17 365 -17 q 153 -7 214 -17 q 54 17 92 3 l 39 272 l 100 272 z "},"4":{"ha":708,"x_min":24,"x_max":669,"o":"m 529 96 q 561 90 538 94 q 608 80 585 85 q 640 74 632 75 l 640 3 l 279 3 l 279 74 q 312 81 288 75 q 359 90 336 86 q 390 96 382 94 l 390 182 l 46 182 l 24 274 l 426 872 l 529 856 l 529 300 l 669 300 l 660 182 l 529 182 l 529 96 m 390 300 l 390 686 l 132 300 l 390 300 z "},"5":{"ha":631,"x_min":50,"x_max":579,"o":"m 111 213 q 133 151 118 190 q 149 111 140 132 q 167 67 157 90 q 367 92 299 44 q 435 243 435 140 q 392 370 435 329 q 274 411 350 411 q 189 402 231 411 q 106 375 147 393 l 88 375 l 128 867 l 567 867 l 554 751 l 553 749 l 549 746 l 544 740 l 539 736 l 301 736 q 242 735 272 736 q 193 731 213 735 l 175 515 q 244 535 206 528 q 328 542 282 542 q 447 512 389 542 q 542 423 506 482 q 579 279 579 364 q 535 113 579 179 q 423 15 492 46 q 278 -17 354 -17 q 160 -7 221 -17 q 61 17 99 3 l 50 213 l 111 213 z "},"6":{"ha":733,"x_min":60,"x_max":679,"o":"m 211 490 q 279 543 238 522 q 408 568 332 568 q 552 537 492 568 q 646 444 613 506 q 679 293 679 382 q 644 134 679 204 q 541 24 610 64 q 372 -17 472 -17 q 138 79 215 -17 q 60 371 60 175 q 99 656 61 543 q 220 826 136 768 q 443 883 304 883 q 544 874 492 883 q 635 850 597 865 l 640 633 l 581 633 q 554 707 558 694 q 535 759 544 733 q 519 807 526 785 q 342 787 408 821 q 246 676 276 753 q 211 490 217 604 m 208 300 q 230 174 208 229 q 291 87 251 118 q 381 56 331 56 q 495 109 458 56 q 532 263 532 163 q 510 384 532 332 q 452 463 489 436 q 368 490 415 490 q 247 442 285 490 q 208 314 211 397 l 208 300 z "},"7":{"ha":621,"x_min":51,"x_max":603,"o":"m 118 0 l 118 18 l 494 740 q 468 746 481 743 l 154 746 q 138 696 150 735 q 126 655 132 676 q 110 610 119 633 l 51 610 l 61 867 l 603 867 l 288 0 l 118 0 z "},"8":{"ha":726,"x_min":54,"x_max":671,"o":"m 224 428 q 196 443 210 435 q 108 525 144 472 q 72 661 72 578 q 108 773 72 722 q 213 853 144 824 q 375 883 282 883 q 577 826 507 883 q 647 669 647 768 q 588 524 647 583 q 489 464 549 485 q 547 435 522 449 q 635 353 599 406 q 671 217 671 300 q 633 99 671 151 q 524 15 596 46 q 351 -17 451 -17 q 132 45 210 -17 q 54 213 54 107 q 122 368 54 306 q 224 428 164 407 m 521 208 q 496 285 521 254 q 433 336 471 317 q 329 382 396 356 q 275 404 300 393 q 235 361 251 388 q 199 224 199 304 q 219 136 199 175 q 278 76 240 97 q 367 54 315 54 q 482 94 443 54 q 521 208 521 135 m 442 485 q 478 528 463 501 q 506 654 506 582 q 488 737 506 700 q 439 793 471 774 q 361 813 407 813 q 256 774 290 813 q 221 669 221 736 q 246 592 221 624 q 309 542 271 561 q 413 496 347 522 q 442 485 428 490 z "},"9":{"ha":736,"x_min":56,"x_max":675,"o":"m 524 376 q 456 324 497 344 q 328 299 403 299 q 183 330 243 299 q 89 423 122 361 q 56 574 56 485 q 90 733 56 663 q 194 843 125 803 q 363 883 263 883 q 597 788 519 883 q 675 496 675 692 q 636 211 674 324 q 515 41 599 99 q 292 -17 431 -17 q 190 -8 243 -17 q 100 17 138 1 l 94 233 l 156 233 q 181 160 178 172 q 199 108 190 133 q 215 60 208 82 q 392 80 326 46 q 489 190 458 114 q 524 376 518 263 m 528 567 q 506 693 528 638 q 444 780 483 749 q 354 811 404 811 q 240 758 278 811 q 203 604 203 704 q 224 483 203 535 q 283 403 246 431 q 368 376 321 376 q 489 425 450 376 q 526 553 524 469 l 528 567 z "},"\r":{"ha":833,"x_min":0,"x_max":0,"o":""}," ":{"ha":300,"x_min":0,"x_max":0,"o":""},"A":{"ha":856,"x_min":13,"x_max":840,"o":"m 53 0 l 13 0 l 13 71 q 59 83 28 75 q 104 93 90 90 l 275 594 q 286 624 281 610 q 296 654 292 639 q 328 746 313 699 q 338 778 333 764 q 335 779 336 779 q 310 782 322 781 q 267 789 289 786 q 221 794 246 792 l 221 867 l 510 867 q 574 628 531 757 l 760 93 q 800 83 774 90 q 840 71 826 75 l 840 0 l 500 0 l 500 79 q 528 86 507 81 q 572 97 550 92 q 600 103 593 101 l 551 254 l 257 254 l 204 93 q 235 86 213 92 q 282 76 258 81 q 314 71 306 72 l 314 0 l 53 0 m 524 339 l 463 522 q 401 701 426 633 l 283 339 l 524 339 z "},"Á":{"ha":856,"x_min":13,"x_max":840,"o":"m 53 0 l 13 0 l 13 71 q 59 83 28 75 q 104 93 90 90 l 275 594 q 286 624 281 610 q 296 654 292 639 q 328 746 313 699 q 338 778 333 764 q 335 779 336 779 q 310 782 322 781 q 267 789 289 786 q 221 794 246 792 l 221 867 l 510 867 q 574 628 531 757 l 760 93 q 800 83 774 90 q 840 71 826 75 l 840 0 l 500 0 l 500 79 q 528 86 507 81 q 572 97 550 92 q 600 103 593 101 l 551 254 l 257 254 l 204 93 q 235 86 213 92 q 282 76 258 81 q 314 71 306 72 l 314 0 l 53 0 m 524 339 l 463 522 q 401 701 426 633 l 283 339 l 524 339 m 372 974 l 488 1182 l 654 1182 l 654 1171 l 421 956 l 372 974 z "},"Ă":{"ha":856,"x_min":13,"x_max":840,"o":"m 53 0 l 13 0 l 13 71 q 59 83 28 75 q 104 93 90 90 l 275 594 q 286 624 281 610 q 296 654 292 639 q 328 746 313 699 q 338 778 333 764 q 335 779 336 779 q 310 782 322 781 q 267 789 289 786 q 221 794 246 792 l 221 867 l 510 867 q 574 628 531 757 l 760 93 q 800 83 774 90 q 840 71 826 75 l 840 0 l 500 0 l 500 79 q 528 86 507 81 q 572 97 550 92 q 600 103 593 101 l 551 254 l 257 254 l 204 93 q 235 86 213 92 q 282 76 258 81 q 314 71 306 72 l 314 0 l 53 0 m 524 339 l 463 522 q 401 701 426 633 l 283 339 l 524 339 m 582 1169 q 535 1014 578 1072 q 411 956 493 956 q 289 1014 332 956 q 242 1169 246 1072 l 300 1176 q 342 1087 315 1115 q 411 1058 368 1058 q 483 1087 457 1058 q 524 1176 510 1115 l 582 1169 z "},"Ǎ":{"ha":856,"x_min":13,"x_max":840,"o":"m 53 0 l 13 0 l 13 71 q 59 83 28 75 q 104 93 90 90 l 275 594 q 286 624 281 610 q 296 654 292 639 q 328 746 313 699 q 338 778 333 764 q 335 779 336 779 q 310 782 322 781 q 267 789 289 786 q 221 794 246 792 l 221 867 l 510 867 q 574 628 531 757 l 760 93 q 800 83 774 90 q 840 71 826 75 l 840 0 l 500 0 l 500 79 q 528 86 507 81 q 572 97 550 92 q 600 103 593 101 l 551 254 l 257 254 l 204 93 q 235 86 213 92 q 282 76 258 81 q 314 71 306 72 l 314 0 l 53 0 m 524 339 l 463 522 q 401 701 426 633 l 283 339 l 524 339 m 529 1194 l 594 1165 l 442 956 l 386 956 l 239 1165 l 299 1194 l 415 1078 l 529 1194 z "},"Â":{"ha":856,"x_min":13,"x_max":840,"o":"m 53 0 l 13 0 l 13 71 q 59 83 28 75 q 104 93 90 90 l 275 594 q 286 624 281 610 q 296 654 292 639 q 328 746 313 699 q 338 778 333 764 q 335 779 336 779 q 310 782 322 781 q 267 789 289 786 q 221 794 246 792 l 221 867 l 510 867 q 574 628 531 757 l 760 93 q 800 83 774 90 q 840 71 826 75 l 840 0 l 500 0 l 500 79 q 528 86 507 81 q 572 97 550 92 q 600 103 593 101 l 551 254 l 257 254 l 204 93 q 235 86 213 92 q 282 76 258 81 q 314 71 306 72 l 314 0 l 53 0 m 524 339 l 463 522 q 401 701 426 633 l 283 339 l 524 339 m 529 947 l 415 1064 l 299 947 l 239 975 l 385 1186 l 442 1186 l 594 975 l 529 947 z "},"Ä":{"ha":856,"x_min":13,"x_max":840,"o":"m 53 0 l 13 0 l 13 71 q 59 83 28 75 q 104 93 90 90 l 275 594 q 286 624 281 610 q 296 654 292 639 q 328 746 313 699 q 338 778 333 764 q 335 779 336 779 q 310 782 322 781 q 267 789 289 786 q 221 794 246 792 l 221 867 l 510 867 q 574 628 531 757 l 760 93 q 800 83 774 90 q 840 71 826 75 l 840 0 l 500 0 l 500 79 q 528 86 507 81 q 572 97 550 92 q 600 103 593 101 l 551 254 l 257 254 l 204 93 q 235 86 213 92 q 282 76 258 81 q 314 71 306 72 l 314 0 l 53 0 m 524 339 l 463 522 q 401 701 426 633 l 283 339 l 524 339 m 433 1046 q 479 1098 433 1053 q 528 1143 525 1143 q 587 1098 538 1143 q 636 1046 636 1053 q 587 995 636 1040 q 528 950 538 950 q 480 996 525 950 q 433 1046 435 1042 m 201 1046 q 248 1098 200 1053 q 299 1143 296 1143 q 356 1098 310 1143 q 403 1046 403 1053 q 356 995 403 1040 q 299 950 308 950 q 249 996 296 950 q 201 1046 203 1042 z "},"À":{"ha":856,"x_min":13,"x_max":840,"o":"m 53 0 l 13 0 l 13 71 q 59 83 28 75 q 104 93 90 90 l 275 594 q 286 624 281 610 q 296 654 292 639 q 328 746 313 699 q 338 778 333 764 q 335 779 336 779 q 310 782 322 781 q 267 789 289 786 q 221 794 246 792 l 221 867 l 510 867 q 574 628 531 757 l 760 93 q 800 83 774 90 q 840 71 826 75 l 840 0 l 500 0 l 500 79 q 528 86 507 81 q 572 97 550 92 q 600 103 593 101 l 551 254 l 257 254 l 204 93 q 235 86 213 92 q 282 76 258 81 q 314 71 306 72 l 314 0 l 53 0 m 524 339 l 463 522 q 401 701 426 633 l 283 339 l 524 339 m 464 974 l 415 956 l 181 1171 l 181 1182 l 349 1182 l 464 974 z "},"Ā":{"ha":856,"x_min":13,"x_max":840,"o":"m 53 0 l 13 0 l 13 71 q 59 83 28 75 q 104 93 90 90 l 275 594 q 286 624 281 610 q 296 654 292 639 q 328 746 313 699 q 338 778 333 764 q 335 779 336 779 q 310 782 322 781 q 267 789 289 786 q 221 794 246 792 l 221 867 l 510 867 q 574 628 531 757 l 760 93 q 800 83 774 90 q 840 71 826 75 l 840 0 l 500 0 l 500 79 q 528 86 507 81 q 572 97 550 92 q 600 103 593 101 l 551 254 l 257 254 l 204 93 q 235 86 213 92 q 282 76 258 81 q 314 71 306 72 l 314 0 l 53 0 m 524 339 l 463 522 q 401 701 426 633 l 283 339 l 524 339 m 236 1075 l 600 1075 l 600 990 l 236 990 l 236 1075 z "},"Ą":{"ha":856,"x_min":13,"x_max":857,"o":"m 840 0 q 837 -5 839 -3 q 832 -8 835 -7 q 765 -85 789 -49 q 740 -160 740 -122 q 758 -201 740 -187 q 806 -215 776 -215 q 833 -212 819 -215 q 857 -204 847 -208 l 857 -260 q 811 -281 836 -274 q 756 -289 786 -289 q 662 -261 697 -289 q 626 -183 626 -233 q 681 -69 626 -129 q 761 0 718 -29 l 500 0 l 500 79 q 528 86 507 81 q 572 97 550 92 q 600 103 593 101 l 551 254 l 257 254 l 204 93 q 235 86 213 92 q 282 76 258 81 q 314 71 306 72 l 314 0 l 13 0 l 13 71 q 59 83 28 75 q 104 93 90 90 l 275 594 q 286 624 281 610 q 296 654 292 639 q 328 746 313 699 q 338 778 333 764 q 335 779 336 779 q 310 782 322 781 q 267 789 289 786 q 221 794 246 792 l 221 867 l 510 867 q 574 628 531 757 l 760 93 q 800 83 774 90 q 840 71 826 75 l 840 0 m 524 339 l 463 522 q 401 701 426 633 l 283 339 l 524 339 z "},"Å":{"ha":856,"x_min":13,"x_max":840,"o":"m 53 0 l 13 0 l 13 71 q 59 83 28 75 q 104 93 90 90 l 275 594 q 286 624 281 610 q 296 654 292 639 q 328 746 313 699 q 338 778 333 764 q 335 779 336 779 q 310 782 322 781 q 267 789 289 786 q 221 794 246 792 l 221 867 l 510 867 q 574 628 531 757 l 760 93 q 800 83 774 90 q 840 71 826 75 l 840 0 l 500 0 l 500 79 q 528 86 507 81 q 572 97 550 92 q 600 103 593 101 l 551 254 l 257 254 l 204 93 q 235 86 213 92 q 282 76 258 81 q 314 71 306 72 l 314 0 l 53 0 m 417 919 q 315 957 354 919 q 275 1056 275 994 q 315 1156 275 1118 q 417 1193 354 1193 q 519 1156 479 1193 q 558 1056 558 1118 q 519 957 558 994 q 417 919 479 919 m 524 339 l 463 522 q 401 701 426 633 l 283 339 l 524 339 m 417 988 q 464 1006 446 988 q 482 1056 482 1025 q 464 1106 482 1088 q 417 1125 446 1125 q 370 1106 389 1125 q 351 1056 351 1088 q 370 1006 351 1025 q 417 988 389 988 z "},"Ǻ":{"ha":856,"x_min":13,"x_max":840,"o":"m 53 0 l 13 0 l 13 71 q 59 83 28 75 q 104 93 90 90 l 275 594 q 286 624 281 610 q 296 654 292 639 q 328 746 313 699 q 338 778 333 764 q 335 779 336 779 q 310 782 322 781 q 267 789 289 786 q 221 794 246 792 l 221 867 l 510 867 q 574 628 531 757 l 760 93 q 800 83 774 90 q 840 71 826 75 l 840 0 l 500 0 l 500 79 q 528 86 507 81 q 572 97 550 92 q 600 103 593 101 l 551 254 l 257 254 l 204 93 q 235 86 213 92 q 282 76 258 81 q 314 71 306 72 l 314 0 l 53 0 m 417 919 q 315 957 354 919 q 275 1056 275 994 q 315 1156 275 1118 q 397 1192 349 1188 l 488 1354 l 654 1354 l 654 1343 l 479 1182 q 519 1156 501 1172 q 558 1056 558 1118 q 519 957 558 994 q 417 919 479 919 m 524 339 l 463 522 q 401 701 426 633 l 283 339 l 524 339 m 417 988 q 464 1006 446 988 q 482 1056 482 1025 q 464 1106 482 1088 q 417 1125 446 1125 q 370 1106 389 1125 q 351 1056 351 1088 q 370 1006 351 1025 q 417 988 389 988 z "},"Ã":{"ha":856,"x_min":13,"x_max":840,"o":"m 53 0 l 13 0 l 13 71 q 59 83 28 75 q 104 93 90 90 l 275 594 q 286 624 281 610 q 296 654 292 639 q 328 746 313 699 q 338 778 333 764 q 335 779 336 779 q 310 782 322 781 q 267 789 289 786 q 221 794 246 792 l 221 867 l 510 867 q 574 628 531 757 l 760 93 q 800 83 774 90 q 840 71 826 75 l 840 0 l 500 0 l 500 79 q 528 86 507 81 q 572 97 550 92 q 600 103 593 101 l 551 254 l 257 254 l 204 93 q 235 86 213 92 q 282 76 258 81 q 314 71 306 72 l 314 0 l 53 0 m 331 1174 q 406 1153 379 1174 q 461 1093 433 1132 q 485 1062 475 1072 q 510 1051 496 1051 q 545 1079 533 1051 q 563 1164 557 1107 l 624 1158 q 600 1010 626 1064 q 501 956 574 956 q 424 977 451 956 q 371 1038 397 999 q 347 1069 357 1058 q 322 1079 336 1079 q 290 1053 301 1079 q 269 967 278 1026 l 207 972 q 231 1120 204 1067 q 331 1174 258 1174 m 524 339 l 463 522 q 401 701 426 633 l 283 339 l 524 339 z "},"B":{"ha":767,"x_min":60,"x_max":729,"o":"m 118 0 l 60 0 l 60 71 q 92 78 68 72 q 140 88 117 83 q 171 93 163 92 l 171 774 q 138 780 163 775 q 91 790 114 785 q 60 796 68 794 l 60 867 l 372 867 q 606 815 532 867 q 681 661 681 764 q 615 518 681 579 q 507 454 572 478 q 658 392 603 438 q 729 239 729 333 q 691 112 729 165 q 580 29 653 58 q 407 0 507 0 l 118 0 m 310 401 l 310 171 q 332 96 310 117 q 407 75 354 75 l 413 75 q 533 119 490 75 q 576 233 576 163 q 522 356 576 311 q 354 401 467 401 l 310 401 m 360 472 q 486 518 444 472 q 528 626 528 564 q 510 708 528 671 q 455 769 492 746 q 365 792 418 792 l 357 792 q 310 786 331 792 l 310 472 l 360 472 z "},"C":{"ha":763,"x_min":63,"x_max":751,"o":"m 650 556 q 628 634 640 593 q 606 714 617 675 q 594 757 600 738 q 585 792 589 776 q 378 776 461 811 q 256 657 296 740 q 215 456 215 574 q 252 269 215 351 q 352 141 289 188 q 489 94 415 94 q 619 123 560 94 q 710 215 678 151 l 751 200 q 646 42 728 100 q 451 -17 564 -17 q 254 38 343 -17 q 114 197 165 93 q 63 444 63 301 q 119 676 63 576 q 272 829 176 775 q 483 883 368 883 q 620 874 558 883 q 714 850 682 864 l 719 556 l 650 556 z "},"Ć":{"ha":763,"x_min":63,"x_max":751,"o":"m 650 556 q 628 634 640 593 q 606 714 617 675 q 594 757 600 738 q 585 792 589 776 q 378 776 461 811 q 256 657 296 740 q 215 456 215 574 q 252 269 215 351 q 352 141 289 188 q 489 94 415 94 q 619 123 560 94 q 710 215 678 151 l 751 200 q 646 42 728 100 q 451 -17 564 -17 q 254 38 343 -17 q 114 197 165 93 q 63 444 63 301 q 119 676 63 576 q 272 829 176 775 q 483 883 368 883 q 620 874 558 883 q 714 850 682 864 l 719 556 l 650 556 m 413 974 l 528 1182 l 694 1182 l 694 1171 l 461 956 l 413 974 z "},"Č":{"ha":763,"x_min":63,"x_max":751,"o":"m 650 556 q 628 634 640 593 q 606 714 617 675 q 594 757 600 738 q 585 792 589 776 q 378 776 461 811 q 256 657 296 740 q 215 456 215 574 q 252 269 215 351 q 352 141 289 188 q 489 94 415 94 q 619 123 560 94 q 710 215 678 151 l 751 200 q 646 42 728 100 q 451 -17 564 -17 q 254 38 343 -17 q 114 197 165 93 q 63 444 63 301 q 119 676 63 576 q 272 829 176 775 q 483 883 368 883 q 620 874 558 883 q 714 850 682 864 l 719 556 l 650 556 m 569 1194 l 635 1165 l 482 956 l 426 956 l 279 1165 l 339 1194 l 456 1078 l 569 1194 z "},"Ç":{"ha":763,"x_min":63,"x_max":751,"o":"m 650 556 q 628 634 640 593 q 606 714 617 675 q 594 757 600 738 q 585 792 589 776 q 378 776 461 811 q 256 657 296 740 q 215 456 215 574 q 252 269 215 351 q 352 141 289 188 q 489 94 415 94 q 619 123 560 94 q 710 215 678 151 l 751 200 q 646 42 728 100 q 451 -17 564 -17 q 449 -17 450 -17 l 439 -76 q 510 -117 485 -90 q 538 -185 538 -144 q 492 -265 538 -236 q 385 -294 447 -294 q 301 -283 340 -294 l 313 -228 q 374 -244 346 -244 q 411 -233 397 -244 q 425 -199 425 -221 q 408 -165 425 -179 q 357 -146 392 -151 l 386 -11 q 254 39 315 0 q 114 197 165 93 q 63 444 63 301 q 119 676 63 576 q 272 829 176 775 q 483 883 368 883 q 620 874 558 883 q 714 850 682 864 l 719 556 l 650 556 z "},"Ĉ":{"ha":763,"x_min":63,"x_max":751,"o":"m 650 556 q 628 634 640 593 q 606 714 617 675 q 594 757 600 738 q 585 792 589 776 q 378 776 461 811 q 256 657 296 740 q 215 456 215 574 q 252 269 215 351 q 352 141 289 188 q 489 94 415 94 q 619 123 560 94 q 710 215 678 151 l 751 200 q 646 42 728 100 q 451 -17 564 -17 q 254 38 343 -17 q 114 197 165 93 q 63 444 63 301 q 119 676 63 576 q 272 829 176 775 q 483 883 368 883 q 620 874 558 883 q 714 850 682 864 l 719 556 l 650 556 m 569 947 l 456 1064 l 339 947 l 279 975 l 425 1186 l 482 1186 l 635 975 l 569 947 z "},"Ċ":{"ha":763,"x_min":63,"x_max":751,"o":"m 650 556 q 628 634 640 593 q 606 714 617 675 q 594 757 600 738 q 585 792 589 776 q 378 776 461 811 q 256 657 296 740 q 215 456 215 574 q 252 269 215 351 q 352 141 289 188 q 489 94 415 94 q 619 123 560 94 q 710 215 678 151 l 751 200 q 646 42 728 100 q 451 -17 564 -17 q 254 38 343 -17 q 114 197 165 93 q 63 444 63 301 q 119 676 63 576 q 272 829 176 775 q 483 883 368 883 q 620 874 558 883 q 714 850 682 864 l 719 556 l 650 556 m 340 1049 q 394 1102 340 1054 q 453 1150 447 1150 q 488 1127 460 1150 q 543 1078 515 1104 q 571 1049 571 1053 q 544 1015 571 1042 q 488 965 517 989 q 453 942 460 942 q 420 966 449 942 q 366 1016 392 990 q 340 1049 340 1042 z "},"D":{"ha":956,"x_min":60,"x_max":892,"o":"m 118 0 l 60 0 l 60 71 q 92 78 68 72 q 140 88 117 83 q 171 93 163 92 l 171 774 q 138 780 163 775 q 91 790 114 785 q 60 796 68 794 l 60 867 l 415 867 q 772 759 653 867 q 892 440 892 651 q 836 205 892 304 q 674 53 781 106 q 421 0 568 0 l 118 0 m 310 785 l 310 174 q 319 114 310 135 q 353 84 329 93 q 421 75 376 75 l 431 75 q 662 163 585 75 q 739 415 739 251 q 698 615 739 531 q 579 746 657 700 q 397 792 501 792 l 392 792 q 328 788 360 792 q 310 785 318 786 z "},"Ð":{"ha":956,"x_min":60,"x_max":892,"o":"m 86 399 l 86 471 l 171 471 l 171 774 q 138 780 163 775 q 91 790 114 785 q 60 796 68 794 l 60 867 l 415 867 q 772 759 653 867 q 892 440 892 651 q 836 205 892 304 q 674 53 781 106 q 421 0 568 0 l 60 0 l 60 71 q 92 78 68 72 q 140 88 117 83 q 171 93 163 92 l 171 399 l 86 399 m 310 471 l 525 471 l 525 399 l 310 399 l 310 174 q 319 114 310 135 q 353 84 329 93 q 421 75 376 75 l 431 75 q 662 163 585 75 q 739 415 739 251 q 698 615 739 531 q 579 746 657 700 q 397 792 501 792 l 392 792 q 328 788 360 792 q 310 785 318 786 l 310 471 z "},"Ď":{"ha":956,"x_min":60,"x_max":892,"o":"m 118 0 l 60 0 l 60 71 q 92 78 68 72 q 140 88 117 83 q 171 93 163 92 l 171 774 q 138 780 163 775 q 91 790 114 785 q 60 796 68 794 l 60 867 l 415 867 q 772 759 653 867 q 892 440 892 651 q 836 205 892 304 q 674 53 781 106 q 421 0 568 0 l 118 0 m 310 785 l 310 174 q 319 114 310 135 q 353 84 329 93 q 421 75 376 75 l 431 75 q 662 163 585 75 q 739 415 739 251 q 698 615 739 531 q 579 746 657 700 q 397 792 501 792 l 392 792 q 328 788 360 792 q 310 785 318 786 m 600 1194 l 665 1165 l 513 956 l 457 956 l 310 1165 l 368 1194 l 485 1078 l 600 1194 z "},"Đ":{"ha":956,"x_min":60,"x_max":892,"o":"m 86 399 l 86 471 l 171 471 l 171 774 q 138 780 163 775 q 91 790 114 785 q 60 796 68 794 l 60 867 l 415 867 q 772 759 653 867 q 892 440 892 651 q 836 205 892 304 q 674 53 781 106 q 421 0 568 0 l 60 0 l 60 71 q 92 78 68 72 q 140 88 117 83 q 171 93 163 92 l 171 399 l 86 399 m 310 471 l 525 471 l 525 399 l 310 399 l 310 174 q 319 114 310 135 q 353 84 329 93 q 421 75 376 75 l 431 75 q 662 163 585 75 q 739 415 739 251 q 698 615 739 531 q 579 746 657 700 q 397 792 501 792 l 392 792 q 328 788 360 792 q 310 785 318 786 l 310 471 z "},"E":{"ha":704,"x_min":60,"x_max":682,"o":"m 171 774 q 138 780 163 775 q 91 790 114 785 q 60 796 68 794 l 60 867 l 657 867 l 657 629 l 588 629 q 578 680 583 654 q 567 731 572 706 q 561 760 564 746 q 556 788 558 775 l 325 788 q 310 782 319 786 l 310 481 q 378 482 343 481 q 472 485 422 483 l 539 485 l 539 403 l 468 403 q 390 405 426 404 q 317 407 353 406 q 310 407 314 407 l 310 94 l 326 79 l 565 79 q 575 112 571 93 q 585 150 579 131 q 599 201 592 175 q 611 251 606 226 l 682 251 l 657 0 l 60 0 l 60 71 q 92 78 68 72 q 140 88 117 83 q 171 93 163 92 l 171 774 z "},"É":{"ha":704,"x_min":60,"x_max":682,"o":"m 171 774 q 138 780 163 775 q 91 790 114 785 q 60 796 68 794 l 60 867 l 657 867 l 657 629 l 588 629 q 578 680 583 654 q 567 731 572 706 q 561 760 564 746 q 556 788 558 775 l 325 788 q 310 782 319 786 l 310 481 q 378 482 343 481 q 472 485 422 483 l 539 485 l 539 403 l 468 403 q 390 405 426 404 q 317 407 353 406 q 310 407 314 407 l 310 94 l 326 79 l 565 79 q 575 112 571 93 q 585 150 579 131 q 599 201 592 175 q 611 251 606 226 l 682 251 l 657 0 l 60 0 l 60 71 q 92 78 68 72 q 140 88 117 83 q 171 93 163 92 l 171 774 m 315 974 l 431 1182 l 599 1182 l 599 1171 l 365 956 l 315 974 z "},"Ĕ":{"ha":704,"x_min":60,"x_max":682,"o":"m 171 774 q 138 780 163 775 q 91 790 114 785 q 60 796 68 794 l 60 867 l 657 867 l 657 629 l 588 629 q 578 680 583 654 q 567 731 572 706 q 561 760 564 746 q 556 788 558 775 l 325 788 q 310 782 319 786 l 310 481 q 378 482 343 481 q 472 485 422 483 l 539 485 l 539 403 l 468 403 q 390 405 426 404 q 317 407 353 406 q 310 407 314 407 l 310 94 l 326 79 l 565 79 q 575 112 571 93 q 585 150 579 131 q 599 201 592 175 q 611 251 606 226 l 682 251 l 657 0 l 60 0 l 60 71 q 92 78 68 72 q 140 88 117 83 q 171 93 163 92 l 171 774 m 526 1169 q 479 1014 522 1072 q 356 956 436 956 q 233 1014 275 956 q 185 1169 190 1072 l 243 1176 q 285 1087 258 1115 q 356 1058 311 1058 q 426 1087 400 1058 q 467 1176 453 1115 l 526 1169 z "},"Ě":{"ha":704,"x_min":60,"x_max":682,"o":"m 171 774 q 138 780 163 775 q 91 790 114 785 q 60 796 68 794 l 60 867 l 657 867 l 657 629 l 588 629 q 578 680 583 654 q 567 731 572 706 q 561 760 564 746 q 556 788 558 775 l 325 788 q 310 782 319 786 l 310 481 q 378 482 343 481 q 472 485 422 483 l 539 485 l 539 403 l 468 403 q 390 405 426 404 q 317 407 353 406 q 310 407 314 407 l 310 94 l 326 79 l 565 79 q 575 112 571 93 q 585 150 579 131 q 599 201 592 175 q 611 251 606 226 l 682 251 l 657 0 l 60 0 l 60 71 q 92 78 68 72 q 140 88 117 83 q 171 93 163 92 l 171 774 m 474 1194 l 539 1165 l 386 956 l 329 956 l 183 1165 l 242 1194 l 358 1078 l 474 1194 z "},"Ê":{"ha":704,"x_min":60,"x_max":682,"o":"m 171 774 q 138 780 163 775 q 91 790 114 785 q 60 796 68 794 l 60 867 l 657 867 l 657 629 l 588 629 q 578 680 583 654 q 567 731 572 706 q 561 760 564 746 q 556 788 558 775 l 325 788 q 310 782 319 786 l 310 481 q 378 482 343 481 q 472 485 422 483 l 539 485 l 539 403 l 468 403 q 390 405 426 404 q 317 407 353 406 q 310 407 314 407 l 310 94 l 326 79 l 565 79 q 575 112 571 93 q 585 150 579 131 q 599 201 592 175 q 611 251 606 226 l 682 251 l 657 0 l 60 0 l 60 71 q 92 78 68 72 q 140 88 117 83 q 171 93 163 92 l 171 774 m 472 947 l 358 1064 l 242 947 l 182 975 l 329 1186 l 385 1186 l 538 975 l 472 947 z "},"Ë":{"ha":704,"x_min":60,"x_max":682,"o":"m 171 774 q 138 780 163 775 q 91 790 114 785 q 60 796 68 794 l 60 867 l 657 867 l 657 629 l 588 629 q 578 680 583 654 q 567 731 572 706 q 561 760 564 746 q 556 788 558 775 l 325 788 q 310 782 319 786 l 310 481 q 378 482 343 481 q 472 485 422 483 l 539 485 l 539 403 l 468 403 q 390 405 426 404 q 317 407 353 406 q 310 407 314 407 l 310 94 l 326 79 l 565 79 q 575 112 571 93 q 585 150 579 131 q 599 201 592 175 q 611 251 606 226 l 682 251 l 657 0 l 60 0 l 60 71 q 92 78 68 72 q 140 88 117 83 q 171 93 163 92 l 171 774 m 378 1046 q 422 1098 376 1053 q 472 1143 468 1143 q 531 1098 482 1143 q 579 1046 579 1053 q 530 995 579 1040 q 472 950 481 950 q 423 996 468 950 q 378 1046 378 1042 m 144 1046 q 192 1098 144 1053 q 243 1143 239 1143 q 299 1098 253 1143 q 346 1046 346 1053 q 299 995 346 1040 q 243 950 251 950 q 192 996 239 950 q 144 1046 146 1042 z "},"Ė":{"ha":704,"x_min":60,"x_max":682,"o":"m 171 774 q 138 780 163 775 q 91 790 114 785 q 60 796 68 794 l 60 867 l 657 867 l 657 629 l 588 629 q 578 680 583 654 q 567 731 572 706 q 561 760 564 746 q 556 788 558 775 l 325 788 q 310 782 319 786 l 310 481 q 378 482 343 481 q 472 485 422 483 l 539 485 l 539 403 l 468 403 q 390 405 426 404 q 317 407 353 406 q 310 407 314 407 l 310 94 l 326 79 l 565 79 q 575 112 571 93 q 585 150 579 131 q 599 201 592 175 q 611 251 606 226 l 682 251 l 657 0 l 60 0 l 60 71 q 92 78 68 72 q 140 88 117 83 q 171 93 163 92 l 171 774 m 244 1049 q 297 1102 244 1054 q 356 1150 350 1150 q 390 1127 363 1150 q 446 1078 418 1104 q 474 1049 474 1053 q 447 1015 474 1042 q 391 965 419 989 q 356 942 363 942 q 323 966 351 942 q 269 1016 294 990 q 244 1049 244 1042 z "},"È":{"ha":704,"x_min":60,"x_max":682,"o":"m 171 774 q 138 780 163 775 q 91 790 114 785 q 60 796 68 794 l 60 867 l 657 867 l 657 629 l 588 629 q 578 680 583 654 q 567 731 572 706 q 561 760 564 746 q 556 788 558 775 l 325 788 q 310 782 319 786 l 310 481 q 378 482 343 481 q 472 485 422 483 l 539 485 l 539 403 l 468 403 q 390 405 426 404 q 317 407 353 406 q 310 407 314 407 l 310 94 l 326 79 l 565 79 q 575 112 571 93 q 585 150 579 131 q 599 201 592 175 q 611 251 606 226 l 682 251 l 657 0 l 60 0 l 60 71 q 92 78 68 72 q 140 88 117 83 q 171 93 163 92 l 171 774 m 407 974 l 358 956 l 125 1171 l 125 1182 l 292 1182 l 407 974 z "},"Ē":{"ha":704,"x_min":60,"x_max":682,"o":"m 171 774 q 138 780 163 775 q 91 790 114 785 q 60 796 68 794 l 60 867 l 657 867 l 657 629 l 588 629 q 578 680 583 654 q 567 731 572 706 q 561 760 564 746 q 556 788 558 775 l 325 788 q 310 782 319 786 l 310 481 q 378 482 343 481 q 472 485 422 483 l 539 485 l 539 403 l 468 403 q 390 405 426 404 q 317 407 353 406 q 310 407 314 407 l 310 94 l 326 79 l 565 79 q 575 112 571 93 q 585 150 579 131 q 599 201 592 175 q 611 251 606 226 l 682 251 l 657 0 l 60 0 l 60 71 q 92 78 68 72 q 140 88 117 83 q 171 93 163 92 l 171 774 m 179 1075 l 543 1075 l 543 990 l 179 990 l 179 1075 z "},"Ę":{"ha":704,"x_min":60,"x_max":682,"o":"m 171 774 q 138 780 163 775 q 91 790 114 785 q 60 796 68 794 l 60 867 l 657 867 l 657 629 l 588 629 q 578 680 583 654 q 567 731 572 706 q 561 760 564 746 q 556 788 558 775 l 325 788 q 310 782 319 786 l 310 481 q 378 482 343 481 q 472 485 422 483 l 539 485 l 539 403 l 468 403 q 390 405 426 404 q 317 407 353 406 q 310 407 314 407 l 310 94 l 326 79 l 565 79 q 575 112 571 93 q 585 150 579 131 q 599 201 592 175 q 611 251 606 226 l 682 251 l 657 0 l 649 0 q 645 -5 647 -3 q 640 -8 643 -7 q 574 -85 599 -49 q 549 -160 549 -122 q 567 -201 549 -187 q 614 -215 585 -215 q 642 -212 628 -215 q 667 -204 656 -208 l 667 -260 q 619 -281 644 -274 q 565 -289 594 -289 q 471 -261 506 -289 q 436 -183 436 -233 q 490 -69 436 -129 q 569 0 526 -29 l 60 0 l 60 71 q 92 78 68 72 q 140 88 117 83 q 171 93 163 92 l 171 774 z "},"F":{"ha":649,"x_min":60,"x_max":646,"o":"m 171 774 q 138 780 163 775 q 91 790 114 785 q 60 796 68 794 l 60 867 l 646 867 l 646 629 l 576 629 q 569 665 574 646 q 563 703 565 683 q 553 747 558 725 q 544 788 549 768 l 319 788 q 310 783 317 786 l 310 464 q 375 465 342 465 q 471 468 419 467 l 538 468 l 538 388 l 467 388 q 387 390 424 389 q 315 390 350 390 q 310 390 313 390 l 310 93 q 348 87 319 92 q 404 77 376 82 q 442 71 432 72 l 442 0 l 60 0 l 60 71 q 92 78 68 72 q 140 88 117 83 q 171 93 163 92 l 171 774 z "},"G":{"ha":833,"x_min":65,"x_max":808,"o":"m 65 456 q 121 686 65 590 q 279 833 176 782 q 518 883 382 883 q 640 874 581 883 q 735 850 699 864 l 740 593 l 671 593 q 644 678 661 622 q 625 738 633 710 q 610 790 617 765 q 390 778 478 814 q 260 658 303 742 q 218 456 218 575 q 258 247 218 336 q 369 108 299 157 q 529 60 440 60 q 617 72 576 60 l 617 294 q 585 301 608 296 q 538 310 561 306 q 507 317 515 315 l 507 388 l 808 388 l 808 317 q 791 310 804 315 q 767 300 778 304 q 753 294 757 296 l 753 28 q 632 -4 697 8 q 490 -17 567 -17 q 268 40 365 -17 q 118 204 171 97 q 65 456 65 311 z "},"Ǵ":{"ha":833,"x_min":65,"x_max":808,"o":"m 65 456 q 121 686 65 590 q 279 833 176 782 q 518 883 382 883 q 640 874 581 883 q 735 850 699 864 l 740 593 l 671 593 q 644 678 661 622 q 625 738 633 710 q 610 790 617 765 q 390 778 478 814 q 260 658 303 742 q 218 456 218 575 q 258 247 218 336 q 369 108 299 157 q 529 60 440 60 q 617 72 576 60 l 617 294 q 585 301 608 296 q 538 310 561 306 q 507 317 515 315 l 507 388 l 808 388 l 808 317 q 791 310 804 315 q 767 300 778 304 q 753 294 757 296 l 753 28 q 632 -4 697 8 q 490 -17 567 -17 q 268 40 365 -17 q 118 204 171 97 q 65 456 65 311 m 443 974 l 560 1182 l 726 1182 l 726 1171 l 493 956 l 443 974 z "},"Ğ":{"ha":833,"x_min":65,"x_max":808,"o":"m 65 456 q 121 686 65 590 q 279 833 176 782 q 518 883 382 883 q 640 874 581 883 q 735 850 699 864 l 740 593 l 671 593 q 644 678 661 622 q 625 738 633 710 q 610 790 617 765 q 390 778 478 814 q 260 658 303 742 q 218 456 218 575 q 258 247 218 336 q 369 108 299 157 q 529 60 440 60 q 617 72 576 60 l 617 294 q 585 301 608 296 q 538 310 561 306 q 507 317 515 315 l 507 388 l 808 388 l 808 317 q 791 310 804 315 q 767 300 778 304 q 753 294 757 296 l 753 28 q 632 -4 697 8 q 490 -17 567 -17 q 268 40 365 -17 q 118 204 171 97 q 65 456 65 311 m 654 1169 q 607 1014 650 1072 q 483 956 564 956 q 360 1014 403 956 q 313 1169 318 1072 l 372 1176 q 413 1087 386 1115 q 483 1058 439 1058 q 555 1087 528 1058 q 594 1176 582 1115 l 654 1169 z "},"Ǧ":{"ha":833,"x_min":65,"x_max":808,"o":"m 65 456 q 121 686 65 590 q 279 833 176 782 q 518 883 382 883 q 640 874 581 883 q 735 850 699 864 l 740 593 l 671 593 q 644 678 661 622 q 625 738 633 710 q 610 790 617 765 q 390 778 478 814 q 260 658 303 742 q 218 456 218 575 q 258 247 218 336 q 369 108 299 157 q 529 60 440 60 q 617 72 576 60 l 617 294 q 585 301 608 296 q 538 310 561 306 q 507 317 515 315 l 507 388 l 808 388 l 808 317 q 791 310 804 315 q 767 300 778 304 q 753 294 757 296 l 753 28 q 632 -4 697 8 q 490 -17 567 -17 q 268 40 365 -17 q 118 204 171 97 q 65 456 65 311 m 601 1194 l 667 1165 l 514 956 l 458 956 l 311 1165 l 371 1194 l 486 1078 l 601 1194 z "},"Ĝ":{"ha":833,"x_min":65,"x_max":808,"o":"m 65 456 q 121 686 65 590 q 279 833 176 782 q 518 883 382 883 q 640 874 581 883 q 735 850 699 864 l 740 593 l 671 593 q 644 678 661 622 q 625 738 633 710 q 610 790 617 765 q 390 778 478 814 q 260 658 303 742 q 218 456 218 575 q 258 247 218 336 q 369 108 299 157 q 529 60 440 60 q 617 72 576 60 l 617 294 q 585 301 608 296 q 538 310 561 306 q 507 317 515 315 l 507 388 l 808 388 l 808 317 q 791 310 804 315 q 767 300 778 304 q 753 294 757 296 l 753 28 q 632 -4 697 8 q 490 -17 567 -17 q 268 40 365 -17 q 118 204 171 97 q 65 456 65 311 m 600 947 l 486 1064 l 369 947 l 311 975 l 457 1186 l 513 1186 l 665 975 l 600 947 z "},"Ģ":{"ha":833,"x_min":65,"x_max":808,"o":"m 65 456 q 121 686 65 590 q 279 833 176 782 q 518 883 382 883 q 640 874 581 883 q 735 850 699 864 l 740 593 l 671 593 q 644 678 661 622 q 625 738 633 710 q 610 790 617 765 q 390 778 478 814 q 260 658 303 742 q 218 456 218 575 q 258 247 218 336 q 369 108 299 157 q 529 60 440 60 q 617 72 576 60 l 617 294 q 585 301 608 296 q 538 310 561 306 q 507 317 515 315 l 507 388 l 808 388 l 808 317 q 791 310 804 315 q 767 300 778 304 q 753 294 757 296 l 753 28 q 632 -4 697 8 q 490 -17 567 -17 q 268 40 365 -17 q 118 204 171 97 q 65 456 65 311 m 372 -362 q 393 -203 375 -328 q 418 -69 411 -79 q 490 -87 435 -72 q 554 -110 544 -103 q 521 -187 547 -126 q 467 -307 494 -247 q 431 -385 440 -367 q 401 -378 421 -385 q 372 -362 382 -372 z "},"Ġ":{"ha":833,"x_min":65,"x_max":808,"o":"m 65 456 q 121 686 65 590 q 279 833 176 782 q 518 883 382 883 q 640 874 581 883 q 735 850 699 864 l 740 593 l 671 593 q 644 678 661 622 q 625 738 633 710 q 610 790 617 765 q 390 778 478 814 q 260 658 303 742 q 218 456 218 575 q 258 247 218 336 q 369 108 299 157 q 529 60 440 60 q 617 72 576 60 l 617 294 q 585 301 608 296 q 538 310 561 306 q 507 317 515 315 l 507 388 l 808 388 l 808 317 q 791 310 804 315 q 767 300 778 304 q 753 294 757 296 l 753 28 q 632 -4 697 8 q 490 -17 567 -17 q 268 40 365 -17 q 118 204 171 97 q 65 456 65 311 m 372 1049 q 425 1102 372 1054 q 485 1150 478 1150 q 519 1127 490 1150 q 574 1078 547 1104 q 601 1049 601 1053 q 575 1015 601 1042 q 519 965 549 989 q 485 942 490 942 q 452 966 481 942 q 398 1016 424 990 q 372 1049 372 1042 z "},"H":{"ha":1013,"x_min":60,"x_max":953,"o":"m 361 867 l 417 867 l 417 796 q 385 790 408 794 q 340 780 361 785 q 310 774 318 775 l 310 489 l 701 489 l 701 774 q 670 780 693 775 q 624 790 647 785 q 594 796 601 794 l 594 867 l 953 867 l 953 796 q 919 789 944 794 q 872 779 894 783 q 842 774 850 775 l 842 93 q 874 86 850 92 q 921 76 897 81 q 953 71 944 72 l 953 0 l 594 0 l 594 71 q 625 77 601 72 q 671 87 649 82 q 701 93 693 92 l 701 404 l 310 404 l 310 93 q 340 87 318 92 q 385 77 363 82 q 417 71 408 72 l 417 0 l 60 0 l 60 71 q 92 78 68 72 q 140 88 117 83 q 171 93 163 92 l 171 774 q 138 780 163 775 q 91 790 114 785 q 60 796 68 794 l 60 867 l 361 867 z "},"Ħ":{"ha":1013,"x_min":60,"x_max":953,"o":"m 85 611 l 85 682 l 171 682 l 171 774 q 138 780 163 775 q 91 790 114 785 q 60 796 68 794 l 60 867 l 417 867 l 417 796 q 385 790 408 794 q 340 780 361 785 q 310 774 318 775 l 310 682 l 701 682 l 701 774 q 670 780 693 775 q 624 790 647 785 q 594 796 601 794 l 594 867 l 953 867 l 953 796 q 919 789 944 794 q 872 779 894 783 q 842 774 850 775 l 842 682 l 926 682 l 926 611 l 842 611 l 842 93 q 874 86 850 92 q 921 76 897 81 q 953 71 944 72 l 953 0 l 594 0 l 594 71 q 625 77 601 72 q 671 87 649 82 q 701 93 693 92 l 701 404 l 310 404 l 310 93 q 340 87 318 92 q 385 77 363 82 q 417 71 408 72 l 417 0 l 60 0 l 60 71 q 92 78 68 72 q 140 88 117 83 q 171 93 163 92 l 171 611 l 85 611 m 310 611 l 310 489 l 701 489 l 701 611 l 310 611 z "},"Ĥ":{"ha":1013,"x_min":60,"x_max":953,"o":"m 361 867 l 417 867 l 417 796 q 385 790 408 794 q 340 780 361 785 q 310 774 318 775 l 310 489 l 701 489 l 701 774 q 670 780 693 775 q 624 790 647 785 q 594 796 601 794 l 594 867 l 953 867 l 953 796 q 919 789 944 794 q 872 779 894 783 q 842 774 850 775 l 842 93 q 874 86 850 92 q 921 76 897 81 q 953 71 944 72 l 953 0 l 594 0 l 594 71 q 625 77 601 72 q 671 87 649 82 q 701 93 693 92 l 701 404 l 310 404 l 310 93 q 340 87 318 92 q 385 77 363 82 q 417 71 408 72 l 417 0 l 60 0 l 60 71 q 92 78 68 72 q 140 88 117 83 q 171 93 163 92 l 171 774 q 138 780 163 775 q 91 790 114 785 q 60 796 68 794 l 60 867 l 361 867 m 618 947 l 504 1064 l 388 947 l 328 975 l 475 1186 l 531 1186 l 683 975 l 618 947 z "},"I":{"ha":481,"x_min":60,"x_max":421,"o":"m 363 867 l 421 867 l 421 796 q 388 789 413 794 q 340 779 363 783 q 310 774 318 775 l 310 93 q 342 86 318 92 q 389 76 365 81 q 421 71 413 72 l 421 0 l 60 0 l 60 71 q 92 78 68 72 q 140 88 117 83 q 171 93 163 92 l 171 774 q 138 780 163 775 q 91 790 114 785 q 60 796 68 794 l 60 867 l 363 867 z "},"Ĳ":{"ha":1078,"x_min":60,"x_max":1043,"o":"m 644 -17 q 568 -11 603 -17 q 494 6 531 -6 l 489 275 l 556 275 q 576 201 564 243 q 600 121 589 160 q 610 86 606 103 q 618 60 614 72 q 649 58 633 58 q 770 120 739 58 q 801 288 801 182 l 801 774 q 765 780 793 775 q 712 790 738 785 q 678 796 686 794 l 678 867 l 1043 867 l 1043 796 q 1014 790 1036 794 q 972 780 992 785 q 943 774 951 775 l 943 307 q 919 141 943 211 q 831 27 896 71 q 644 -17 765 -17 m 363 867 l 421 867 l 421 796 q 388 789 413 794 q 340 779 363 783 q 310 774 318 775 l 310 93 q 342 86 318 92 q 389 76 365 81 q 421 71 413 72 l 421 0 l 60 0 l 60 71 q 92 78 68 72 q 140 88 117 83 q 171 93 163 92 l 171 774 q 138 780 163 775 q 91 790 114 785 q 60 796 68 794 l 60 867 l 363 867 z "},"Í":{"ha":481,"x_min":60,"x_max":482,"o":"m 363 867 l 421 867 l 421 796 q 388 789 413 794 q 340 779 363 783 q 310 774 318 775 l 310 93 q 342 86 318 92 q 389 76 365 81 q 421 71 413 72 l 421 0 l 60 0 l 60 71 q 92 78 68 72 q 140 88 117 83 q 171 93 163 92 l 171 774 q 138 780 163 775 q 91 790 114 785 q 60 796 68 794 l 60 867 l 363 867 m 199 974 l 314 1182 l 482 1182 l 482 1171 l 249 956 l 199 974 z "},"Ĭ":{"ha":481,"x_min":60,"x_max":421,"o":"m 363 867 l 421 867 l 421 796 q 388 789 413 794 q 340 779 363 783 q 310 774 318 775 l 310 93 q 342 86 318 92 q 389 76 365 81 q 421 71 413 72 l 421 0 l 60 0 l 60 71 q 92 78 68 72 q 140 88 117 83 q 171 93 163 92 l 171 774 q 138 780 163 775 q 91 790 114 785 q 60 796 68 794 l 60 867 l 363 867 m 410 1169 q 363 1014 406 1072 q 239 956 319 956 q 116 1014 158 956 q 68 1169 74 1072 l 126 1176 q 168 1087 142 1115 q 239 1058 194 1058 q 310 1087 283 1058 q 350 1176 336 1115 l 410 1169 z "},"Î":{"ha":481,"x_min":60,"x_max":421,"o":"m 363 867 l 421 867 l 421 796 q 388 789 413 794 q 340 779 363 783 q 310 774 318 775 l 310 93 q 342 86 318 92 q 389 76 365 81 q 421 71 413 72 l 421 0 l 60 0 l 60 71 q 92 78 68 72 q 140 88 117 83 q 171 93 163 92 l 171 774 q 138 780 163 775 q 91 790 114 785 q 60 796 68 794 l 60 867 l 363 867 m 356 947 l 242 1064 l 125 947 l 65 975 l 213 1186 l 268 1186 l 421 975 l 356 947 z "},"Ï":{"ha":481,"x_min":28,"x_max":463,"o":"m 363 867 l 421 867 l 421 796 q 388 789 413 794 q 340 779 363 783 q 310 774 318 775 l 310 93 q 342 86 318 92 q 389 76 365 81 q 421 71 413 72 l 421 0 l 60 0 l 60 71 q 92 78 68 72 q 140 88 117 83 q 171 93 163 92 l 171 774 q 138 780 163 775 q 91 790 114 785 q 60 796 68 794 l 60 867 l 363 867 m 261 1046 q 306 1098 260 1053 q 356 1143 351 1143 q 414 1098 365 1143 q 463 1046 463 1053 q 413 995 463 1040 q 356 950 364 950 q 306 996 351 950 q 261 1046 261 1042 m 28 1046 q 75 1098 28 1053 q 126 1143 122 1143 q 183 1098 136 1143 q 229 1046 229 1053 q 182 995 229 1040 q 126 950 135 950 q 76 996 122 950 q 28 1046 29 1042 z "},"İ":{"ha":481,"x_min":60,"x_max":421,"o":"m 363 867 l 421 867 l 421 796 q 388 789 413 794 q 340 779 363 783 q 310 774 318 775 l 310 93 q 342 86 318 92 q 389 76 365 81 q 421 71 413 72 l 421 0 l 60 0 l 60 71 q 92 78 68 72 q 140 88 117 83 q 171 93 163 92 l 171 774 q 138 780 163 775 q 91 790 114 785 q 60 796 68 794 l 60 867 l 363 867 m 128 1049 q 181 1102 128 1054 q 239 1150 233 1150 q 274 1127 246 1150 q 329 1078 301 1104 q 357 1049 357 1053 q 330 1015 357 1042 q 274 965 303 989 q 239 942 246 942 q 206 966 235 942 q 153 1016 178 990 q 128 1049 128 1042 z "},"Ì":{"ha":481,"x_min":8,"x_max":421,"o":"m 363 867 l 421 867 l 421 796 q 388 789 413 794 q 340 779 363 783 q 310 774 318 775 l 310 93 q 342 86 318 92 q 389 76 365 81 q 421 71 413 72 l 421 0 l 60 0 l 60 71 q 92 78 68 72 q 140 88 117 83 q 171 93 163 92 l 171 774 q 138 780 163 775 q 91 790 114 785 q 60 796 68 794 l 60 867 l 363 867 m 290 974 l 242 956 l 8 1171 l 8 1182 l 175 1182 l 290 974 z "},"Ī":{"ha":481,"x_min":60,"x_max":426,"o":"m 363 867 l 421 867 l 421 796 q 388 789 413 794 q 340 779 363 783 q 310 774 318 775 l 310 93 q 342 86 318 92 q 389 76 365 81 q 421 71 413 72 l 421 0 l 60 0 l 60 71 q 92 78 68 72 q 140 88 117 83 q 171 93 163 92 l 171 774 q 138 780 163 775 q 91 790 114 785 q 60 796 68 794 l 60 867 l 363 867 m 63 1075 l 426 1075 l 426 990 l 63 990 l 63 1075 z "},"Į":{"ha":481,"x_min":60,"x_max":438,"o":"m 421 0 q 417 -5 419 -3 q 413 -8 415 -7 q 345 -85 369 -49 q 321 -160 321 -122 q 339 -201 321 -187 q 385 -215 357 -215 q 413 -212 399 -215 q 438 -204 426 -208 l 438 -260 q 392 -281 417 -274 q 336 -289 367 -289 q 242 -261 278 -289 q 207 -183 207 -233 q 261 -69 207 -129 q 342 0 299 -29 l 60 0 l 60 71 q 92 78 68 72 q 140 88 117 83 q 171 93 163 92 l 171 774 q 138 780 163 775 q 91 790 114 785 q 60 796 68 794 l 60 867 l 421 867 l 421 796 q 388 789 413 794 q 340 779 363 783 q 310 774 318 775 l 310 93 q 342 86 318 92 q 389 76 365 81 q 421 71 413 72 l 421 0 z "},"Ĩ":{"ha":481,"x_min":31,"x_max":453,"o":"m 363 867 l 421 867 l 421 796 q 388 789 413 794 q 340 779 363 783 q 310 774 318 775 l 310 93 q 342 86 318 92 q 389 76 365 81 q 421 71 413 72 l 421 0 l 60 0 l 60 71 q 92 78 68 72 q 140 88 117 83 q 171 93 163 92 l 171 774 q 138 780 163 775 q 91 790 114 785 q 60 796 68 794 l 60 867 l 363 867 m 157 1174 q 233 1153 206 1174 q 288 1093 260 1132 q 312 1062 301 1072 q 336 1051 322 1051 q 372 1079 360 1051 q 389 1164 383 1107 l 451 1158 q 426 1010 453 1064 q 328 956 400 956 q 251 977 278 956 q 197 1038 224 999 q 173 1069 183 1058 q 149 1079 163 1079 q 116 1053 128 1079 q 96 967 104 1026 l 33 972 q 58 1120 31 1067 q 157 1174 85 1174 z "},"J":{"ha":597,"x_min":8,"x_max":563,"o":"m 165 -17 q 88 -11 124 -17 q 14 6 50 -6 l 8 275 l 75 275 q 96 201 83 243 q 121 121 108 160 q 131 86 125 103 q 138 60 133 72 q 168 58 153 58 q 291 120 260 58 q 322 288 322 182 l 322 774 q 286 780 313 775 q 233 790 260 785 q 197 796 207 794 l 197 867 l 563 867 l 563 796 q 533 790 556 794 q 491 780 511 785 q 463 774 471 775 l 463 307 q 439 141 463 211 q 350 27 415 71 q 165 -17 285 -17 z "},"Ĵ":{"ha":597,"x_min":8,"x_max":565,"o":"m 165 -17 q 88 -11 124 -17 q 14 6 50 -6 l 8 275 l 75 275 q 96 201 83 243 q 121 121 108 160 q 131 86 125 103 q 138 60 133 72 q 168 58 153 58 q 291 120 260 58 q 322 288 322 182 l 322 774 q 286 780 313 775 q 233 790 260 785 q 197 796 207 794 l 197 867 l 563 867 l 563 796 q 533 790 556 794 q 491 780 511 785 q 463 774 471 775 l 463 307 q 439 141 463 211 q 350 27 415 71 q 165 -17 285 -17 m 500 947 l 386 1064 l 268 947 l 210 975 l 356 1186 l 413 1186 l 565 975 l 500 947 z "},"K":{"ha":919,"x_min":60,"x_max":894,"o":"m 653 778 q 624 784 644 779 q 583 794 603 789 q 554 800 563 799 l 554 867 l 890 867 l 890 796 q 842 786 867 792 q 806 780 825 783 q 772 774 788 776 l 517 511 l 794 89 q 844 78 810 86 q 894 67 879 71 l 894 0 l 668 0 l 417 410 l 310 300 l 310 93 q 342 86 318 92 q 389 76 365 81 q 421 71 413 72 l 421 0 l 60 0 l 60 71 q 92 78 68 72 q 140 88 117 83 q 171 93 163 92 l 171 774 q 138 780 163 775 q 91 790 114 785 q 60 796 68 794 l 60 867 l 413 867 l 413 796 q 382 790 404 794 q 339 780 360 785 q 310 774 318 775 l 310 418 l 653 778 z "},"Ķ":{"ha":919,"x_min":60,"x_max":894,"o":"m 653 778 q 624 784 644 779 q 583 794 603 789 q 554 800 563 799 l 554 867 l 890 867 l 890 796 q 842 786 867 792 q 806 780 825 783 q 772 774 788 776 l 517 511 l 794 89 q 844 78 810 86 q 894 67 879 71 l 894 0 l 668 0 l 417 410 l 310 300 l 310 93 q 342 86 318 92 q 389 76 365 81 q 421 71 413 72 l 421 0 l 60 0 l 60 71 q 92 78 68 72 q 140 88 117 83 q 171 93 163 92 l 171 774 q 138 780 163 775 q 91 790 114 785 q 60 796 68 794 l 60 867 l 413 867 l 413 796 q 382 790 404 794 q 339 780 360 785 q 310 774 318 775 l 310 418 l 653 778 m 385 -362 q 406 -203 388 -328 q 431 -69 424 -79 q 502 -87 447 -72 q 567 -110 557 -103 q 534 -187 560 -126 q 481 -307 508 -247 q 444 -385 453 -367 q 415 -378 435 -385 q 385 -362 394 -372 z "},"L":{"ha":686,"x_min":60,"x_max":658,"o":"m 171 774 q 138 780 163 775 q 91 790 114 785 q 60 796 68 794 l 60 867 l 442 867 l 442 796 q 403 790 432 794 q 347 780 375 785 q 310 774 319 775 l 310 100 q 316 96 313 99 q 322 89 319 93 q 329 83 326 86 l 335 79 l 535 79 q 544 113 539 94 q 554 151 549 132 q 571 217 563 183 q 589 285 579 250 l 658 285 l 633 0 l 60 0 l 60 71 q 92 78 68 72 q 140 88 117 83 q 171 93 163 92 l 171 774 z "},"Ĺ":{"ha":686,"x_min":60,"x_max":658,"o":"m 171 774 q 138 780 163 775 q 91 790 114 785 q 60 796 68 794 l 60 867 l 442 867 l 442 796 q 403 790 432 794 q 347 780 375 785 q 310 774 319 775 l 310 100 q 316 96 313 99 q 322 89 319 93 q 329 83 326 86 l 335 79 l 535 79 q 544 113 539 94 q 554 151 549 132 q 571 217 563 183 q 589 285 579 250 l 658 285 l 633 0 l 60 0 l 60 71 q 92 78 68 72 q 140 88 117 83 q 171 93 163 92 l 171 774 m 196 974 l 311 1182 l 479 1182 l 479 1171 l 246 956 l 196 974 z "},"Ľ":{"ha":686,"x_min":60,"x_max":732,"o":"m 171 774 q 138 780 163 775 q 91 790 114 785 q 60 796 68 794 l 60 867 l 442 867 l 442 796 q 403 790 432 794 q 347 780 375 785 q 310 774 319 775 l 310 100 q 316 96 313 99 q 322 89 319 93 q 329 83 326 86 l 335 79 l 535 79 q 544 113 539 94 q 554 151 549 132 q 571 217 563 183 q 589 285 579 250 l 658 285 l 633 0 l 60 0 l 60 71 q 92 78 68 72 q 140 88 117 83 q 171 93 163 92 l 171 774 m 550 615 q 571 774 553 650 q 596 908 589 899 q 668 890 613 906 q 732 868 724 875 q 700 791 726 851 q 646 671 674 731 q 610 593 618 611 q 580 599 600 593 q 550 615 560 606 z "},"Ļ":{"ha":686,"x_min":60,"x_max":658,"o":"m 171 774 q 138 780 163 775 q 91 790 114 785 q 60 796 68 794 l 60 867 l 442 867 l 442 796 q 403 790 432 794 q 347 780 375 785 q 310 774 319 775 l 310 100 q 316 96 313 99 q 322 89 319 93 q 329 83 326 86 l 335 79 l 535 79 q 544 113 539 94 q 554 151 549 132 q 571 217 563 183 q 589 285 579 250 l 658 285 l 633 0 l 60 0 l 60 71 q 92 78 68 72 q 140 88 117 83 q 171 93 163 92 l 171 774 m 263 -362 q 283 -203 265 -328 q 308 -69 301 -79 q 381 -87 325 -72 q 444 -110 436 -103 q 412 -187 438 -126 q 358 -307 386 -247 q 322 -385 331 -367 q 292 -378 313 -385 q 263 -362 272 -372 z "},"Ŀ":{"ha":628,"x_min":60,"x_max":658,"o":"m 171 774 q 138 780 163 775 q 91 790 114 785 q 60 796 68 794 l 60 867 l 442 867 l 442 796 q 403 790 432 794 q 347 780 375 785 q 310 774 319 775 l 310 100 q 316 96 313 99 q 322 89 319 93 q 329 83 326 86 l 335 79 l 535 79 q 544 113 539 94 q 554 151 549 132 q 571 217 563 183 q 589 285 579 250 l 658 285 l 633 0 l 60 0 l 60 71 q 92 78 68 72 q 140 88 117 83 q 171 93 163 92 l 171 774 m 424 492 q 472 545 424 497 q 526 593 521 593 q 558 569 532 593 q 608 521 583 546 q 633 492 633 496 q 585 433 633 482 q 526 385 536 385 q 497 410 522 385 q 447 460 471 435 q 424 492 424 485 z "},"Ł":{"ha":686,"x_min":60,"x_max":658,"o":"m 171 774 q 138 780 163 775 q 91 790 114 785 q 60 796 68 794 l 60 867 l 442 867 l 442 796 q 403 790 432 794 q 347 780 375 785 q 310 774 319 775 l 310 539 l 428 650 l 435 644 l 435 556 l 310 438 l 310 100 q 316 96 313 99 q 322 89 319 93 q 329 83 326 86 l 335 79 l 535 79 q 544 113 539 94 q 554 151 549 132 q 571 217 563 183 q 589 285 579 250 l 658 285 l 633 0 l 60 0 l 60 71 q 92 78 68 72 q 140 88 117 83 q 171 93 163 92 l 171 304 l 78 217 l 69 222 l 69 311 l 171 407 l 171 774 z "},"M":{"ha":1169,"x_min":15,"x_max":1156,"o":"m 371 867 q 471 573 419 722 q 571 286 522 424 q 578 267 575 276 l 804 867 l 1101 867 l 1101 796 q 1065 790 1092 794 q 1013 780 1039 785 q 978 774 988 775 l 1033 93 q 1068 86 1042 92 q 1120 76 1094 81 q 1156 71 1146 72 l 1156 0 l 771 0 l 771 71 q 805 77 779 72 q 855 87 831 82 q 889 93 879 92 l 842 703 l 578 11 l 515 11 q 488 94 501 53 q 458 175 474 135 q 347 500 403 342 q 275 703 308 610 l 228 96 q 262 89 236 94 q 313 78 288 83 q 346 72 338 74 l 346 0 l 15 0 l 15 78 q 50 85 25 79 q 100 95 75 90 q 133 101 125 100 l 192 767 q 151 773 182 768 q 92 783 121 778 q 53 790 63 789 l 53 867 l 371 867 z "},"N":{"ha":901,"x_min":24,"x_max":888,"o":"m 281 867 q 369 735 325 799 q 475 589 414 672 q 592 418 533 503 q 689 274 640 346 l 689 774 q 655 780 681 775 q 603 790 629 785 q 569 796 578 794 l 569 867 l 888 867 l 888 796 q 858 790 881 794 q 813 780 835 785 q 785 774 792 775 l 785 -3 l 710 -3 q 613 138 661 68 q 515 278 564 207 q 358 501 438 390 q 239 671 299 586 l 239 93 q 276 87 249 92 q 330 77 303 82 q 367 71 357 72 l 367 0 l 35 0 l 35 71 q 67 78 43 72 q 113 88 90 83 q 144 93 136 92 l 144 769 q 110 776 136 771 q 58 786 83 781 q 24 793 32 792 l 24 867 l 281 867 z "},"Ń":{"ha":901,"x_min":24,"x_max":888,"o":"m 281 867 q 369 735 325 799 q 475 589 414 672 q 592 418 533 503 q 689 274 640 346 l 689 774 q 655 780 681 775 q 603 790 629 785 q 569 796 578 794 l 569 867 l 888 867 l 888 796 q 858 790 881 794 q 813 780 835 785 q 785 774 792 775 l 785 -3 l 710 -3 q 613 138 661 68 q 515 278 564 207 q 358 501 438 390 q 239 671 299 586 l 239 93 q 276 87 249 92 q 330 77 303 82 q 367 71 357 72 l 367 0 l 35 0 l 35 71 q 67 78 43 72 q 113 88 90 83 q 144 93 136 92 l 144 769 q 110 776 136 771 q 58 786 83 781 q 24 793 32 792 l 24 867 l 281 867 m 425 974 l 542 1182 l 708 1182 l 708 1171 l 475 956 l 425 974 z "},"Ň":{"ha":901,"x_min":24,"x_max":888,"o":"m 281 867 q 369 735 325 799 q 475 589 414 672 q 592 418 533 503 q 689 274 640 346 l 689 774 q 655 780 681 775 q 603 790 629 785 q 569 796 578 794 l 569 867 l 888 867 l 888 796 q 858 790 881 794 q 813 780 835 785 q 785 774 792 775 l 785 -3 l 710 -3 q 613 138 661 68 q 515 278 564 207 q 358 501 438 390 q 239 671 299 586 l 239 93 q 276 87 249 92 q 330 77 303 82 q 367 71 357 72 l 367 0 l 35 0 l 35 71 q 67 78 43 72 q 113 88 90 83 q 144 93 136 92 l 144 769 q 110 776 136 771 q 58 786 83 781 q 24 793 32 792 l 24 867 l 281 867 m 583 1194 l 649 1165 l 496 956 l 439 956 l 293 1165 l 351 1194 l 468 1078 l 583 1194 z "},"Ņ":{"ha":901,"x_min":24,"x_max":888,"o":"m 281 867 q 369 735 325 799 q 475 589 414 672 q 592 418 533 503 q 689 274 640 346 l 689 774 q 655 780 681 775 q 603 790 629 785 q 569 796 578 794 l 569 867 l 888 867 l 888 796 q 858 790 881 794 q 813 780 835 785 q 785 774 792 775 l 785 -3 l 710 -3 q 613 138 661 68 q 515 278 564 207 q 358 501 438 390 q 239 671 299 586 l 239 93 q 276 87 249 92 q 330 77 303 82 q 367 71 357 72 l 367 0 l 35 0 l 35 71 q 67 78 43 72 q 113 88 90 83 q 144 93 136 92 l 144 769 q 110 776 136 771 q 58 786 83 781 q 24 793 32 792 l 24 867 l 281 867 m 364 -362 q 385 -203 367 -328 q 410 -69 403 -79 q 481 -87 426 -72 q 546 -110 536 -103 q 513 -187 539 -126 q 459 -307 486 -247 q 422 -385 432 -367 q 393 -378 413 -385 q 364 -362 374 -372 z "},"Ŋ":{"ha":933,"x_min":0,"x_max":908,"o":"m 300 867 q 464 623 385 736 q 643 375 543 510 q 713 282 679 325 l 710 774 q 672 780 700 775 q 615 790 643 785 q 578 796 588 794 l 578 865 q 623 867 599 867 q 671 867 647 867 q 717 867 694 867 l 908 867 l 908 796 q 876 789 900 794 q 831 779 853 783 q 800 774 808 775 l 800 -92 q 757 -243 800 -189 q 624 -297 715 -296 l 624 -297 q 622 -297 624 -297 q 621 -297 622 -297 q 542 -291 579 -297 q 478 -275 504 -285 l 471 -97 l 538 -97 q 550 -139 544 -118 q 563 -181 556 -160 q 572 -214 568 -197 q 575 -221 574 -218 q 624 -225 599 -225 q 688 -192 665 -225 q 710 -101 710 -158 l 710 42 q 569 239 654 121 q 390 489 483 360 q 247 681 315 592 l 247 93 q 285 87 257 92 q 342 77 314 82 q 379 71 369 72 l 379 0 l 47 0 l 47 71 q 80 78 56 72 q 126 88 104 83 q 157 93 149 92 l 157 764 q 112 771 146 765 q 44 782 78 776 q 0 789 11 788 l 0 867 l 300 867 z "},"Ñ":{"ha":901,"x_min":24,"x_max":888,"o":"m 281 867 q 369 735 325 799 q 475 589 414 672 q 592 418 533 503 q 689 274 640 346 l 689 774 q 655 780 681 775 q 603 790 629 785 q 569 796 578 794 l 569 867 l 888 867 l 888 796 q 858 790 881 794 q 813 780 835 785 q 785 774 792 775 l 785 -3 l 710 -3 q 613 138 661 68 q 515 278 564 207 q 358 501 438 390 q 239 671 299 586 l 239 93 q 276 87 249 92 q 330 77 303 82 q 367 71 357 72 l 367 0 l 35 0 l 35 71 q 67 78 43 72 q 113 88 90 83 q 144 93 136 92 l 144 769 q 110 776 136 771 q 58 786 83 781 q 24 793 32 792 l 24 867 l 281 867 m 385 1174 q 460 1153 433 1174 q 514 1093 488 1132 q 539 1062 529 1072 q 564 1051 549 1051 q 599 1079 586 1051 q 617 1164 611 1107 l 678 1158 q 654 1010 681 1064 q 556 956 628 956 q 478 977 506 956 q 425 1038 451 999 q 399 1069 410 1058 q 375 1079 389 1079 q 342 1053 354 1079 q 324 967 331 1026 l 260 972 q 285 1120 258 1067 q 385 1174 311 1174 z "},"O":{"ha":1004,"x_min":63,"x_max":940,"o":"m 493 -17 q 270 40 368 -17 q 117 198 172 96 q 63 433 63 300 q 119 665 63 563 q 276 826 175 768 q 506 883 378 883 q 726 827 626 883 q 883 669 825 771 q 940 433 940 567 q 881 203 940 306 q 719 42 821 100 q 493 -17 617 -17 m 503 69 q 651 113 588 69 q 751 238 715 157 q 788 425 788 319 q 749 615 788 529 q 644 749 710 700 q 501 797 578 799 q 349 754 413 797 q 251 632 285 711 q 217 447 217 553 q 253 254 217 340 q 356 119 290 168 q 503 69 421 69 z "},"Ó":{"ha":1004,"x_min":63,"x_max":940,"o":"m 493 -17 q 270 40 368 -17 q 117 198 172 96 q 63 433 63 300 q 119 665 63 563 q 276 826 175 768 q 506 883 378 883 q 726 827 626 883 q 883 669 825 771 q 940 433 940 567 q 881 203 940 306 q 719 42 821 100 q 493 -17 617 -17 m 503 69 q 651 113 588 69 q 751 238 715 157 q 788 425 788 319 q 749 615 788 529 q 644 749 710 700 q 501 797 578 799 q 349 754 413 797 q 251 632 285 711 q 217 447 217 553 q 253 254 217 340 q 356 119 290 168 q 503 69 421 69 m 460 974 l 576 1182 l 743 1182 l 743 1171 l 510 956 l 460 974 z "},"Ŏ":{"ha":1004,"x_min":63,"x_max":940,"o":"m 493 -17 q 270 40 368 -17 q 117 198 172 96 q 63 433 63 300 q 119 665 63 563 q 276 826 175 768 q 506 883 378 883 q 726 827 626 883 q 883 669 825 771 q 940 433 940 567 q 881 203 940 306 q 719 42 821 100 q 493 -17 617 -17 m 503 69 q 651 113 588 69 q 751 238 715 157 q 788 425 788 319 q 749 615 788 529 q 644 749 710 700 q 501 797 578 799 q 349 754 413 797 q 251 632 285 711 q 217 447 217 553 q 253 254 217 340 q 356 119 290 168 q 503 69 421 69 m 671 1169 q 624 1014 667 1072 q 500 956 581 956 q 377 1014 419 956 q 329 1169 335 1072 l 389 1176 q 429 1087 403 1115 q 500 1058 456 1058 q 572 1087 544 1058 q 611 1176 599 1115 l 671 1169 z "},"Ô":{"ha":1004,"x_min":63,"x_max":940,"o":"m 493 -17 q 270 40 368 -17 q 117 198 172 96 q 63 433 63 300 q 119 665 63 563 q 276 826 175 768 q 506 883 378 883 q 726 827 626 883 q 883 669 825 771 q 940 433 940 567 q 881 203 940 306 q 719 42 821 100 q 493 -17 617 -17 m 503 69 q 651 113 588 69 q 751 238 715 157 q 788 425 788 319 q 749 615 788 529 q 644 749 710 700 q 501 797 578 799 q 349 754 413 797 q 251 632 285 711 q 217 447 217 553 q 253 254 217 340 q 356 119 290 168 q 503 69 421 69 m 617 947 l 503 1064 l 386 947 l 328 975 l 474 1186 l 529 1186 l 682 975 l 617 947 z "},"Ö":{"ha":1004,"x_min":63,"x_max":940,"o":"m 493 -17 q 270 40 368 -17 q 117 198 172 96 q 63 433 63 300 q 119 665 63 563 q 276 826 175 768 q 506 883 378 883 q 726 827 626 883 q 883 669 825 771 q 940 433 940 567 q 881 203 940 306 q 719 42 821 100 q 493 -17 617 -17 m 503 69 q 651 113 588 69 q 751 238 715 157 q 788 425 788 319 q 749 615 788 529 q 644 749 710 700 q 501 797 578 799 q 349 754 413 797 q 251 632 285 711 q 217 447 217 553 q 253 254 217 340 q 356 119 290 168 q 503 69 421 69 m 289 1046 q 337 1098 289 1053 q 388 1143 385 1143 q 444 1098 397 1143 q 492 1046 492 1053 q 444 995 492 1040 q 388 950 397 950 q 338 996 385 950 q 289 1046 290 1042 m 522 1046 q 568 1098 522 1053 q 617 1143 614 1143 q 675 1098 626 1143 q 724 1046 724 1053 q 674 995 724 1040 q 617 950 625 950 q 568 996 614 950 q 522 1046 522 1042 z "},"Ò":{"ha":1004,"x_min":63,"x_max":940,"o":"m 493 -17 q 270 40 368 -17 q 117 198 172 96 q 63 433 63 300 q 119 665 63 563 q 276 826 175 768 q 506 883 378 883 q 726 827 626 883 q 883 669 825 771 q 940 433 940 567 q 881 203 940 306 q 719 42 821 100 q 493 -17 617 -17 m 503 69 q 651 113 588 69 q 751 238 715 157 q 788 425 788 319 q 749 615 788 529 q 644 749 710 700 q 501 797 578 799 q 349 754 413 797 q 251 632 285 711 q 217 447 217 553 q 253 254 217 340 q 356 119 290 168 q 503 69 421 69 m 551 974 l 503 956 l 269 1171 l 269 1182 l 436 1182 l 551 974 z "},"Ő":{"ha":1004,"x_min":63,"x_max":940,"o":"m 493 -17 q 270 40 368 -17 q 117 198 172 96 q 63 433 63 300 q 119 665 63 563 q 276 826 175 768 q 506 883 378 883 q 726 827 626 883 q 883 669 825 771 q 940 433 940 567 q 881 203 940 306 q 719 42 821 100 q 493 -17 617 -17 m 503 69 q 651 113 588 69 q 751 238 715 157 q 788 425 788 319 q 749 615 788 529 q 644 749 710 700 q 501 797 578 799 q 349 754 413 797 q 251 632 285 711 q 217 447 217 553 q 253 254 217 340 q 356 119 290 168 q 503 69 421 69 m 333 974 l 424 1182 l 578 1182 l 578 1171 l 382 956 l 333 974 m 568 974 l 683 1182 l 842 1182 l 842 1171 l 617 956 l 568 974 z "},"Ō":{"ha":1004,"x_min":63,"x_max":940,"o":"m 493 -17 q 270 40 368 -17 q 117 198 172 96 q 63 433 63 300 q 119 665 63 563 q 276 826 175 768 q 506 883 378 883 q 726 827 626 883 q 883 669 825 771 q 940 433 940 567 q 881 203 940 306 q 719 42 821 100 q 493 -17 617 -17 m 503 69 q 651 113 588 69 q 751 238 715 157 q 788 425 788 319 q 749 615 788 529 q 644 749 710 700 q 501 797 578 799 q 349 754 413 797 q 251 632 285 711 q 217 447 217 553 q 253 254 217 340 q 356 119 290 168 q 503 69 421 69 m 325 1075 l 688 1075 l 688 990 l 325 990 l 325 1075 z "},"Ø":{"ha":1004,"x_min":63,"x_max":942,"o":"m 163 0 l 68 0 l 174 118 q 118 199 142 154 q 63 433 63 300 q 119 665 63 563 q 277 826 176 768 q 506 883 378 883 q 726 828 626 883 q 774 796 751 813 l 838 867 l 932 867 l 826 749 q 883 669 858 713 q 942 433 942 567 q 882 203 942 306 q 719 42 822 100 q 493 -17 617 -17 q 271 40 368 -17 q 225 71 246 54 l 163 0 m 513 67 q 657 109 594 67 q 755 230 719 151 q 790 410 790 308 q 750 610 790 519 q 733 643 742 626 l 308 165 q 358 118 331 138 q 513 67 426 67 m 268 226 l 692 703 q 642 750 668 729 q 492 800 574 801 q 344 758 406 800 q 249 640 282 717 q 215 463 215 564 q 253 260 215 350 q 268 226 260 242 z "},"Ǿ":{"ha":1004,"x_min":63,"x_max":942,"o":"m 163 0 l 68 0 l 174 118 q 118 199 142 154 q 63 433 63 300 q 119 665 63 563 q 277 826 176 768 q 506 883 378 883 q 726 828 626 883 q 774 796 751 813 l 838 867 l 932 867 l 826 749 q 883 669 858 713 q 942 433 942 567 q 882 203 942 306 q 719 42 822 100 q 493 -17 617 -17 q 271 40 368 -17 q 225 71 246 54 l 163 0 m 513 67 q 657 109 594 67 q 755 230 719 151 q 790 410 790 308 q 750 610 790 519 q 733 643 742 626 l 308 165 q 358 118 331 138 q 513 67 426 67 m 268 226 l 692 703 q 642 750 668 729 q 492 800 574 801 q 344 758 406 800 q 249 640 282 717 q 215 463 215 564 q 253 260 215 350 q 268 226 260 242 m 460 974 l 576 1182 l 743 1182 l 743 1171 l 510 956 l 460 974 z "},"Õ":{"ha":1004,"x_min":63,"x_max":940,"o":"m 493 -17 q 270 40 368 -17 q 117 198 172 96 q 63 433 63 300 q 119 665 63 563 q 276 826 175 768 q 506 883 378 883 q 726 827 626 883 q 883 669 825 771 q 940 433 940 567 q 881 203 940 306 q 719 42 821 100 q 493 -17 617 -17 m 503 69 q 651 113 588 69 q 751 238 715 157 q 788 425 788 319 q 749 615 788 529 q 644 749 710 700 q 501 797 578 799 q 349 754 413 797 q 251 632 285 711 q 217 447 217 553 q 253 254 217 340 q 356 119 290 168 q 503 69 421 69 m 419 1174 q 495 1153 468 1174 q 549 1093 522 1132 q 574 1062 564 1072 q 599 1051 585 1051 q 633 1079 621 1051 q 651 1164 646 1107 l 713 1158 q 689 1010 715 1064 q 590 956 663 956 q 513 977 540 956 q 460 1038 486 999 q 434 1069 444 1058 q 410 1079 424 1079 q 377 1053 389 1079 q 358 967 365 1026 l 296 972 q 319 1120 293 1067 q 419 1174 346 1174 z "},"Œ":{"ha":1136,"x_min":63,"x_max":1104,"o":"m 617 867 l 1060 867 l 1060 660 l 993 660 q 981 699 988 679 q 968 739 975 719 q 960 764 964 751 q 951 788 956 776 l 768 788 q 763 785 767 786 q 756 783 758 785 l 756 497 q 813 497 781 497 q 931 496 861 496 q 939 515 933 503 q 951 539 944 526 q 962 561 957 551 q 969 576 967 571 l 1032 576 q 1025 512 1028 546 q 1021 444 1022 478 q 1019 381 1019 414 q 1021 317 1019 347 l 960 317 q 956 328 958 321 q 950 346 953 336 q 937 383 943 364 q 925 418 931 401 q 811 418 858 418 q 756 417 781 418 l 756 97 l 763 90 q 769 84 767 86 q 776 79 772 82 l 969 79 q 983 115 975 96 q 997 157 990 135 q 1015 203 1006 179 q 1033 251 1024 228 l 1104 251 l 1081 0 l 617 0 q 494 -6 558 -6 q 272 49 371 -6 q 118 203 174 103 q 63 433 63 303 q 120 660 63 560 q 279 816 178 760 q 507 872 381 872 q 617 867 557 872 m 617 753 q 568 778 594 768 q 494 790 531 790 q 347 749 410 790 q 251 633 285 707 q 217 463 217 560 q 256 267 217 356 q 365 128 296 179 q 514 76 433 76 q 617 101 574 76 l 617 753 z "},"P":{"ha":713,"x_min":60,"x_max":688,"o":"m 310 93 q 348 87 319 92 q 404 77 376 82 q 442 71 432 72 l 442 0 l 60 0 l 60 71 q 92 78 68 72 q 140 88 117 83 q 171 93 163 92 l 171 774 q 138 780 163 775 q 91 790 114 785 q 60 796 68 794 l 60 867 l 376 867 q 613 804 538 867 q 688 617 688 742 q 647 476 688 539 q 532 378 607 413 q 357 343 457 343 q 310 346 332 343 l 310 93 m 310 421 q 363 417 333 417 q 494 465 453 417 q 535 588 535 514 q 517 690 535 643 q 459 764 499 736 q 360 792 419 792 l 349 792 q 310 788 329 792 l 310 421 z "},"Þ":{"ha":713,"x_min":60,"x_max":688,"o":"m 376 694 q 610 635 533 694 q 688 450 688 575 q 648 313 688 374 q 533 217 608 251 q 357 182 458 182 q 310 185 333 182 l 310 93 q 342 86 318 92 q 389 76 365 81 q 421 71 413 72 l 421 0 l 60 0 l 60 71 q 92 78 68 72 q 140 88 117 83 q 171 93 163 92 l 171 774 q 138 780 163 775 q 91 790 114 785 q 60 796 68 794 l 60 867 l 421 867 l 421 796 q 388 789 413 794 q 340 779 363 783 q 310 774 318 775 l 310 694 l 376 694 m 310 624 l 310 254 q 363 251 333 251 q 494 301 453 251 q 535 421 535 350 q 517 524 535 478 q 459 599 499 571 q 360 628 419 628 l 349 628 q 310 624 328 628 z "},"Q":{"ha":1006,"x_min":63,"x_max":964,"o":"m 93 -168 q 201 -146 154 -165 q 296 -79 247 -126 q 338 -33 322 -54 q 358 3 347 -19 q 271 40 313 15 q 117 198 172 96 q 63 433 63 300 q 119 665 63 563 q 276 826 175 768 q 506 883 378 883 q 726 827 626 883 q 883 669 825 771 q 940 433 940 567 q 881 203 940 306 q 719 42 821 100 q 493 -17 617 -17 q 440 -14 467 -17 q 407 -68 428 -40 q 389 -90 397 -81 q 446 -99 414 -94 q 458 -101 451 -100 q 471 -104 465 -103 l 693 -149 q 715 -152 703 -150 q 738 -156 726 -154 q 764 -159 751 -158 q 789 -160 776 -160 q 823 -156 806 -160 q 856 -143 840 -151 q 888 -121 874 -133 q 913 -92 903 -108 l 964 -118 q 921 -202 954 -164 q 841 -262 888 -240 q 749 -283 794 -283 q 690 -279 721 -283 q 633 -269 658 -275 l 425 -225 q 401 -219 413 -222 q 376 -214 389 -217 q 307 -201 331 -204 q 305 -203 306 -203 q 303 -204 304 -203 q 218 -247 258 -233 q 129 -261 178 -261 l 93 -261 l 93 -168 m 513 68 q 655 110 593 68 q 752 231 717 153 q 788 410 788 310 q 747 608 788 519 q 640 749 707 697 q 492 799 572 800 q 345 757 407 799 q 250 639 283 715 q 217 463 217 563 q 254 260 217 350 q 359 119 292 171 q 513 68 426 68 z "},"R":{"ha":810,"x_min":60,"x_max":804,"o":"m 614 0 l 339 399 l 339 451 q 482 509 426 458 q 538 632 538 560 q 492 749 538 706 q 364 792 446 792 l 350 792 q 310 788 329 792 l 310 93 q 342 87 318 92 q 388 77 365 82 q 419 71 411 72 l 419 0 l 60 0 l 60 71 q 92 78 68 72 q 140 88 117 83 q 171 93 163 92 l 171 774 q 138 780 163 775 q 91 790 114 785 q 60 796 68 794 l 60 867 l 389 867 q 561 841 494 867 q 658 765 628 815 q 689 643 689 715 q 644 522 689 578 q 526 432 599 467 q 490 417 510 424 l 725 93 q 765 83 738 90 q 804 71 792 75 l 804 0 l 614 0 z "},"Ŕ":{"ha":810,"x_min":60,"x_max":804,"o":"m 614 0 l 339 399 l 339 451 q 482 509 426 458 q 538 632 538 560 q 492 749 538 706 q 364 792 446 792 l 350 792 q 310 788 329 792 l 310 93 q 342 87 318 92 q 388 77 365 82 q 419 71 411 72 l 419 0 l 60 0 l 60 71 q 92 78 68 72 q 140 88 117 83 q 171 93 163 92 l 171 774 q 138 780 163 775 q 91 790 114 785 q 60 796 68 794 l 60 867 l 389 867 q 561 841 494 867 q 658 765 628 815 q 689 643 689 715 q 644 522 689 578 q 526 432 599 467 q 490 417 510 424 l 725 93 q 765 83 738 90 q 804 71 792 75 l 804 0 l 614 0 m 378 974 l 493 1182 l 660 1182 l 660 1171 l 426 956 l 378 974 z "},"Ř":{"ha":810,"x_min":60,"x_max":804,"o":"m 614 0 l 339 399 l 339 451 q 482 509 426 458 q 538 632 538 560 q 492 749 538 706 q 364 792 446 792 l 350 792 q 310 788 329 792 l 310 93 q 342 87 318 92 q 388 77 365 82 q 419 71 411 72 l 419 0 l 60 0 l 60 71 q 92 78 68 72 q 140 88 117 83 q 171 93 163 92 l 171 774 q 138 780 163 775 q 91 790 114 785 q 60 796 68 794 l 60 867 l 389 867 q 561 841 494 867 q 658 765 628 815 q 689 643 689 715 q 644 522 689 578 q 526 432 599 467 q 490 417 510 424 l 725 93 q 765 83 738 90 q 804 71 792 75 l 804 0 l 614 0 m 535 1194 l 600 1165 l 447 956 l 392 956 l 244 1165 l 304 1194 l 421 1078 l 535 1194 z "},"Ŗ":{"ha":810,"x_min":60,"x_max":804,"o":"m 614 0 l 339 399 l 339 451 q 482 509 426 458 q 538 632 538 560 q 492 749 538 706 q 364 792 446 792 l 350 792 q 310 788 329 792 l 310 93 q 342 87 318 92 q 388 77 365 82 q 419 71 411 72 l 419 0 l 60 0 l 60 71 q 92 78 68 72 q 140 88 117 83 q 171 93 163 92 l 171 774 q 138 780 163 775 q 91 790 114 785 q 60 796 68 794 l 60 867 l 389 867 q 561 841 494 867 q 658 765 628 815 q 689 643 689 715 q 644 522 689 578 q 526 432 599 467 q 490 417 510 424 l 725 93 q 765 83 738 90 q 804 71 792 75 l 804 0 l 614 0 m 340 -362 q 361 -203 343 -328 q 386 -69 379 -79 q 458 -87 403 -72 q 522 -110 514 -103 q 490 -187 517 -126 q 436 -307 464 -247 q 400 -385 408 -367 q 371 -378 390 -385 q 340 -362 351 -372 z "},"S":{"ha":633,"x_min":60,"x_max":583,"o":"m 269 -17 q 171 -9 219 -17 q 75 10 122 -1 q 74 11 74 11 l 71 11 l 65 285 l 132 285 q 165 168 150 219 q 194 69 179 117 q 393 92 331 54 q 456 213 456 131 q 432 299 456 265 q 374 351 408 333 q 281 393 340 369 q 165 444 210 418 q 90 520 121 469 q 60 654 60 571 q 127 826 60 768 q 346 883 194 883 q 457 874 406 883 q 544 850 508 864 l 550 593 l 483 593 q 457 669 472 631 q 444 719 453 689 q 422 797 436 749 q 242 781 296 813 q 189 679 189 749 q 210 601 189 631 q 265 555 232 571 q 353 518 297 539 q 472 467 426 492 q 551 387 518 442 q 583 240 583 332 q 505 51 583 118 q 269 -17 426 -17 z "},"Ś":{"ha":633,"x_min":60,"x_max":583,"o":"m 269 -17 q 171 -9 219 -17 q 75 10 122 -1 q 74 11 74 11 l 71 11 l 65 285 l 132 285 q 165 168 150 219 q 194 69 179 117 q 393 92 331 54 q 456 213 456 131 q 432 299 456 265 q 374 351 408 333 q 281 393 340 369 q 165 444 210 418 q 90 520 121 469 q 60 654 60 571 q 127 826 60 768 q 346 883 194 883 q 457 874 406 883 q 544 850 508 864 l 550 593 l 483 593 q 457 669 472 631 q 444 719 453 689 q 422 797 436 749 q 242 781 296 813 q 189 679 189 749 q 210 601 189 631 q 265 555 232 571 q 353 518 297 539 q 472 467 426 492 q 551 387 518 442 q 583 240 583 332 q 505 51 583 118 q 269 -17 426 -17 m 271 974 l 388 1182 l 554 1182 l 554 1171 l 321 956 l 271 974 z "},"Š":{"ha":633,"x_min":60,"x_max":583,"o":"m 269 -17 q 171 -9 219 -17 q 75 10 122 -1 q 74 11 74 11 l 71 11 l 65 285 l 132 285 q 165 168 150 219 q 194 69 179 117 q 393 92 331 54 q 456 213 456 131 q 432 299 456 265 q 374 351 408 333 q 281 393 340 369 q 165 444 210 418 q 90 520 121 469 q 60 654 60 571 q 127 826 60 768 q 346 883 194 883 q 457 874 406 883 q 544 850 508 864 l 550 593 l 483 593 q 457 669 472 631 q 444 719 453 689 q 422 797 436 749 q 242 781 296 813 q 189 679 189 749 q 210 601 189 631 q 265 555 232 571 q 353 518 297 539 q 472 467 426 492 q 551 387 518 442 q 583 240 583 332 q 505 51 583 118 q 269 -17 426 -17 m 429 1194 l 494 1165 l 342 956 l 286 956 l 139 1165 l 197 1194 l 314 1078 l 429 1194 z "},"Ş":{"ha":633,"x_min":60,"x_max":583,"o":"m 269 -17 q 171 -9 219 -17 q 75 10 122 -1 q 74 11 74 11 l 71 11 l 65 285 l 132 285 q 165 168 150 219 q 194 69 179 117 q 393 92 331 54 q 456 213 456 131 q 432 299 456 265 q 374 351 408 333 q 281 393 340 369 q 165 444 210 418 q 90 520 121 469 q 60 654 60 571 q 127 826 60 768 q 346 883 194 883 q 457 874 406 883 q 544 850 508 864 l 550 593 l 483 593 q 457 669 472 631 q 444 719 453 689 q 422 797 436 749 q 242 781 296 813 q 189 679 189 749 q 210 601 189 631 q 265 555 232 571 q 353 518 297 539 q 472 467 426 492 q 551 387 518 442 q 583 240 583 332 q 506 50 583 118 q 336 -14 444 -1 l 325 -76 q 397 -117 371 -90 q 425 -185 425 -144 q 380 -265 425 -236 q 271 -294 335 -294 q 189 -283 226 -294 l 200 -228 q 261 -244 233 -244 q 297 -233 283 -244 q 311 -199 311 -221 q 294 -165 311 -179 q 244 -146 278 -151 l 271 -17 q 269 -17 271 -17 z "},"Ŝ":{"ha":633,"x_min":60,"x_max":583,"o":"m 269 -17 q 171 -9 219 -17 q 75 10 122 -1 q 74 11 74 11 l 71 11 l 65 285 l 132 285 q 165 168 150 219 q 194 69 179 117 q 393 92 331 54 q 456 213 456 131 q 432 299 456 265 q 374 351 408 333 q 281 393 340 369 q 165 444 210 418 q 90 520 121 469 q 60 654 60 571 q 127 826 60 768 q 346 883 194 883 q 457 874 406 883 q 544 850 508 864 l 550 593 l 483 593 q 457 669 472 631 q 444 719 453 689 q 422 797 436 749 q 242 781 296 813 q 189 679 189 749 q 210 601 189 631 q 265 555 232 571 q 353 518 297 539 q 472 467 426 492 q 551 387 518 442 q 583 240 583 332 q 505 51 583 118 q 269 -17 426 -17 m 428 947 l 314 1064 l 197 947 l 139 975 l 285 1186 l 340 1186 l 493 975 l 428 947 z "},"Ș":{"ha":633,"x_min":60,"x_max":583,"o":"m 269 -17 q 171 -9 219 -17 q 75 10 122 -1 q 74 11 74 11 l 71 11 l 65 285 l 132 285 q 165 168 150 219 q 194 69 179 117 q 393 92 331 54 q 456 213 456 131 q 432 299 456 265 q 374 351 408 333 q 281 393 340 369 q 165 444 210 418 q 90 520 121 469 q 60 654 60 571 q 127 826 60 768 q 346 883 194 883 q 457 874 406 883 q 544 850 508 864 l 550 593 l 483 593 q 457 669 472 631 q 444 719 453 689 q 422 797 436 749 q 242 781 296 813 q 189 679 189 749 q 210 601 189 631 q 265 555 232 571 q 353 518 297 539 q 472 467 426 492 q 551 387 518 442 q 583 240 583 332 q 505 51 583 118 q 269 -17 426 -17 m 218 -362 q 239 -203 221 -328 q 264 -69 257 -79 q 336 -87 281 -72 q 400 -110 392 -103 q 368 -187 394 -126 q 314 -307 342 -247 q 278 -385 286 -367 q 249 -378 268 -385 q 218 -362 229 -372 z "},"ẞ":{"ha":906,"x_min":35,"x_max":857,"o":"m 576 -11 q 438 4 508 -11 l 418 8 l 413 235 l 479 235 q 494 184 488 207 q 506 142 500 161 q 517 103 513 121 q 528 68 522 86 q 667 94 621 53 q 713 224 713 136 q 676 351 713 301 q 564 432 640 400 l 456 478 l 456 507 l 654 776 q 642 782 647 779 q 518 804 586 804 q 331 743 389 804 q 274 558 274 682 l 274 93 q 297 86 279 92 q 333 76 315 81 q 357 71 350 72 l 357 0 l 35 0 l 35 71 q 63 78 42 72 q 106 88 85 83 q 133 93 126 92 l 133 561 q 219 802 133 721 q 510 883 304 883 q 677 862 599 883 q 814 806 756 840 l 814 776 l 611 500 l 621 497 q 747 436 696 471 q 828 351 799 401 q 857 229 857 300 q 824 101 857 154 q 729 18 792 47 q 576 -11 667 -11 z "},"T":{"ha":753,"x_min":28,"x_max":726,"o":"m 444 93 q 481 86 454 92 q 532 76 507 81 q 567 69 557 71 l 567 -1 q 525 0 547 0 l 181 0 l 181 71 q 217 77 190 72 q 269 87 243 82 q 303 93 294 92 l 303 788 l 138 788 q 125 729 131 756 q 110 662 118 700 q 93 574 103 624 l 28 574 l 33 867 l 721 867 l 726 574 l 661 574 q 640 674 654 606 q 630 725 636 697 q 617 788 624 753 l 450 788 l 444 93 z "},"Ŧ":{"ha":753,"x_min":28,"x_max":726,"o":"m 444 93 q 481 86 454 92 q 532 76 507 81 q 567 69 557 71 l 567 -1 q 525 0 547 0 l 181 0 l 181 71 q 217 77 190 72 q 269 87 243 82 q 303 93 294 92 l 303 399 l 157 399 l 157 471 l 303 471 l 303 788 l 138 788 q 125 729 131 756 q 110 662 118 700 q 93 574 103 624 l 28 574 l 33 867 l 721 867 l 726 574 l 661 574 q 640 674 654 606 q 630 725 636 697 q 617 788 624 753 l 450 788 l 447 471 l 596 471 l 596 399 l 447 399 l 444 93 z "},"Ť":{"ha":753,"x_min":28,"x_max":726,"o":"m 444 93 q 481 86 454 92 q 532 76 507 81 q 567 69 557 71 l 567 -1 q 525 0 547 0 l 181 0 l 181 71 q 217 77 190 72 q 269 87 243 82 q 303 93 294 92 l 303 788 l 138 788 q 125 729 131 756 q 110 662 118 700 q 93 574 103 624 l 28 574 l 33 867 l 721 867 l 726 574 l 661 574 q 640 674 654 606 q 630 725 636 697 q 617 788 624 753 l 450 788 l 444 93 m 489 1194 l 554 1165 l 401 956 l 346 956 l 199 1165 l 258 1194 l 375 1078 l 489 1194 z "},"Ţ":{"ha":753,"x_min":28,"x_max":726,"o":"m 444 93 q 481 86 454 92 q 532 76 507 81 q 567 69 557 71 l 567 -1 q 525 0 547 0 l 438 0 l 406 0 l 393 -76 q 464 -117 439 -90 q 492 -185 492 -144 q 447 -265 492 -236 q 339 -294 401 -294 q 256 -283 294 -294 l 267 -228 q 328 -244 300 -244 q 365 -233 351 -244 q 379 -199 379 -221 q 363 -165 379 -179 q 311 -146 346 -151 l 343 0 l 181 0 l 181 71 q 217 77 190 72 q 269 87 243 82 q 303 93 294 92 l 303 788 l 138 788 q 125 729 131 756 q 110 662 118 700 q 93 574 103 624 l 28 574 l 33 867 l 721 867 l 726 574 l 661 574 q 640 674 654 606 q 630 725 636 697 q 617 788 624 753 l 450 788 l 444 93 z "},"Ț":{"ha":753,"x_min":28,"x_max":726,"o":"m 444 93 q 481 86 454 92 q 532 76 507 81 q 567 69 557 71 l 567 -1 q 525 0 547 0 l 181 0 l 181 71 q 217 77 190 72 q 269 87 243 82 q 303 93 294 92 l 303 788 l 138 788 q 125 729 131 756 q 110 662 118 700 q 93 574 103 624 l 28 574 l 33 867 l 721 867 l 726 574 l 661 574 q 640 674 654 606 q 630 725 636 697 q 617 788 624 753 l 450 788 l 444 93 m 286 -362 q 307 -203 289 -328 q 332 -69 325 -79 q 403 -87 349 -72 q 468 -110 458 -103 q 435 -187 461 -126 q 381 -307 408 -247 q 344 -385 354 -367 q 315 -378 335 -385 q 286 -362 296 -372 z "},"U":{"ha":926,"x_min":35,"x_max":893,"o":"m 707 774 q 679 781 700 775 l 638 790 q 608 796 617 794 l 608 867 l 893 867 l 893 796 q 865 789 886 794 q 826 779 844 783 q 800 774 807 775 l 800 290 q 763 126 800 196 q 654 20 725 57 q 485 -17 583 -17 q 231 64 319 -17 q 142 308 142 144 l 142 774 q 110 780 133 775 q 65 790 88 785 q 35 796 43 794 l 35 867 l 390 867 l 390 796 q 358 790 382 794 q 313 780 335 785 q 282 774 290 775 l 282 306 q 310 178 282 232 q 387 97 338 125 q 500 69 436 69 q 610 98 563 69 q 682 178 657 126 q 707 299 707 231 l 707 774 z "},"Ú":{"ha":926,"x_min":35,"x_max":893,"o":"m 707 774 q 679 781 700 775 l 638 790 q 608 796 617 794 l 608 867 l 893 867 l 893 796 q 865 789 886 794 q 826 779 844 783 q 800 774 807 775 l 800 290 q 763 126 800 196 q 654 20 725 57 q 485 -17 583 -17 q 231 64 319 -17 q 142 308 142 144 l 142 774 q 110 780 133 775 q 65 790 88 785 q 35 796 43 794 l 35 867 l 390 867 l 390 796 q 358 790 382 794 q 313 780 335 785 q 282 774 290 775 l 282 306 q 310 178 282 232 q 387 97 338 125 q 500 69 436 69 q 610 98 563 69 q 682 178 657 126 q 707 299 707 231 l 707 774 m 450 974 l 567 1182 l 733 1182 l 733 1171 l 500 956 l 450 974 z "},"Ŭ":{"ha":926,"x_min":35,"x_max":893,"o":"m 707 774 q 679 781 700 775 l 638 790 q 608 796 617 794 l 608 867 l 893 867 l 893 796 q 865 789 886 794 q 826 779 844 783 q 800 774 807 775 l 800 290 q 763 126 800 196 q 654 20 725 57 q 485 -17 583 -17 q 231 64 319 -17 q 142 308 142 144 l 142 774 q 110 780 133 775 q 65 790 88 785 q 35 796 43 794 l 35 867 l 390 867 l 390 796 q 358 790 382 794 q 313 780 335 785 q 282 774 290 775 l 282 306 q 310 178 282 232 q 387 97 338 125 q 500 69 436 69 q 610 98 563 69 q 682 178 657 126 q 707 299 707 231 l 707 774 m 661 1169 q 614 1014 657 1072 q 490 956 571 956 q 367 1014 410 956 q 319 1169 325 1072 l 378 1176 q 419 1087 393 1115 q 490 1058 446 1058 q 562 1087 535 1058 q 601 1176 589 1115 l 661 1169 z "},"Ǔ":{"ha":926,"x_min":35,"x_max":893,"o":"m 707 774 q 679 781 700 775 l 638 790 q 608 796 617 794 l 608 867 l 893 867 l 893 796 q 865 789 886 794 q 826 779 844 783 q 800 774 807 775 l 800 290 q 763 126 800 196 q 654 20 725 57 q 485 -17 583 -17 q 231 64 319 -17 q 142 308 142 144 l 142 774 q 110 780 133 775 q 65 790 88 785 q 35 796 43 794 l 35 867 l 390 867 l 390 796 q 358 790 382 794 q 313 780 335 785 q 282 774 290 775 l 282 306 q 310 178 282 232 q 387 97 338 125 q 500 69 436 69 q 610 98 563 69 q 682 178 657 126 q 707 299 707 231 l 707 774 m 608 1194 l 674 1165 l 521 956 l 464 956 l 318 1165 l 376 1194 l 493 1078 l 608 1194 z "},"Û":{"ha":926,"x_min":35,"x_max":893,"o":"m 707 774 q 679 781 700 775 l 638 790 q 608 796 617 794 l 608 867 l 893 867 l 893 796 q 865 789 886 794 q 826 779 844 783 q 800 774 807 775 l 800 290 q 763 126 800 196 q 654 20 725 57 q 485 -17 583 -17 q 231 64 319 -17 q 142 308 142 144 l 142 774 q 110 780 133 775 q 65 790 88 785 q 35 796 43 794 l 35 867 l 390 867 l 390 796 q 358 790 382 794 q 313 780 335 785 q 282 774 290 775 l 282 306 q 310 178 282 232 q 387 97 338 125 q 500 69 436 69 q 610 98 563 69 q 682 178 657 126 q 707 299 707 231 l 707 774 m 607 947 l 493 1064 l 376 947 l 317 975 l 464 1186 l 519 1186 l 672 975 l 607 947 z "},"Ü":{"ha":926,"x_min":35,"x_max":893,"o":"m 707 774 q 679 781 700 775 l 638 790 q 608 796 617 794 l 608 867 l 893 867 l 893 796 q 865 789 886 794 q 826 779 844 783 q 800 774 807 775 l 800 290 q 763 126 800 196 q 654 20 725 57 q 485 -17 583 -17 q 231 64 319 -17 q 142 308 142 144 l 142 774 q 110 780 133 775 q 65 790 88 785 q 35 796 43 794 l 35 867 l 390 867 l 390 796 q 358 790 382 794 q 313 780 335 785 q 282 774 290 775 l 282 306 q 310 178 282 232 q 387 97 338 125 q 500 69 436 69 q 610 98 563 69 q 682 178 657 126 q 707 299 707 231 l 707 774 m 513 1046 q 558 1098 513 1053 q 607 1143 603 1143 q 665 1098 617 1143 q 714 1046 714 1053 q 665 995 714 1040 q 607 950 615 950 q 558 996 603 950 q 513 1046 513 1042 m 279 1046 q 327 1098 279 1053 q 378 1143 375 1143 q 435 1098 388 1143 q 482 1046 482 1053 q 435 995 482 1040 q 378 950 388 950 q 328 996 375 950 q 279 1046 281 1042 z "},"Ù":{"ha":926,"x_min":35,"x_max":893,"o":"m 707 774 q 679 781 700 775 l 638 790 q 608 796 617 794 l 608 867 l 893 867 l 893 796 q 865 789 886 794 q 826 779 844 783 q 800 774 807 775 l 800 290 q 763 126 800 196 q 654 20 725 57 q 485 -17 583 -17 q 231 64 319 -17 q 142 308 142 144 l 142 774 q 110 780 133 775 q 65 790 88 785 q 35 796 43 794 l 35 867 l 390 867 l 390 796 q 358 790 382 794 q 313 780 335 785 q 282 774 290 775 l 282 306 q 310 178 282 232 q 387 97 338 125 q 500 69 436 69 q 610 98 563 69 q 682 178 657 126 q 707 299 707 231 l 707 774 m 542 974 l 493 956 l 260 1171 l 260 1182 l 426 1182 l 542 974 z "},"Ű":{"ha":926,"x_min":35,"x_max":893,"o":"m 707 774 q 679 781 700 775 l 638 790 q 608 796 617 794 l 608 867 l 893 867 l 893 796 q 865 789 886 794 q 826 779 844 783 q 800 774 807 775 l 800 290 q 763 126 800 196 q 654 20 725 57 q 485 -17 583 -17 q 231 64 319 -17 q 142 308 142 144 l 142 774 q 110 780 133 775 q 65 790 88 785 q 35 796 43 794 l 35 867 l 390 867 l 390 796 q 358 790 382 794 q 313 780 335 785 q 282 774 290 775 l 282 306 q 310 178 282 232 q 387 97 338 125 q 500 69 436 69 q 610 98 563 69 q 682 178 657 126 q 707 299 707 231 l 707 774 m 558 974 l 674 1182 l 832 1182 l 832 1171 l 607 956 l 558 974 m 324 974 l 414 1182 l 567 1182 l 567 1171 l 372 956 l 324 974 z "},"Ū":{"ha":926,"x_min":35,"x_max":893,"o":"m 707 774 q 679 781 700 775 l 638 790 q 608 796 617 794 l 608 867 l 893 867 l 893 796 q 865 789 886 794 q 826 779 844 783 q 800 774 807 775 l 800 290 q 763 126 800 196 q 654 20 725 57 q 485 -17 583 -17 q 231 64 319 -17 q 142 308 142 144 l 142 774 q 110 780 133 775 q 65 790 88 785 q 35 796 43 794 l 35 867 l 390 867 l 390 796 q 358 790 382 794 q 313 780 335 785 q 282 774 290 775 l 282 306 q 310 178 282 232 q 387 97 338 125 q 500 69 436 69 q 610 98 563 69 q 682 178 657 126 q 707 299 707 231 l 707 774 m 315 1075 l 678 1075 l 678 990 l 315 990 l 315 1075 z "},"Ų":{"ha":926,"x_min":35,"x_max":893,"o":"m 707 774 q 679 781 700 775 l 638 790 q 608 796 617 794 l 608 867 l 893 867 l 893 796 q 865 789 886 794 q 826 779 844 783 q 800 774 807 775 l 800 290 q 763 126 800 196 q 654 21 725 57 q 590 -4 625 6 q 589 -4 590 -4 q 585 -8 588 -7 q 518 -85 543 -49 q 493 -160 493 -122 q 511 -201 493 -187 q 558 -215 529 -215 q 586 -212 572 -215 q 611 -204 600 -208 l 611 -260 q 564 -281 589 -274 q 510 -289 539 -289 q 415 -261 450 -289 q 381 -183 381 -233 q 433 -69 381 -129 q 492 -17 461 -40 q 485 -17 488 -17 q 231 64 319 -17 q 142 308 142 144 l 142 774 q 110 780 133 775 q 65 790 88 785 q 35 796 43 794 l 35 867 l 390 867 l 390 796 q 358 790 382 794 q 313 780 335 785 q 282 774 290 775 l 282 306 q 310 178 282 232 q 387 97 338 125 q 500 69 436 69 q 610 98 563 69 q 682 178 657 126 q 707 299 707 231 l 707 774 z "},"Ů":{"ha":926,"x_min":35,"x_max":893,"o":"m 707 774 q 679 781 700 775 l 638 790 q 608 796 617 794 l 608 867 l 893 867 l 893 796 q 865 789 886 794 q 826 779 844 783 q 800 774 807 775 l 800 290 q 763 126 800 196 q 654 20 725 57 q 485 -17 583 -17 q 231 64 319 -17 q 142 308 142 144 l 142 774 q 110 780 133 775 q 65 790 88 785 q 35 796 43 794 l 35 867 l 390 867 l 390 796 q 358 790 382 794 q 313 780 335 785 q 282 774 290 775 l 282 306 q 310 178 282 232 q 387 97 338 125 q 500 69 436 69 q 610 98 563 69 q 682 178 657 126 q 707 299 707 231 l 707 774 m 496 919 q 394 957 433 919 q 354 1056 354 994 q 394 1156 354 1118 q 495 1193 433 1193 q 597 1156 557 1193 q 638 1056 638 1118 q 597 957 638 994 q 496 919 557 919 m 496 988 q 542 1006 524 988 q 561 1056 561 1025 q 542 1106 561 1088 q 495 1125 524 1125 q 449 1106 467 1125 q 431 1056 431 1088 q 449 1006 431 1025 q 496 988 467 988 z "},"Ũ":{"ha":926,"x_min":35,"x_max":893,"o":"m 707 774 q 679 781 700 775 l 638 790 q 608 796 617 794 l 608 867 l 893 867 l 893 796 q 865 789 886 794 q 826 779 844 783 q 800 774 807 775 l 800 290 q 763 126 800 196 q 654 20 725 57 q 485 -17 583 -17 q 231 64 319 -17 q 142 308 142 144 l 142 774 q 110 780 133 775 q 65 790 88 785 q 35 796 43 794 l 35 867 l 390 867 l 390 796 q 358 790 382 794 q 313 780 335 785 q 282 774 290 775 l 282 306 q 310 178 282 232 q 387 97 338 125 q 500 69 436 69 q 610 98 563 69 q 682 178 657 126 q 707 299 707 231 l 707 774 m 410 1174 q 485 1153 458 1174 q 539 1093 513 1132 q 564 1062 554 1072 q 589 1051 574 1051 q 624 1079 611 1051 q 642 1164 636 1107 l 703 1158 q 679 1010 706 1064 q 581 956 653 956 q 503 977 531 956 q 450 1038 476 999 q 424 1069 435 1058 q 400 1079 414 1079 q 367 1053 379 1079 q 349 967 356 1026 l 285 972 q 310 1120 283 1067 q 410 1174 336 1174 z "},"V":{"ha":875,"x_min":15,"x_max":856,"o":"m 817 867 l 856 867 l 856 796 q 810 785 842 793 q 764 774 778 778 l 475 -11 l 417 -11 q 391 61 404 26 q 365 129 378 96 q 344 184 356 156 q 325 233 333 213 l 89 774 q 52 785 78 778 q 15 796 26 793 l 15 867 l 361 867 l 361 796 q 333 790 354 794 q 293 780 313 785 q 267 774 274 775 l 408 406 q 441 326 425 363 q 471 261 457 290 q 479 243 475 251 l 661 774 q 635 780 654 775 q 598 790 615 785 q 574 796 581 794 l 574 867 l 817 867 z "},"W":{"ha":1278,"x_min":19,"x_max":1253,"o":"m 632 560 l 447 -11 l 385 -11 q 358 70 372 29 q 329 150 343 111 q 311 198 319 175 q 296 242 303 221 l 97 774 q 58 785 85 778 q 19 796 31 793 l 19 867 l 336 867 l 336 796 q 313 790 331 794 q 281 780 296 785 q 258 774 265 775 l 383 411 q 389 397 386 404 q 394 382 392 389 q 433 282 415 324 q 449 246 442 263 l 586 682 l 551 775 q 547 787 550 779 q 542 797 543 794 l 542 867 l 785 867 l 785 796 q 763 790 779 794 q 731 780 746 785 q 710 774 715 775 l 842 408 q 851 381 847 394 q 861 358 856 368 q 890 279 875 317 q 901 251 896 264 l 1056 774 q 1034 781 1050 775 q 1003 790 1018 786 q 982 796 988 794 l 982 867 l 1253 867 l 1253 796 q 1206 785 1238 793 q 1160 774 1174 778 l 900 -11 l 840 -11 q 797 116 818 53 q 756 236 775 179 l 632 560 z "},"Ẃ":{"ha":1278,"x_min":19,"x_max":1253,"o":"m 632 560 l 447 -11 l 385 -11 q 358 70 372 29 q 329 150 343 111 q 311 198 319 175 q 296 242 303 221 l 97 774 q 58 785 85 778 q 19 796 31 793 l 19 867 l 336 867 l 336 796 q 313 790 331 794 q 281 780 296 785 q 258 774 265 775 l 383 411 q 389 397 386 404 q 394 382 392 389 q 433 282 415 324 q 449 246 442 263 l 586 682 l 551 775 q 547 787 550 779 q 542 797 543 794 l 542 867 l 785 867 l 785 796 q 763 790 779 794 q 731 780 746 785 q 710 774 715 775 l 842 408 q 851 381 847 394 q 861 358 856 368 q 890 279 875 317 q 901 251 896 264 l 1056 774 q 1034 781 1050 775 q 1003 790 1018 786 q 982 796 988 794 l 982 867 l 1253 867 l 1253 796 q 1206 785 1238 793 q 1160 774 1174 778 l 900 -11 l 840 -11 q 797 116 818 53 q 756 236 775 179 l 632 560 m 590 974 l 707 1182 l 874 1182 l 874 1171 l 640 956 l 590 974 z "},"Ŵ":{"ha":1278,"x_min":19,"x_max":1253,"o":"m 632 560 l 447 -11 l 385 -11 q 358 70 372 29 q 329 150 343 111 q 311 198 319 175 q 296 242 303 221 l 97 774 q 58 785 85 778 q 19 796 31 793 l 19 867 l 336 867 l 336 796 q 313 790 331 794 q 281 780 296 785 q 258 774 265 775 l 383 411 q 389 397 386 404 q 394 382 392 389 q 433 282 415 324 q 449 246 442 263 l 586 682 l 551 775 q 547 787 550 779 q 542 797 543 794 l 542 867 l 785 867 l 785 796 q 763 790 779 794 q 731 780 746 785 q 710 774 715 775 l 842 408 q 851 381 847 394 q 861 358 856 368 q 890 279 875 317 q 901 251 896 264 l 1056 774 q 1034 781 1050 775 q 1003 790 1018 786 q 982 796 988 794 l 982 867 l 1253 867 l 1253 796 q 1206 785 1238 793 q 1160 774 1174 778 l 900 -11 l 840 -11 q 797 116 818 53 q 756 236 775 179 l 632 560 m 747 947 l 633 1064 l 517 947 l 457 975 l 604 1186 l 660 1186 l 813 975 l 747 947 z "},"Ẅ":{"ha":1278,"x_min":19,"x_max":1253,"o":"m 632 560 l 447 -11 l 385 -11 q 358 70 372 29 q 329 150 343 111 q 311 198 319 175 q 296 242 303 221 l 97 774 q 58 785 85 778 q 19 796 31 793 l 19 867 l 336 867 l 336 796 q 313 790 331 794 q 281 780 296 785 q 258 774 265 775 l 383 411 q 389 397 386 404 q 394 382 392 389 q 433 282 415 324 q 449 246 442 263 l 586 682 l 551 775 q 547 787 550 779 q 542 797 543 794 l 542 867 l 785 867 l 785 796 q 763 790 779 794 q 731 780 746 785 q 710 774 715 775 l 842 408 q 851 381 847 394 q 861 358 856 368 q 890 279 875 317 q 901 251 896 264 l 1056 774 q 1034 781 1050 775 q 1003 790 1018 786 q 982 796 988 794 l 982 867 l 1253 867 l 1253 796 q 1206 785 1238 793 q 1160 774 1174 778 l 900 -11 l 840 -11 q 797 116 818 53 q 756 236 775 179 l 632 560 m 653 1046 q 697 1098 651 1053 q 747 1143 743 1143 q 806 1098 757 1143 q 854 1046 854 1053 q 805 995 854 1040 q 747 950 756 950 q 698 996 743 950 q 653 1046 653 1042 m 419 1046 q 467 1098 419 1053 q 518 1143 514 1143 q 574 1098 528 1143 q 621 1046 621 1053 q 574 995 621 1040 q 518 950 528 950 q 467 996 514 950 q 419 1046 421 1042 z "},"Ẁ":{"ha":1278,"x_min":19,"x_max":1253,"o":"m 632 560 l 447 -11 l 385 -11 q 358 70 372 29 q 329 150 343 111 q 311 198 319 175 q 296 242 303 221 l 97 774 q 58 785 85 778 q 19 796 31 793 l 19 867 l 336 867 l 336 796 q 313 790 331 794 q 281 780 296 785 q 258 774 265 775 l 383 411 q 389 397 386 404 q 394 382 392 389 q 433 282 415 324 q 449 246 442 263 l 586 682 l 551 775 q 547 787 550 779 q 542 797 543 794 l 542 867 l 785 867 l 785 796 q 763 790 779 794 q 731 780 746 785 q 710 774 715 775 l 842 408 q 851 381 847 394 q 861 358 856 368 q 890 279 875 317 q 901 251 896 264 l 1056 774 q 1034 781 1050 775 q 1003 790 1018 786 q 982 796 988 794 l 982 867 l 1253 867 l 1253 796 q 1206 785 1238 793 q 1160 774 1174 778 l 900 -11 l 840 -11 q 797 116 818 53 q 756 236 775 179 l 632 560 m 682 974 l 633 956 l 400 1171 l 400 1182 l 567 1182 l 682 974 z "},"X":{"ha":811,"x_min":17,"x_max":794,"o":"m 53 0 l 17 0 l 17 71 q 20 71 18 71 q 25 72 22 71 q 65 82 40 76 q 115 93 89 88 l 319 425 l 89 774 q 56 785 79 778 q 22 796 33 793 l 22 867 l 332 867 l 332 796 q 315 790 328 794 q 289 780 301 785 q 272 774 276 775 l 442 518 l 582 774 q 566 780 578 775 q 542 790 554 785 q 526 796 531 794 l 526 867 l 794 867 l 794 796 q 791 796 793 796 q 786 794 789 796 q 747 785 771 790 q 696 774 722 779 l 492 442 l 722 93 q 755 83 732 90 q 789 71 778 75 l 789 0 l 479 0 l 479 71 q 497 77 483 72 q 522 87 510 82 q 539 93 535 92 l 369 349 l 228 93 q 244 87 232 92 q 269 77 257 82 q 285 71 281 72 l 285 0 l 53 0 z "},"Y":{"ha":801,"x_min":24,"x_max":774,"o":"m 481 93 q 512 86 489 92 q 558 76 535 81 q 590 71 582 72 l 590 0 l 229 0 l 229 71 q 261 78 238 72 q 308 88 285 83 q 339 93 331 92 l 339 311 q 304 388 322 350 q 294 406 299 397 q 285 425 290 415 l 88 774 q 56 785 78 778 q 24 796 33 793 l 24 867 l 329 867 l 329 796 q 309 790 324 794 q 281 780 294 785 q 263 774 268 775 l 371 560 q 374 551 372 556 q 378 543 376 547 q 421 461 400 499 q 433 439 428 450 l 585 774 q 565 780 579 775 q 538 790 551 785 q 519 796 525 794 l 519 867 l 774 867 l 774 796 l 772 796 q 738 787 761 793 q 689 774 715 781 l 481 349 l 481 93 z "},"Ý":{"ha":801,"x_min":24,"x_max":774,"o":"m 481 93 q 512 86 489 92 q 558 76 535 81 q 590 71 582 72 l 590 0 l 229 0 l 229 71 q 261 78 238 72 q 308 88 285 83 q 339 93 331 92 l 339 311 q 304 388 322 350 q 294 406 299 397 q 285 425 290 415 l 88 774 q 56 785 78 778 q 24 796 33 793 l 24 867 l 329 867 l 329 796 q 309 790 324 794 q 281 780 294 785 q 263 774 268 775 l 371 560 q 374 551 372 556 q 378 543 376 547 q 421 461 400 499 q 433 439 428 450 l 585 774 q 565 780 579 775 q 538 790 551 785 q 519 796 525 794 l 519 867 l 774 867 l 774 796 l 772 796 q 738 787 761 793 q 689 774 715 781 l 481 349 l 481 93 m 378 974 l 493 1182 l 660 1182 l 660 1171 l 426 956 l 378 974 z "},"Ŷ":{"ha":801,"x_min":24,"x_max":774,"o":"m 481 93 q 512 86 489 92 q 558 76 535 81 q 590 71 582 72 l 590 0 l 229 0 l 229 71 q 261 78 238 72 q 308 88 285 83 q 339 93 331 92 l 339 311 q 304 388 322 350 q 294 406 299 397 q 285 425 290 415 l 88 774 q 56 785 78 778 q 24 796 33 793 l 24 867 l 329 867 l 329 796 q 309 790 324 794 q 281 780 294 785 q 263 774 268 775 l 371 560 q 374 551 372 556 q 378 543 376 547 q 421 461 400 499 q 433 439 428 450 l 585 774 q 565 780 579 775 q 538 790 551 785 q 519 796 525 794 l 519 867 l 774 867 l 774 796 l 772 796 q 738 787 761 793 q 689 774 715 781 l 481 349 l 481 93 m 535 947 l 421 1064 l 304 947 l 244 975 l 390 1186 l 447 1186 l 600 975 l 535 947 z "},"Ÿ":{"ha":801,"x_min":24,"x_max":774,"o":"m 481 93 q 512 86 489 92 q 558 76 535 81 q 590 71 582 72 l 590 0 l 229 0 l 229 71 q 261 78 238 72 q 308 88 285 83 q 339 93 331 92 l 339 311 q 304 388 322 350 q 294 406 299 397 q 285 425 290 415 l 88 774 q 56 785 78 778 q 24 796 33 793 l 24 867 l 329 867 l 329 796 q 309 790 324 794 q 281 780 294 785 q 263 774 268 775 l 371 560 q 374 551 372 556 q 378 543 376 547 q 421 461 400 499 q 433 439 428 450 l 585 774 q 565 780 579 775 q 538 790 551 785 q 519 796 525 794 l 519 867 l 774 867 l 774 796 l 772 796 q 738 787 761 793 q 689 774 715 781 l 481 349 l 481 93 m 439 1046 q 485 1098 439 1053 q 533 1143 531 1143 q 592 1098 543 1143 q 642 1046 642 1053 q 592 995 642 1040 q 533 950 543 950 q 485 996 531 950 q 439 1046 440 1042 m 207 1046 q 253 1098 206 1053 q 304 1143 301 1143 q 362 1098 315 1143 q 408 1046 408 1053 q 361 995 408 1040 q 304 950 314 950 q 255 996 301 950 q 207 1046 208 1042 z "},"Ỳ":{"ha":801,"x_min":24,"x_max":774,"o":"m 481 93 q 512 86 489 92 q 558 76 535 81 q 590 71 582 72 l 590 0 l 229 0 l 229 71 q 261 78 238 72 q 308 88 285 83 q 339 93 331 92 l 339 311 q 304 388 322 350 q 294 406 299 397 q 285 425 290 415 l 88 774 q 56 785 78 778 q 24 796 33 793 l 24 867 l 329 867 l 329 796 q 309 790 324 794 q 281 780 294 785 q 263 774 268 775 l 371 560 q 374 551 372 556 q 378 543 376 547 q 421 461 400 499 q 433 439 428 450 l 585 774 q 565 780 579 775 q 538 790 551 785 q 519 796 525 794 l 519 867 l 774 867 l 774 796 l 772 796 q 738 787 761 793 q 689 774 715 781 l 481 349 l 481 93 m 468 974 l 419 956 l 186 1171 l 186 1182 l 354 1182 l 468 974 z "},"Z":{"ha":647,"x_min":36,"x_max":613,"o":"m 579 867 l 221 79 l 464 79 q 476 106 469 92 q 488 135 482 119 q 510 194 499 163 q 536 257 522 226 l 613 257 l 582 0 l 36 0 l 393 788 l 168 788 q 156 750 161 769 q 143 711 150 731 q 129 665 136 688 q 114 619 122 642 l 42 619 l 42 867 l 579 867 z "},"Ź":{"ha":647,"x_min":36,"x_max":613,"o":"m 579 867 l 221 79 l 464 79 q 476 106 469 92 q 488 135 482 119 q 510 194 499 163 q 536 257 522 226 l 613 257 l 582 0 l 36 0 l 393 788 l 168 788 q 156 750 161 769 q 143 711 150 731 q 129 665 136 688 q 114 619 122 642 l 42 619 l 42 867 l 579 867 m 274 974 l 390 1182 l 557 1182 l 557 1171 l 324 956 l 274 974 z "},"Ž":{"ha":647,"x_min":36,"x_max":613,"o":"m 579 867 l 221 79 l 464 79 q 476 106 469 92 q 488 135 482 119 q 510 194 499 163 q 536 257 522 226 l 613 257 l 582 0 l 36 0 l 393 788 l 168 788 q 156 750 161 769 q 143 711 150 731 q 129 665 136 688 q 114 619 122 642 l 42 619 l 42 867 l 579 867 m 432 1194 l 497 1165 l 344 956 l 288 956 l 142 1165 l 200 1194 l 317 1078 l 432 1194 z "},"Ż":{"ha":647,"x_min":36,"x_max":613,"o":"m 579 867 l 221 79 l 464 79 q 476 106 469 92 q 488 135 482 119 q 510 194 499 163 q 536 257 522 226 l 613 257 l 582 0 l 36 0 l 393 788 l 168 788 q 156 750 161 769 q 143 711 150 731 q 129 665 136 688 q 114 619 122 642 l 42 619 l 42 867 l 579 867 m 203 1049 q 256 1102 203 1054 q 315 1150 308 1150 q 349 1127 321 1150 q 405 1078 378 1104 q 432 1049 432 1053 q 405 1015 432 1042 q 349 965 378 989 q 315 942 321 942 q 283 966 311 942 q 228 1016 254 990 q 203 1049 203 1042 z "},"a":{"ha":636,"x_min":44,"x_max":622,"o":"m 392 415 q 360 516 392 483 q 257 549 328 549 q 165 536 213 549 q 90 507 118 524 l 61 569 q 161 635 101 610 q 303 661 221 661 q 480 605 428 661 q 532 432 532 549 l 532 79 q 575 72 551 75 q 622 67 599 69 l 622 4 q 574 -2 600 1 q 524 -7 549 -6 q 495 -10 508 -10 q 471 -11 482 -11 q 412 8 432 -11 q 389 65 392 28 q 392 122 388 90 q 346 40 378 75 q 211 -17 297 -17 q 91 27 138 -17 q 44 156 44 71 q 90 281 44 231 q 219 357 136 332 q 392 381 294 378 l 392 415 m 392 311 q 243 278 292 307 q 189 183 189 246 q 212 115 189 139 q 274 92 235 92 q 330 109 303 92 q 374 160 357 126 q 392 239 392 193 l 392 311 z "},"á":{"ha":636,"x_min":44,"x_max":622,"o":"m 392 415 q 360 516 392 483 q 257 549 328 549 q 165 536 213 549 q 90 507 118 524 l 61 569 q 161 635 101 610 q 303 661 221 661 q 480 605 428 661 q 532 432 532 549 l 532 79 q 575 72 551 75 q 622 67 599 69 l 622 4 q 574 -2 600 1 q 524 -7 549 -6 q 495 -10 508 -10 q 471 -11 482 -11 q 412 8 432 -11 q 389 65 392 28 q 392 122 388 90 q 346 40 378 75 q 211 -17 297 -17 q 91 27 138 -17 q 44 156 44 71 q 90 281 44 231 q 219 357 136 332 q 392 381 294 378 l 392 415 m 392 311 q 243 278 292 307 q 189 183 189 246 q 212 115 189 139 q 274 92 235 92 q 330 109 303 92 q 374 160 357 126 q 392 239 392 193 l 392 311 m 274 783 l 379 992 l 531 992 l 531 981 l 318 765 l 274 783 z "},"ă":{"ha":636,"x_min":44,"x_max":622,"o":"m 392 415 q 360 516 392 483 q 257 549 328 549 q 165 536 213 549 q 90 507 118 524 l 61 569 q 161 635 101 610 q 303 661 221 661 q 480 605 428 661 q 532 432 532 549 l 532 79 q 575 72 551 75 q 622 67 599 69 l 622 4 q 574 -2 600 1 q 524 -7 549 -6 q 495 -10 508 -10 q 471 -11 482 -11 q 412 8 432 -11 q 389 65 392 28 q 392 122 388 90 q 346 40 378 75 q 211 -17 297 -17 q 91 27 138 -17 q 44 156 44 71 q 90 281 44 231 q 219 357 136 332 q 392 381 294 378 l 392 415 m 475 979 q 432 824 471 882 q 319 765 393 765 q 207 824 246 765 q 164 979 168 882 l 218 986 q 255 897 231 925 q 319 868 279 868 q 384 897 360 868 q 421 986 408 925 l 475 979 m 392 311 q 243 278 292 307 q 189 183 189 246 q 212 115 189 139 q 274 92 235 92 q 330 109 303 92 q 374 160 357 126 q 392 239 392 193 l 392 311 z "},"ǎ":{"ha":636,"x_min":44,"x_max":622,"o":"m 392 415 q 360 516 392 483 q 257 549 328 549 q 165 536 213 549 q 90 507 118 524 l 61 569 q 161 635 101 610 q 303 661 221 661 q 480 605 428 661 q 532 432 532 549 l 532 79 q 575 72 551 75 q 622 67 599 69 l 622 4 q 574 -2 600 1 q 524 -7 549 -6 q 495 -10 508 -10 q 471 -11 482 -11 q 412 8 432 -11 q 389 65 392 28 q 392 122 388 90 q 346 40 378 75 q 211 -17 297 -17 q 91 27 138 -17 q 44 156 44 71 q 90 281 44 231 q 219 357 136 332 q 392 381 294 378 l 392 415 m 392 311 q 243 278 292 307 q 189 183 189 246 q 212 115 189 139 q 274 92 235 92 q 330 109 303 92 q 374 160 357 126 q 392 239 392 193 l 392 311 m 419 1004 l 479 975 l 340 765 l 289 765 l 157 975 l 210 1004 l 317 888 l 419 1004 z "},"â":{"ha":636,"x_min":44,"x_max":622,"o":"m 392 415 q 360 516 392 483 q 257 549 328 549 q 165 536 213 549 q 90 507 118 524 l 61 569 q 161 635 101 610 q 303 661 221 661 q 480 605 428 661 q 532 432 532 549 l 532 79 q 575 72 551 75 q 622 67 599 69 l 622 4 q 574 -2 600 1 q 524 -7 549 -6 q 495 -10 508 -10 q 471 -11 482 -11 q 412 8 432 -11 q 389 65 392 28 q 392 122 388 90 q 346 40 378 75 q 211 -17 297 -17 q 91 27 138 -17 q 44 156 44 71 q 90 281 44 231 q 219 357 136 332 q 392 381 294 378 l 392 415 m 392 311 q 243 278 292 307 q 189 183 189 246 q 212 115 189 139 q 274 92 235 92 q 330 109 303 92 q 374 160 357 126 q 392 239 392 193 l 392 311 m 419 757 l 317 874 l 210 757 l 157 785 l 289 996 l 340 996 l 479 785 l 419 757 z "},"ä":{"ha":636,"x_min":44,"x_max":622,"o":"m 392 415 q 360 516 392 483 q 257 549 328 549 q 165 536 213 549 q 90 507 118 524 l 61 569 q 161 635 101 610 q 303 661 221 661 q 480 605 428 661 q 532 432 532 549 l 532 79 q 575 72 551 75 q 622 67 599 69 l 622 4 q 574 -2 600 1 q 524 -7 549 -6 q 495 -10 508 -10 q 471 -11 482 -11 q 412 8 432 -11 q 389 65 392 28 q 392 122 388 90 q 346 40 378 75 q 211 -17 297 -17 q 91 27 138 -17 q 44 156 44 71 q 90 281 44 231 q 219 357 136 332 q 392 381 294 378 l 392 415 m 392 311 q 243 278 292 307 q 189 183 189 246 q 212 115 189 139 q 274 92 235 92 q 330 109 303 92 q 374 160 357 126 q 392 239 392 193 l 392 311 m 335 856 q 376 908 335 863 q 421 953 418 953 q 474 908 429 953 q 518 856 518 863 q 474 805 518 850 q 421 760 429 760 q 376 805 418 760 q 335 856 335 850 m 124 856 q 166 908 122 863 q 213 953 210 953 q 264 908 221 953 q 307 856 307 863 q 264 805 307 850 q 213 760 221 760 q 167 806 210 760 q 124 856 124 851 z "},"à":{"ha":636,"x_min":44,"x_max":622,"o":"m 392 415 q 360 516 392 483 q 257 549 328 549 q 165 536 213 549 q 90 507 118 524 l 61 569 q 161 635 101 610 q 303 661 221 661 q 480 605 428 661 q 532 432 532 549 l 532 79 q 575 72 551 75 q 622 67 599 69 l 622 4 q 574 -2 600 1 q 524 -7 549 -6 q 495 -10 508 -10 q 471 -11 482 -11 q 412 8 432 -11 q 389 65 392 28 q 392 122 388 90 q 346 40 378 75 q 211 -17 297 -17 q 91 27 138 -17 q 44 156 44 71 q 90 281 44 231 q 219 357 136 332 q 392 381 294 378 l 392 415 m 392 311 q 243 278 292 307 q 189 183 189 246 q 212 115 189 139 q 274 92 235 92 q 330 109 303 92 q 374 160 357 126 q 392 239 392 193 l 392 311 m 365 783 l 321 765 l 108 981 l 108 992 l 260 992 l 365 783 z "},"ā":{"ha":636,"x_min":44,"x_max":622,"o":"m 392 415 q 360 516 392 483 q 257 549 328 549 q 165 536 213 549 q 90 507 118 524 l 61 569 q 161 635 101 610 q 303 661 221 661 q 480 605 428 661 q 532 432 532 549 l 532 79 q 575 72 551 75 q 622 67 599 69 l 622 4 q 574 -2 600 1 q 524 -7 549 -6 q 495 -10 508 -10 q 471 -11 482 -11 q 412 8 432 -11 q 389 65 392 28 q 392 122 388 90 q 346 40 378 75 q 211 -17 297 -17 q 91 27 138 -17 q 44 156 44 71 q 90 281 44 231 q 219 357 136 332 q 392 381 294 378 l 392 415 m 392 311 q 243 278 292 307 q 189 183 189 246 q 212 115 189 139 q 274 92 235 92 q 330 109 303 92 q 374 160 357 126 q 392 239 392 193 l 392 311 m 154 885 l 485 885 l 485 800 l 154 800 l 154 885 z "},"ą":{"ha":636,"x_min":44,"x_max":640,"o":"m 392 415 q 360 516 392 483 q 257 549 328 549 q 165 536 213 549 q 90 507 118 524 l 61 569 q 161 635 101 610 q 303 661 221 661 q 480 605 428 661 q 532 432 532 549 l 532 79 q 575 72 551 75 q 622 67 599 69 l 622 4 l 606 -12 q 544 -87 567 -51 q 522 -160 522 -124 q 540 -201 522 -187 q 588 -215 558 -215 q 615 -212 601 -215 q 640 -204 629 -208 l 640 -260 q 593 -281 618 -274 q 538 -289 568 -289 q 444 -261 479 -289 q 408 -183 408 -233 q 463 -69 408 -129 q 531 -7 494 -33 q 524 -7 526 -7 q 495 -10 508 -10 q 471 -11 482 -11 q 412 8 432 -11 q 389 65 392 28 q 392 122 388 90 q 346 40 378 75 q 211 -17 297 -17 q 91 27 138 -17 q 44 156 44 71 q 90 281 44 231 q 219 357 136 332 q 392 381 294 378 l 392 415 m 392 311 q 243 278 292 307 q 189 183 189 246 q 212 115 189 139 q 274 92 235 92 q 330 109 303 92 q 374 160 357 126 q 392 239 392 193 l 392 311 z "},"å":{"ha":636,"x_min":44,"x_max":622,"o":"m 392 415 q 360 516 392 483 q 257 549 328 549 q 165 536 213 549 q 90 507 118 524 l 61 569 q 161 635 101 610 q 303 661 221 661 q 480 605 428 661 q 532 432 532 549 l 532 79 q 575 72 551 75 q 622 67 599 69 l 622 4 q 574 -2 600 1 q 524 -7 549 -6 q 495 -10 508 -10 q 471 -11 482 -11 q 412 8 432 -11 q 389 65 392 28 q 392 122 388 90 q 346 40 378 75 q 211 -17 297 -17 q 91 27 138 -17 q 44 156 44 71 q 90 281 44 231 q 219 357 136 332 q 392 381 294 378 l 392 415 m 319 744 q 217 782 257 744 q 178 882 178 819 q 217 982 178 944 q 319 1019 257 1019 q 422 982 382 1019 q 461 882 461 944 q 422 782 461 819 q 319 744 382 744 m 392 311 q 243 278 292 307 q 189 183 189 246 q 212 115 189 139 q 274 92 235 92 q 330 109 303 92 q 374 160 357 126 q 392 239 392 193 l 392 311 m 319 814 q 367 833 349 814 q 385 882 385 851 q 367 931 385 913 q 319 950 349 950 q 272 931 290 950 q 254 882 254 913 q 272 833 254 851 q 319 814 290 814 z "},"ǻ":{"ha":636,"x_min":44,"x_max":622,"o":"m 392 415 q 360 516 392 483 q 257 549 328 549 q 165 536 213 549 q 90 507 118 524 l 61 569 q 161 635 101 610 q 303 661 221 661 q 480 605 428 661 q 532 432 532 549 l 532 79 q 575 72 551 75 q 622 67 599 69 l 622 4 q 574 -2 600 1 q 524 -7 549 -6 q 495 -10 508 -10 q 471 -11 482 -11 q 412 8 432 -11 q 389 65 392 28 q 392 122 388 90 q 346 40 378 75 q 211 -17 297 -17 q 91 27 138 -17 q 44 156 44 71 q 90 281 44 231 q 219 357 136 332 q 392 381 294 378 l 392 415 m 319 744 q 217 782 257 744 q 178 882 178 819 q 218 982 178 944 q 296 1018 250 1011 l 379 1181 l 531 1181 l 531 1169 l 374 1010 q 421 982 401 1001 q 461 882 461 944 q 422 782 461 819 q 319 744 382 744 m 392 311 q 243 278 292 307 q 189 183 189 246 q 212 115 189 139 q 274 92 235 92 q 330 109 303 92 q 374 160 357 126 q 392 239 392 193 l 392 311 m 319 814 q 367 833 349 814 q 385 882 385 851 q 367 931 385 913 q 319 950 349 950 q 272 931 290 950 q 254 882 254 913 q 272 833 254 851 q 319 814 290 814 z "},"ã":{"ha":636,"x_min":44,"x_max":622,"o":"m 392 415 q 360 516 392 483 q 257 549 328 549 q 165 536 213 549 q 90 507 118 524 l 61 569 q 161 635 101 610 q 303 661 221 661 q 480 605 428 661 q 532 432 532 549 l 532 79 q 575 72 551 75 q 622 67 599 69 l 622 4 q 574 -2 600 1 q 524 -7 549 -6 q 495 -10 508 -10 q 471 -11 482 -11 q 412 8 432 -11 q 389 65 392 28 q 392 122 388 90 q 346 40 378 75 q 211 -17 297 -17 q 91 27 138 -17 q 44 156 44 71 q 90 281 44 231 q 219 357 136 332 q 392 381 294 378 l 392 415 m 242 983 q 311 962 286 983 q 360 903 336 940 q 383 871 374 881 q 406 861 392 861 q 437 889 426 861 q 453 974 447 917 l 508 968 q 487 820 511 875 q 397 765 463 765 q 327 787 353 765 q 279 847 301 808 q 256 878 265 868 q 233 889 247 889 q 204 863 215 889 q 186 776 193 836 l 131 782 q 152 931 128 878 q 242 983 176 983 m 392 311 q 243 278 292 307 q 189 183 189 246 q 212 115 189 139 q 274 92 235 92 q 330 109 303 92 q 374 160 357 126 q 392 239 392 193 l 392 311 z "},"æ":{"ha":997,"x_min":44,"x_max":972,"o":"m 392 414 q 360 513 392 479 q 253 547 328 547 q 163 536 208 547 q 88 510 117 525 l 67 558 q 158 632 94 603 q 293 661 222 661 q 458 601 408 661 q 488 551 476 581 q 564 621 519 593 q 715 661 631 661 q 871 615 811 661 q 951 494 931 569 q 957 332 972 418 l 533 332 q 533 332 533 332 q 560 203 533 258 q 634 119 588 149 q 738 89 681 89 q 847 109 796 89 q 926 169 897 129 l 960 156 q 909 65 946 104 q 819 5 872 26 q 706 -17 767 -17 q 551 24 617 -17 q 453 139 488 64 q 400 40 439 79 q 240 -17 344 -17 q 94 26 144 -17 q 44 161 44 69 q 91 286 44 235 q 221 363 138 338 q 392 386 296 385 l 392 414 m 540 411 l 814 411 q 811 475 817 443 q 773 552 801 522 q 700 582 744 582 q 578 511 622 582 q 540 411 550 468 m 392 311 q 244 276 294 307 q 189 179 189 242 q 215 113 189 138 q 282 89 242 89 q 358 119 324 89 q 392 213 392 149 l 392 311 z "},"ǽ":{"ha":997,"x_min":44,"x_max":972,"o":"m 392 414 q 360 513 392 479 q 253 547 328 547 q 163 536 208 547 q 88 510 117 525 l 67 558 q 158 632 94 603 q 293 661 222 661 q 458 601 408 661 q 488 551 476 581 q 564 621 519 593 q 715 661 631 661 q 871 615 811 661 q 951 494 931 569 q 957 332 972 418 l 533 332 q 533 332 533 332 q 560 203 533 258 q 634 119 588 149 q 738 89 681 89 q 847 109 796 89 q 926 169 897 129 l 960 156 q 909 65 946 104 q 819 5 872 26 q 706 -17 767 -17 q 551 24 617 -17 q 453 139 488 64 q 400 40 439 79 q 240 -17 344 -17 q 94 26 144 -17 q 44 161 44 69 q 91 286 44 235 q 221 363 138 338 q 392 386 296 385 l 392 414 m 540 411 l 814 411 q 811 475 817 443 q 773 552 801 522 q 700 582 744 582 q 578 511 622 582 q 540 411 550 468 m 392 311 q 244 276 294 307 q 189 179 189 242 q 215 113 189 138 q 282 89 242 89 q 358 119 324 89 q 392 213 392 149 l 392 311 m 439 783 l 543 992 l 694 992 l 694 981 l 483 765 l 439 783 z "},"b":{"ha":797,"x_min":-14,"x_max":746,"o":"m 240 1017 l 240 503 q 254 538 246 521 q 337 628 282 594 q 468 661 392 661 q 613 621 550 661 q 711 506 676 581 q 746 332 746 432 q 703 153 746 232 q 580 28 660 74 q 396 -17 500 -17 q 272 3 333 -17 q 185 43 225 17 l 111 -6 l 100 0 l 104 918 q 72 922 96 919 q 25 926 49 924 q -7 929 1 929 l -14 1000 q 14 1003 -1 1001 q 44 1006 29 1004 q 74 1009 58 1008 q 101 1011 89 1010 l 229 1022 l 240 1017 m 415 560 q 331 535 371 560 q 266 465 292 510 q 240 363 240 419 l 240 144 q 304 88 268 108 q 403 60 351 60 q 547 127 497 60 q 597 300 597 194 q 575 434 597 375 q 512 526 553 493 q 415 560 471 560 z "},"c":{"ha":647,"x_min":51,"x_max":619,"o":"m 528 390 q 488 522 517 435 q 476 555 481 540 q 468 579 471 569 q 308 558 367 586 q 224 477 249 531 q 199 349 200 424 q 228 215 199 275 q 310 122 258 156 q 425 89 363 89 q 513 106 471 89 q 583 169 556 124 l 619 150 q 532 28 599 74 q 372 -17 465 -17 q 210 24 283 -17 q 94 143 138 65 q 51 329 51 221 q 99 501 51 425 q 228 619 146 576 q 408 661 310 661 q 508 652 457 661 q 589 631 560 643 l 594 390 l 528 390 z "},"ć":{"ha":647,"x_min":51,"x_max":619,"o":"m 528 390 q 488 522 517 435 q 476 555 481 540 q 468 579 471 569 q 308 558 367 586 q 224 477 249 531 q 199 349 200 424 q 228 215 199 275 q 310 122 258 156 q 425 89 363 89 q 513 106 471 89 q 583 169 556 124 l 619 150 q 532 28 599 74 q 372 -17 465 -17 q 210 24 283 -17 q 94 143 138 65 q 51 329 51 221 q 99 501 51 425 q 228 619 146 576 q 408 661 310 661 q 508 652 457 661 q 589 631 560 643 l 594 390 l 528 390 m 331 783 l 435 992 l 588 992 l 588 981 l 375 765 l 331 783 z "},"č":{"ha":647,"x_min":51,"x_max":619,"o":"m 528 390 q 488 522 517 435 q 476 555 481 540 q 468 579 471 569 q 308 558 367 586 q 224 477 249 531 q 199 349 200 424 q 228 215 199 275 q 310 122 258 156 q 425 89 363 89 q 513 106 471 89 q 583 169 556 124 l 619 150 q 532 28 599 74 q 372 -17 465 -17 q 210 24 283 -17 q 94 143 138 65 q 51 329 51 221 q 99 501 51 425 q 228 619 146 576 q 408 661 310 661 q 508 652 457 661 q 589 631 560 643 l 594 390 l 528 390 m 476 1004 l 536 975 l 397 765 l 346 765 l 213 975 l 267 1004 l 374 888 l 476 1004 z "},"ç":{"ha":647,"x_min":51,"x_max":619,"o":"m 528 390 q 488 522 517 435 q 476 555 481 540 q 468 579 471 569 q 308 558 367 586 q 224 477 249 531 q 199 349 200 424 q 228 215 199 275 q 310 122 258 156 q 425 89 363 89 q 513 106 471 89 q 583 169 556 124 l 619 150 q 532 28 599 74 q 372 -17 465 -17 q 367 -17 369 -17 l 357 -76 q 428 -117 401 -90 q 456 -185 456 -144 q 410 -265 456 -236 q 303 -294 365 -294 q 219 -283 258 -294 l 231 -228 q 292 -244 264 -244 q 328 -233 314 -244 q 343 -199 343 -221 q 326 -165 343 -179 q 275 -146 308 -151 l 304 -10 q 211 24 254 0 q 94 143 138 65 q 51 329 51 221 q 99 501 51 425 q 228 619 146 576 q 408 661 310 661 q 508 652 457 661 q 589 631 560 643 l 594 390 l 528 390 z "},"ĉ":{"ha":647,"x_min":51,"x_max":619,"o":"m 528 390 q 488 522 517 435 q 476 555 481 540 q 468 579 471 569 q 308 558 367 586 q 224 477 249 531 q 199 349 200 424 q 228 215 199 275 q 310 122 258 156 q 425 89 363 89 q 513 106 471 89 q 583 169 556 124 l 619 150 q 532 28 599 74 q 372 -17 465 -17 q 210 24 283 -17 q 94 143 138 65 q 51 329 51 221 q 99 501 51 425 q 228 619 146 576 q 408 661 310 661 q 508 652 457 661 q 589 631 560 643 l 594 390 l 528 390 m 476 757 l 374 874 l 267 757 l 213 785 l 346 996 l 397 996 l 536 785 l 476 757 z "},"ċ":{"ha":647,"x_min":51,"x_max":619,"o":"m 528 390 q 488 522 517 435 q 476 555 481 540 q 468 579 471 569 q 308 558 367 586 q 224 477 249 531 q 199 349 200 424 q 228 215 199 275 q 310 122 258 156 q 425 89 363 89 q 513 106 471 89 q 583 169 556 124 l 619 150 q 532 28 599 74 q 372 -17 465 -17 q 210 24 283 -17 q 94 143 138 65 q 51 329 51 221 q 99 501 51 425 q 228 619 146 576 q 408 661 310 661 q 508 652 457 661 q 589 631 560 643 l 594 390 l 528 390 m 272 858 q 320 912 272 864 q 374 960 368 960 q 406 936 379 960 q 456 888 432 913 q 481 858 481 863 q 456 825 481 851 q 406 775 432 799 q 374 751 379 751 q 344 776 369 751 q 295 826 318 801 q 272 858 272 851 z "},"d":{"ha":822,"x_min":51,"x_max":801,"o":"m 558 921 q 517 925 549 922 q 456 931 486 928 q 415 935 426 933 l 411 1006 q 447 1008 428 1007 q 486 1010 467 1008 q 524 1012 506 1011 q 560 1014 543 1013 l 685 1022 l 697 1017 l 693 97 q 722 92 700 96 q 767 87 744 89 q 796 83 789 85 l 801 13 q 776 12 789 13 q 749 10 763 11 q 721 7 735 8 q 694 4 707 6 l 568 -6 l 556 0 l 556 135 q 544 107 551 121 q 465 17 518 50 q 338 -17 411 -17 q 186 24 251 -17 q 86 141 121 65 q 51 317 51 217 q 92 493 51 415 q 212 616 133 571 q 396 661 290 661 q 496 647 444 661 q 558 625 529 638 l 558 921 m 386 85 q 467 109 428 85 q 531 178 506 133 q 556 283 556 224 l 557 294 l 557 501 q 492 558 529 538 q 393 585 443 585 q 249 519 300 585 q 199 349 199 454 q 222 211 199 271 q 287 118 244 151 q 386 85 329 85 z "},"ð":{"ha":757,"x_min":51,"x_max":706,"o":"m 253 1026 q 503 932 404 1003 l 661 1031 l 667 1021 l 651 926 l 568 874 q 597 836 583 856 q 706 431 706 683 q 665 181 706 281 q 549 32 624 81 q 374 -17 474 -17 q 200 26 274 -17 q 89 142 126 68 q 51 310 51 217 q 90 481 51 410 q 195 590 128 553 q 350 628 263 628 q 479 601 428 628 q 560 531 531 575 q 536 667 551 604 q 471 810 514 749 l 289 694 l 281 703 l 290 731 q 314 813 304 768 l 413 875 q 217 960 338 940 l 217 971 l 253 1026 m 379 68 q 470 97 429 68 q 535 179 511 125 q 558 307 558 233 q 507 483 557 418 q 372 549 457 549 q 284 519 324 549 q 222 435 244 490 q 199 304 199 381 q 220 180 199 233 q 283 97 242 126 q 379 68 324 68 z "},"ď":{"ha":822,"x_min":51,"x_max":950,"o":"m 558 921 q 517 925 549 922 q 456 931 486 928 q 415 935 426 933 l 411 1006 q 447 1008 428 1007 q 486 1010 467 1008 q 524 1012 506 1011 q 560 1014 543 1013 l 685 1022 l 697 1017 l 693 97 q 722 92 700 96 q 767 87 744 89 q 796 83 789 85 l 801 13 q 776 12 789 13 q 749 10 763 11 q 721 7 735 8 q 694 4 707 6 l 568 -6 l 556 0 l 556 135 q 544 107 551 121 q 465 17 518 50 q 338 -17 411 -17 q 186 24 251 -17 q 86 141 121 65 q 51 317 51 217 q 92 493 51 415 q 212 616 133 571 q 396 661 290 661 q 496 647 444 661 q 558 625 529 638 l 558 921 m 386 85 q 467 109 428 85 q 531 178 506 133 q 556 283 556 224 l 557 294 l 557 501 q 492 558 529 538 q 393 585 443 585 q 249 519 300 585 q 199 349 199 454 q 222 211 199 271 q 287 118 244 151 q 386 85 329 85 m 768 749 q 789 908 771 783 q 814 1042 807 1032 q 885 1024 831 1039 q 950 1001 940 1008 q 917 924 943 985 q 863 804 890 864 q 826 726 836 744 q 797 733 817 726 q 768 749 778 739 z "},"đ":{"ha":822,"x_min":51,"x_max":801,"o":"m 558 921 q 517 925 549 922 q 456 931 486 928 q 415 935 426 933 l 411 1006 q 447 1008 428 1007 q 486 1010 467 1008 q 524 1012 506 1011 q 560 1014 543 1013 l 685 1022 l 697 1017 l 696 815 l 794 815 l 794 743 l 696 743 l 693 97 q 722 92 700 96 q 767 87 744 89 q 796 83 789 85 l 801 13 q 776 12 789 13 q 749 10 763 11 q 721 7 735 8 q 694 4 707 6 l 568 -6 l 556 0 l 556 135 q 544 107 551 121 q 465 17 518 50 q 338 -17 411 -17 q 186 24 251 -17 q 86 141 121 65 q 51 317 51 217 q 92 493 51 415 q 212 616 133 571 q 396 661 290 661 q 496 647 444 661 q 558 625 529 638 l 558 743 l 356 743 l 356 815 l 558 815 l 558 921 m 386 85 q 467 109 428 85 q 531 178 506 133 q 556 283 556 224 l 557 294 l 557 501 q 492 558 529 538 q 393 585 443 585 q 249 519 300 585 q 199 349 199 454 q 222 211 199 271 q 287 118 244 151 q 386 85 329 85 z "},"e":{"ha":675,"x_min":51,"x_max":649,"o":"m 635 332 l 199 332 q 199 324 199 328 q 260 154 200 219 q 417 89 321 89 q 519 108 469 89 q 600 171 568 128 l 636 156 q 542 29 614 75 q 369 -17 469 -17 q 204 22 276 -17 q 92 136 132 61 q 51 314 51 211 q 95 493 51 414 q 216 617 139 572 q 388 661 293 661 q 544 616 483 661 q 627 495 606 571 q 635 332 649 419 m 207 410 l 490 410 q 488 474 493 442 q 448 550 478 521 q 372 579 418 579 q 280 546 319 579 q 219 454 240 513 q 207 410 211 433 z "},"é":{"ha":675,"x_min":51,"x_max":649,"o":"m 635 332 l 199 332 q 199 324 199 328 q 260 154 200 219 q 417 89 321 89 q 519 108 469 89 q 600 171 568 128 l 636 156 q 542 29 614 75 q 369 -17 469 -17 q 204 22 276 -17 q 92 136 132 61 q 51 314 51 211 q 95 493 51 414 q 216 617 139 572 q 388 661 293 661 q 544 616 483 661 q 627 495 606 571 q 635 332 649 419 m 207 410 l 490 410 q 488 474 493 442 q 448 550 478 521 q 372 579 418 579 q 280 546 319 579 q 219 454 240 513 q 207 410 211 433 m 326 783 l 431 992 l 582 992 l 582 981 l 371 765 l 326 783 z "},"ĕ":{"ha":675,"x_min":51,"x_max":649,"o":"m 635 332 l 199 332 q 199 324 199 328 q 260 154 200 219 q 417 89 321 89 q 519 108 469 89 q 600 171 568 128 l 636 156 q 542 29 614 75 q 369 -17 469 -17 q 204 22 276 -17 q 92 136 132 61 q 51 314 51 211 q 95 493 51 414 q 216 617 139 572 q 388 661 293 661 q 544 616 483 661 q 627 495 606 571 q 635 332 649 419 m 207 410 l 490 410 q 488 474 493 442 q 448 550 478 521 q 372 579 418 579 q 280 546 319 579 q 219 454 240 513 q 207 410 211 433 m 526 979 q 483 824 522 882 q 372 765 444 765 q 260 824 299 765 q 217 979 221 882 l 271 986 q 308 897 283 925 q 372 868 332 868 q 437 897 413 868 q 474 986 461 925 l 526 979 z "},"ě":{"ha":675,"x_min":51,"x_max":649,"o":"m 635 332 l 199 332 q 199 324 199 328 q 260 154 200 219 q 417 89 321 89 q 519 108 469 89 q 600 171 568 128 l 636 156 q 542 29 614 75 q 369 -17 469 -17 q 204 22 276 -17 q 92 136 132 61 q 51 314 51 211 q 95 493 51 414 q 216 617 139 572 q 388 661 293 661 q 544 616 483 661 q 627 495 606 571 q 635 332 649 419 m 207 410 l 490 410 q 488 474 493 442 q 448 550 478 521 q 372 579 418 579 q 280 546 319 579 q 219 454 240 513 q 207 410 211 433 m 472 1004 l 532 975 l 393 765 l 342 765 l 208 975 l 263 1004 l 368 888 l 472 1004 z "},"ê":{"ha":675,"x_min":51,"x_max":649,"o":"m 635 332 l 199 332 q 199 324 199 328 q 260 154 200 219 q 417 89 321 89 q 519 108 469 89 q 600 171 568 128 l 636 156 q 542 29 614 75 q 369 -17 469 -17 q 204 22 276 -17 q 92 136 132 61 q 51 314 51 211 q 95 493 51 414 q 216 617 139 572 q 388 661 293 661 q 544 616 483 661 q 627 495 606 571 q 635 332 649 419 m 207 410 l 490 410 q 488 474 493 442 q 448 550 478 521 q 372 579 418 579 q 280 546 319 579 q 219 454 240 513 q 207 410 211 433 m 472 757 l 368 874 l 263 757 l 208 785 l 342 996 l 393 996 l 532 785 l 472 757 z "},"ë":{"ha":675,"x_min":51,"x_max":649,"o":"m 635 332 l 199 332 q 199 324 199 328 q 260 154 200 219 q 417 89 321 89 q 519 108 469 89 q 600 171 568 128 l 636 156 q 542 29 614 75 q 369 -17 469 -17 q 204 22 276 -17 q 92 136 132 61 q 51 314 51 211 q 95 493 51 414 q 216 617 139 572 q 388 661 293 661 q 544 616 483 661 q 627 495 606 571 q 635 332 649 419 m 207 410 l 490 410 q 488 474 493 442 q 448 550 478 521 q 372 579 418 579 q 280 546 319 579 q 219 454 240 513 q 207 410 211 433 m 388 856 q 428 908 386 863 q 474 953 469 953 q 526 908 482 953 q 571 856 571 863 q 526 805 571 850 q 474 760 481 760 q 429 805 471 760 q 388 856 388 850 m 175 856 q 218 908 175 863 q 265 953 261 953 q 316 908 274 953 q 358 856 358 863 q 315 805 358 850 q 265 760 272 760 q 219 806 263 760 q 175 856 176 851 z "},"ė":{"ha":675,"x_min":51,"x_max":649,"o":"m 635 332 l 199 332 q 199 324 199 328 q 260 154 200 219 q 417 89 321 89 q 519 108 469 89 q 600 171 568 128 l 636 156 q 542 29 614 75 q 369 -17 469 -17 q 204 22 276 -17 q 92 136 132 61 q 51 314 51 211 q 95 493 51 414 q 216 617 139 572 q 388 661 293 661 q 544 616 483 661 q 627 495 606 571 q 635 332 649 419 m 207 410 l 490 410 q 488 474 493 442 q 448 550 478 521 q 372 579 418 579 q 280 546 319 579 q 219 454 240 513 q 207 410 211 433 m 267 858 q 315 912 267 864 q 369 960 364 960 q 401 936 375 960 q 451 888 426 913 q 476 858 476 863 q 452 825 476 851 q 401 775 428 799 q 369 751 375 751 q 340 776 365 751 q 290 826 314 801 q 267 858 267 851 z "},"è":{"ha":675,"x_min":51,"x_max":649,"o":"m 635 332 l 199 332 q 199 324 199 328 q 260 154 200 219 q 417 89 321 89 q 519 108 469 89 q 600 171 568 128 l 636 156 q 542 29 614 75 q 369 -17 469 -17 q 204 22 276 -17 q 92 136 132 61 q 51 314 51 211 q 95 493 51 414 q 216 617 139 572 q 388 661 293 661 q 544 616 483 661 q 627 495 606 571 q 635 332 649 419 m 207 410 l 490 410 q 488 474 493 442 q 448 550 478 521 q 372 579 418 579 q 280 546 319 579 q 219 454 240 513 q 207 410 211 433 m 418 783 l 374 765 l 161 981 l 161 992 l 313 992 l 418 783 z "},"ē":{"ha":675,"x_min":51,"x_max":649,"o":"m 635 332 l 199 332 q 199 324 199 328 q 260 154 200 219 q 417 89 321 89 q 519 108 469 89 q 600 171 568 128 l 636 156 q 542 29 614 75 q 369 -17 469 -17 q 204 22 276 -17 q 92 136 132 61 q 51 314 51 211 q 95 493 51 414 q 216 617 139 572 q 388 661 293 661 q 544 616 483 661 q 627 495 606 571 q 635 332 649 419 m 207 410 l 490 410 q 488 474 493 442 q 448 550 478 521 q 372 579 418 579 q 280 546 319 579 q 219 454 240 513 q 207 410 211 433 m 207 885 l 536 885 l 536 800 l 207 800 l 207 885 z "},"ę":{"ha":675,"x_min":51,"x_max":649,"o":"m 522 -289 q 426 -256 463 -289 q 390 -161 390 -222 q 414 -75 390 -119 q 464 -4 435 -37 q 460 -6 461 -6 q 369 -17 417 -17 q 204 22 276 -17 q 92 136 132 61 q 51 314 51 211 q 95 492 51 413 q 216 616 139 571 q 388 661 293 661 q 544 616 483 661 q 627 496 606 571 q 635 332 649 421 l 199 332 q 199 324 199 328 q 226 201 199 254 q 304 118 254 147 q 417 89 354 89 q 520 108 469 89 q 603 169 571 128 l 636 156 q 617 112 629 133 q 576 56 604 90 l 575 54 q 524 -34 542 11 q 506 -126 506 -79 q 526 -190 506 -165 q 576 -215 546 -215 q 625 -206 601 -215 l 628 -204 l 628 -260 q 578 -282 604 -275 q 522 -289 553 -289 m 207 410 l 490 410 q 488 475 493 444 q 448 553 478 524 q 372 583 418 583 q 246 510 292 583 q 207 410 218 467 z "},"f":{"ha":515,"x_min":33,"x_max":519,"o":"m 372 953 q 301 920 324 953 q 278 836 278 888 l 278 644 l 499 644 l 499 633 l 485 567 l 278 567 l 278 86 q 317 80 288 85 q 374 71 346 75 q 411 65 401 67 l 411 0 l 40 0 l 40 65 q 69 72 47 67 q 110 81 90 76 q 139 86 131 85 l 139 567 l 33 567 l 33 619 q 63 625 47 621 q 92 633 78 629 q 115 638 103 636 q 139 644 126 640 l 139 822 q 194 973 139 918 q 368 1028 249 1028 q 514 1006 442 1028 l 519 814 l 453 814 q 436 867 449 828 q 424 906 431 882 q 411 950 418 924 q 372 953 392 953 z "},"g":{"ha":689,"x_min":43,"x_max":671,"o":"m 315 -300 q 108 -253 174 -300 q 43 -133 43 -207 q 86 -39 43 -78 q 167 1 119 -8 q 72 117 72 28 q 111 210 72 171 q 182 254 140 240 q 89 329 124 281 q 54 443 54 379 q 91 553 54 504 q 192 632 128 603 q 332 661 256 661 l 397 661 q 465 663 431 661 q 547 664 506 663 q 628 668 588 665 l 628 579 l 604 579 q 575 581 590 579 q 539 582 557 581 q 535 582 536 582 q 565 544 551 565 q 599 432 599 494 q 563 325 599 372 q 465 252 528 278 q 321 226 401 226 q 214 242 264 226 q 201 221 207 232 q 190 181 190 201 q 215 133 190 150 q 297 117 239 117 l 451 117 q 615 72 558 117 q 671 -60 671 26 q 623 -185 671 -129 q 493 -270 575 -240 q 315 -300 411 -300 m 203 -7 q 176 -37 188 -18 q 164 -92 164 -61 q 189 -162 164 -132 q 260 -210 214 -193 q 364 -226 306 -226 q 491 -192 443 -226 q 539 -101 539 -157 q 510 -31 539 -51 q 424 -11 481 -11 l 268 -11 q 203 -7 232 -11 m 317 597 q 233 560 263 597 q 204 460 204 522 q 222 373 204 411 q 271 313 239 335 q 342 290 303 290 q 424 324 397 290 q 450 418 450 358 q 417 544 450 493 q 317 597 383 596 z "},"ǵ":{"ha":689,"x_min":43,"x_max":671,"o":"m 315 -300 q 108 -253 174 -300 q 43 -133 43 -207 q 86 -39 43 -78 q 167 1 119 -8 q 72 117 72 28 q 111 210 72 171 q 182 254 140 240 q 89 329 124 281 q 54 443 54 379 q 91 553 54 504 q 192 632 128 603 q 332 661 256 661 l 397 661 q 465 663 431 661 q 547 664 506 663 q 628 668 588 665 l 628 579 l 604 579 q 575 581 590 579 q 539 582 557 581 q 535 582 536 582 q 565 544 551 565 q 599 432 599 494 q 563 325 599 372 q 465 252 528 278 q 321 226 401 226 q 214 242 264 226 q 201 221 207 232 q 190 181 190 201 q 215 133 190 150 q 297 117 239 117 l 451 117 q 615 72 558 117 q 671 -60 671 26 q 623 -185 671 -129 q 493 -270 575 -240 q 315 -300 411 -300 m 203 -7 q 176 -37 188 -18 q 164 -92 164 -61 q 189 -162 164 -132 q 260 -210 214 -193 q 364 -226 306 -226 q 491 -192 443 -226 q 539 -101 539 -157 q 510 -31 539 -51 q 424 -11 481 -11 l 268 -11 q 203 -7 232 -11 m 317 597 q 233 560 263 597 q 204 460 204 522 q 222 373 204 411 q 271 313 239 335 q 342 290 303 290 q 424 324 397 290 q 450 418 450 358 q 417 544 450 493 q 317 597 383 596 m 304 783 l 410 992 l 561 992 l 561 981 l 349 765 l 304 783 z "},"ğ":{"ha":689,"x_min":43,"x_max":671,"o":"m 315 -300 q 108 -253 174 -300 q 43 -133 43 -207 q 86 -39 43 -78 q 167 1 119 -8 q 72 117 72 28 q 111 210 72 171 q 182 254 140 240 q 89 329 124 281 q 54 443 54 379 q 91 553 54 504 q 192 632 128 603 q 332 661 256 661 l 397 661 q 465 663 431 661 q 547 664 506 663 q 628 668 588 665 l 628 579 l 604 579 q 575 581 590 579 q 539 582 557 581 q 535 582 536 582 q 565 544 551 565 q 599 432 599 494 q 563 325 599 372 q 465 252 528 278 q 321 226 401 226 q 214 242 264 226 q 201 221 207 232 q 190 181 190 201 q 215 133 190 150 q 297 117 239 117 l 451 117 q 615 72 558 117 q 671 -60 671 26 q 623 -185 671 -129 q 493 -270 575 -240 q 315 -300 411 -300 m 203 -7 q 176 -37 188 -18 q 164 -92 164 -61 q 189 -162 164 -132 q 260 -210 214 -193 q 364 -226 306 -226 q 491 -192 443 -226 q 539 -101 539 -157 q 510 -31 539 -51 q 424 -11 481 -11 l 268 -11 q 203 -7 232 -11 m 317 597 q 233 560 263 597 q 204 460 204 522 q 222 373 204 411 q 271 313 239 335 q 342 290 303 290 q 424 324 397 290 q 450 418 450 358 q 417 544 450 493 q 317 597 383 596 m 506 979 q 463 824 501 882 q 350 765 424 765 q 238 824 276 765 q 194 979 199 882 l 249 986 q 285 897 261 925 q 350 868 310 868 q 415 897 390 868 q 451 986 439 925 l 506 979 z "},"ǧ":{"ha":689,"x_min":43,"x_max":671,"o":"m 315 -300 q 108 -253 174 -300 q 43 -133 43 -207 q 86 -39 43 -78 q 167 1 119 -8 q 72 117 72 28 q 111 210 72 171 q 182 254 140 240 q 89 329 124 281 q 54 443 54 379 q 91 553 54 504 q 192 632 128 603 q 332 661 256 661 l 397 661 q 465 663 431 661 q 547 664 506 663 q 628 668 588 665 l 628 579 l 604 579 q 575 581 590 579 q 539 582 557 581 q 535 582 536 582 q 565 544 551 565 q 599 432 599 494 q 563 325 599 372 q 465 252 528 278 q 321 226 401 226 q 214 242 264 226 q 201 221 207 232 q 190 181 190 201 q 215 133 190 150 q 297 117 239 117 l 451 117 q 615 72 558 117 q 671 -60 671 26 q 623 -185 671 -129 q 493 -270 575 -240 q 315 -300 411 -300 m 203 -7 q 176 -37 188 -18 q 164 -92 164 -61 q 189 -162 164 -132 q 260 -210 214 -193 q 364 -226 306 -226 q 491 -192 443 -226 q 539 -101 539 -157 q 510 -31 539 -51 q 424 -11 481 -11 l 268 -11 q 203 -7 232 -11 m 317 597 q 233 560 263 597 q 204 460 204 522 q 222 373 204 411 q 271 313 239 335 q 342 290 303 290 q 424 324 397 290 q 450 418 450 358 q 417 544 450 493 q 317 597 383 596 m 450 1004 l 510 975 l 371 765 l 319 765 l 188 975 l 240 1004 l 347 888 l 450 1004 z "},"ĝ":{"ha":689,"x_min":43,"x_max":671,"o":"m 315 -300 q 108 -253 174 -300 q 43 -133 43 -207 q 86 -39 43 -78 q 167 1 119 -8 q 72 117 72 28 q 111 210 72 171 q 182 254 140 240 q 89 329 124 281 q 54 443 54 379 q 91 553 54 504 q 192 632 128 603 q 332 661 256 661 l 397 661 q 465 663 431 661 q 547 664 506 663 q 628 668 588 665 l 628 579 l 604 579 q 575 581 590 579 q 539 582 557 581 q 535 582 536 582 q 565 544 551 565 q 599 432 599 494 q 563 325 599 372 q 465 252 528 278 q 321 226 401 226 q 214 242 264 226 q 201 221 207 232 q 190 181 190 201 q 215 133 190 150 q 297 117 239 117 l 451 117 q 615 72 558 117 q 671 -60 671 26 q 623 -185 671 -129 q 493 -270 575 -240 q 315 -300 411 -300 m 203 -7 q 176 -37 188 -18 q 164 -92 164 -61 q 189 -162 164 -132 q 260 -210 214 -193 q 364 -226 306 -226 q 491 -192 443 -226 q 539 -101 539 -157 q 510 -31 539 -51 q 424 -11 481 -11 l 268 -11 q 203 -7 232 -11 m 317 597 q 233 560 263 597 q 204 460 204 522 q 222 373 204 411 q 271 313 239 335 q 342 290 303 290 q 424 324 397 290 q 450 418 450 358 q 417 544 450 493 q 317 597 383 596 m 450 757 l 347 874 l 240 757 l 188 785 l 319 996 l 371 996 l 510 785 l 450 757 z "},"ģ":{"ha":689,"x_min":43,"x_max":671,"o":"m 315 -300 q 108 -253 174 -300 q 43 -133 43 -207 q 86 -39 43 -78 q 167 1 119 -8 q 72 117 72 28 q 111 210 72 171 q 182 254 140 240 q 89 329 124 281 q 54 443 54 379 q 91 553 54 504 q 192 632 128 603 q 332 661 256 661 l 397 661 q 465 663 431 661 q 547 664 506 663 q 628 668 588 665 l 628 579 l 604 579 q 575 581 590 579 q 539 582 557 581 q 535 582 536 582 q 565 544 551 565 q 599 432 599 494 q 563 325 599 372 q 465 252 528 278 q 321 226 401 226 q 214 242 264 226 q 201 221 207 232 q 190 181 190 201 q 215 133 190 150 q 297 117 239 117 l 451 117 q 615 72 558 117 q 671 -60 671 26 q 623 -185 671 -129 q 493 -270 575 -240 q 315 -300 411 -300 m 203 -7 q 176 -37 188 -18 q 164 -92 164 -61 q 189 -162 164 -132 q 260 -210 214 -193 q 364 -226 306 -226 q 491 -192 443 -226 q 539 -101 539 -157 q 510 -31 539 -51 q 424 -11 481 -11 l 268 -11 q 203 -7 232 -11 m 317 597 q 233 560 263 597 q 204 460 204 522 q 222 373 204 411 q 271 313 239 335 q 342 290 303 290 q 424 324 397 290 q 450 418 450 358 q 417 544 450 493 q 317 597 383 596 m 442 1019 q 419 860 438 985 q 394 726 401 736 q 323 744 378 729 q 260 767 268 760 q 292 844 265 783 q 345 964 318 904 q 382 1042 372 1024 q 411 1035 392 1042 q 442 1019 431 1029 z "},"ġ":{"ha":689,"x_min":43,"x_max":671,"o":"m 315 -300 q 108 -253 174 -300 q 43 -133 43 -207 q 86 -39 43 -78 q 167 1 119 -8 q 72 117 72 28 q 111 210 72 171 q 182 254 140 240 q 89 329 124 281 q 54 443 54 379 q 91 553 54 504 q 192 632 128 603 q 332 661 256 661 l 397 661 q 465 663 431 661 q 547 664 506 663 q 628 668 588 665 l 628 579 l 604 579 q 575 581 590 579 q 539 582 557 581 q 535 582 536 582 q 565 544 551 565 q 599 432 599 494 q 563 325 599 372 q 465 252 528 278 q 321 226 401 226 q 214 242 264 226 q 201 221 207 232 q 190 181 190 201 q 215 133 190 150 q 297 117 239 117 l 451 117 q 615 72 558 117 q 671 -60 671 26 q 623 -185 671 -129 q 493 -270 575 -240 q 315 -300 411 -300 m 203 -7 q 176 -37 188 -18 q 164 -92 164 -61 q 189 -162 164 -132 q 260 -210 214 -193 q 364 -226 306 -226 q 491 -192 443 -226 q 539 -101 539 -157 q 510 -31 539 -51 q 424 -11 481 -11 l 268 -11 q 203 -7 232 -11 m 317 597 q 233 560 263 597 q 204 460 204 522 q 222 373 204 411 q 271 313 239 335 q 342 290 303 290 q 424 324 397 290 q 450 418 450 358 q 417 544 450 493 q 317 597 383 596 m 246 858 q 294 912 246 864 q 347 960 342 960 q 380 936 354 960 q 430 888 406 913 q 454 858 454 863 q 430 825 454 851 q 380 775 406 799 q 347 751 354 751 q 317 776 343 751 q 269 826 292 801 q 246 858 246 851 z "},"h":{"ha":831,"x_min":24,"x_max":803,"o":"m 278 86 q 302 80 285 85 q 338 71 319 75 q 364 65 357 67 l 364 0 l 39 0 l 39 65 q 67 72 46 67 q 110 81 89 76 q 138 86 131 85 l 142 918 q 110 922 133 919 q 63 926 86 924 q 31 929 39 929 l 24 1000 q 51 1003 36 1001 q 81 1006 67 1004 q 111 1009 96 1008 q 139 1011 126 1010 l 267 1022 l 278 1017 l 278 532 q 304 564 289 549 q 396 633 340 606 q 521 661 451 661 q 663 603 615 661 q 710 439 710 544 l 710 86 q 736 80 717 85 q 776 71 756 75 q 803 65 796 67 l 803 0 l 485 0 l 485 65 q 509 72 490 67 q 546 81 528 76 q 569 86 564 85 l 569 410 q 536 512 569 476 q 446 547 503 547 q 333 521 386 547 q 278 483 299 503 l 278 86 z "},"ħ":{"ha":831,"x_min":24,"x_max":803,"o":"m 278 86 q 302 80 285 85 q 338 71 319 75 q 364 65 357 67 l 364 0 l 39 0 l 39 65 q 67 72 46 67 q 110 81 89 76 q 138 86 131 85 l 142 757 l 42 757 l 42 829 l 142 829 l 142 918 q 110 922 133 919 q 63 926 86 924 q 31 929 39 929 l 24 1000 q 51 1003 36 1001 q 81 1006 67 1004 q 111 1009 96 1008 q 139 1011 126 1010 l 267 1022 l 278 1017 l 278 829 l 481 829 l 481 757 l 278 757 l 278 532 q 304 564 289 549 q 396 633 340 606 q 521 661 451 661 q 663 603 615 661 q 710 439 710 544 l 710 86 q 736 80 717 85 q 776 71 756 75 q 803 65 796 67 l 803 0 l 485 0 l 485 65 q 509 72 490 67 q 546 81 528 76 q 569 86 564 85 l 569 410 q 536 512 569 476 q 446 547 503 547 q 333 521 386 547 q 278 483 299 503 l 278 86 z "},"ĥ":{"ha":831,"x_min":7,"x_max":803,"o":"m 278 86 q 302 80 285 85 q 338 71 319 75 q 364 65 357 67 l 364 0 l 39 0 l 39 65 q 67 72 46 67 q 110 81 89 76 q 138 86 131 85 l 142 918 q 110 922 133 919 q 63 926 86 924 q 31 929 39 929 l 24 1000 q 51 1003 36 1001 q 81 1006 67 1004 q 111 1009 96 1008 q 139 1011 126 1010 l 267 1022 l 278 1017 l 278 532 q 304 564 289 549 q 396 633 340 606 q 521 661 451 661 q 663 603 615 661 q 710 439 710 544 l 710 86 q 736 80 717 85 q 776 71 756 75 q 803 65 796 67 l 803 0 l 485 0 l 485 65 q 509 72 490 67 q 546 81 528 76 q 569 86 564 85 l 569 410 q 536 512 569 476 q 446 547 503 547 q 333 521 386 547 q 278 483 299 503 l 278 86 m 297 1081 l 183 1197 l 67 1081 l 7 1108 l 154 1319 l 210 1319 l 363 1108 l 297 1081 z "},"i":{"ha":418,"x_min":35,"x_max":396,"o":"m 290 86 q 321 80 299 85 q 365 71 343 75 q 396 65 388 67 l 396 0 l 50 0 l 50 65 q 78 72 57 67 q 121 81 100 76 q 149 86 142 85 l 153 551 q 120 555 144 553 q 73 560 96 557 q 42 563 50 563 l 35 633 q 62 636 47 635 q 92 639 76 638 q 122 642 107 642 q 150 644 136 643 l 278 656 l 290 650 l 290 86 m 100 858 q 149 912 100 864 q 204 960 199 960 q 236 937 210 960 q 288 888 263 914 q 313 858 313 863 q 263 800 313 849 q 204 751 214 751 q 174 776 201 751 q 124 826 147 801 q 100 858 100 851 z "},"ı":{"ha":417,"x_min":35,"x_max":394,"o":"m 289 86 q 319 80 297 85 q 364 71 342 75 q 394 65 386 67 l 394 0 l 50 0 l 50 65 q 78 72 57 67 q 121 81 100 76 q 149 86 142 85 l 153 551 q 120 555 144 553 q 73 560 96 557 q 42 563 50 563 l 35 633 q 62 636 47 635 q 92 639 76 638 q 122 642 107 642 q 150 644 136 643 l 278 656 l 289 650 l 289 86 z "},"í":{"ha":417,"x_min":35,"x_max":424,"o":"m 289 86 q 319 80 297 85 q 364 71 342 75 q 394 65 386 67 l 394 0 l 50 0 l 50 65 q 78 72 57 67 q 121 81 100 76 q 149 86 142 85 l 153 551 q 120 555 144 553 q 73 560 96 557 q 42 563 50 563 l 35 633 q 62 636 47 635 q 92 639 76 638 q 122 642 107 642 q 150 644 136 643 l 278 656 l 289 650 l 289 86 m 167 783 l 271 992 l 424 992 l 424 981 l 211 765 l 167 783 z "},"ĭ":{"ha":417,"x_min":35,"x_max":394,"o":"m 289 86 q 319 80 297 85 q 364 71 342 75 q 394 65 386 67 l 394 0 l 50 0 l 50 65 q 78 72 57 67 q 121 81 100 76 q 149 86 142 85 l 153 551 q 120 555 144 553 q 73 560 96 557 q 42 563 50 563 l 35 633 q 62 636 47 635 q 92 639 76 638 q 122 642 107 642 q 150 644 136 643 l 278 656 l 289 650 l 289 86 m 368 979 q 324 824 364 882 q 212 765 285 765 q 100 824 139 765 q 57 979 61 882 l 111 986 q 148 897 124 925 q 213 868 172 868 q 277 897 253 868 q 314 986 301 925 l 368 979 z "},"î":{"ha":417,"x_min":35,"x_max":394,"o":"m 289 86 q 319 80 297 85 q 364 71 342 75 q 394 65 386 67 l 394 0 l 50 0 l 50 65 q 78 72 57 67 q 121 81 100 76 q 149 86 142 85 l 153 551 q 120 555 144 553 q 73 560 96 557 q 42 563 50 563 l 35 633 q 62 636 47 635 q 92 639 76 638 q 122 642 107 642 q 150 644 136 643 l 278 656 l 289 650 l 289 86 m 313 757 l 210 874 l 103 757 l 49 785 l 182 996 l 233 996 l 372 785 l 313 757 z "},"ï":{"ha":417,"x_min":15,"x_max":411,"o":"m 289 86 q 319 80 297 85 q 364 71 342 75 q 394 65 386 67 l 394 0 l 50 0 l 50 65 q 78 72 57 67 q 121 81 100 76 q 149 86 142 85 l 153 551 q 120 555 144 553 q 73 560 96 557 q 42 563 50 563 l 35 633 q 62 636 47 635 q 92 639 76 638 q 122 642 107 642 q 150 644 136 643 l 278 656 l 289 650 l 289 86 m 228 856 q 268 908 226 863 q 314 953 310 953 q 367 908 322 953 q 411 856 411 863 q 367 805 411 850 q 314 760 322 760 q 269 805 311 760 q 228 856 228 850 m 15 856 q 58 908 15 863 q 106 953 101 953 q 157 908 114 953 q 200 856 200 863 q 157 805 200 850 q 106 760 114 760 q 60 806 103 760 q 15 856 17 851 z "},"ì":{"ha":417,"x_min":1,"x_max":394,"o":"m 289 86 q 319 80 297 85 q 364 71 342 75 q 394 65 386 67 l 394 0 l 50 0 l 50 65 q 78 72 57 67 q 121 81 100 76 q 149 86 142 85 l 153 551 q 120 555 144 553 q 73 560 96 557 q 42 563 50 563 l 35 633 q 62 636 47 635 q 92 639 76 638 q 122 642 107 642 q 150 644 136 643 l 278 656 l 289 650 l 289 86 m 258 783 l 214 765 l 1 981 l 1 992 l 153 992 l 258 783 z "},"ĳ":{"ha":801,"x_min":35,"x_max":717,"o":"m 471 -224 q 535 -190 513 -224 q 558 -100 557 -157 l 563 551 q 530 555 554 553 q 483 560 506 557 q 451 563 460 563 l 444 633 q 472 636 457 635 q 501 639 486 638 q 531 642 517 642 q 560 644 546 643 l 688 656 l 699 650 l 699 -92 q 640 -242 696 -187 q 468 -297 586 -296 l 468 -297 q 468 -297 468 -297 q 467 -297 467 -297 q 322 -275 390 -297 l 317 -87 l 383 -87 q 396 -127 390 -107 q 408 -168 401 -147 q 419 -206 414 -187 q 425 -219 422 -212 q 471 -224 447 -224 m 290 86 q 321 80 299 85 q 365 71 343 75 q 396 65 388 67 l 396 0 l 50 0 l 50 65 q 78 72 57 67 q 121 81 100 76 q 149 86 142 85 l 153 551 q 120 555 144 553 q 73 560 96 557 q 42 563 50 563 l 35 633 q 62 636 47 635 q 92 639 76 638 q 122 642 107 642 q 150 644 136 643 l 278 656 l 290 650 l 290 86 m 506 858 q 554 912 506 864 q 608 960 603 960 q 641 937 615 960 q 692 888 667 914 q 717 858 717 863 q 692 825 717 851 q 642 775 668 799 q 608 751 615 751 q 578 776 604 751 q 529 826 553 800 q 506 858 506 851 m 100 858 q 149 912 100 864 q 204 960 199 960 q 236 937 210 960 q 288 888 263 914 q 313 858 313 863 q 263 800 313 849 q 204 751 214 751 q 174 776 201 751 q 124 826 147 801 q 100 858 100 851 z "},"ī":{"ha":417,"x_min":35,"x_max":394,"o":"m 289 86 q 319 80 297 85 q 364 71 342 75 q 394 65 386 67 l 394 0 l 50 0 l 50 65 q 78 72 57 67 q 121 81 100 76 q 149 86 142 85 l 153 551 q 120 555 144 553 q 73 560 96 557 q 42 563 50 563 l 35 633 q 62 636 47 635 q 92 639 76 638 q 122 642 107 642 q 150 644 136 643 l 278 656 l 289 650 l 289 86 m 47 885 l 378 885 l 378 800 l 47 800 l 47 885 z "},"į":{"ha":417,"x_min":35,"x_max":413,"o":"m 289 86 q 319 80 297 85 q 364 71 342 75 q 394 65 386 67 l 394 0 q 391 -5 393 -3 q 386 -8 389 -7 q 319 -85 344 -49 q 294 -160 294 -122 q 313 -201 294 -187 q 360 -215 332 -215 q 388 -212 374 -215 q 413 -204 401 -208 l 413 -260 q 367 -281 392 -274 q 311 -289 342 -289 q 217 -261 253 -289 q 182 -183 182 -233 q 236 -69 182 -129 q 317 0 274 -29 l 50 0 l 50 65 q 78 72 57 67 q 121 81 100 76 q 149 86 142 85 l 153 551 q 120 555 144 553 q 73 560 96 557 q 42 563 50 563 l 35 633 q 62 636 47 635 q 92 639 76 638 q 122 642 107 642 q 150 644 136 643 l 278 656 l 289 650 l 289 86 m 108 858 q 156 912 108 864 q 210 960 204 960 q 242 936 215 960 q 292 888 268 913 q 317 858 317 863 q 292 825 317 851 q 242 775 268 799 q 210 751 215 751 q 180 776 206 751 q 131 826 154 801 q 108 858 108 851 z "},"ĩ":{"ha":417,"x_min":21,"x_max":404,"o":"m 289 86 q 319 80 297 85 q 364 71 342 75 q 394 65 386 67 l 394 0 l 50 0 l 50 65 q 78 72 57 67 q 121 81 100 76 q 149 86 142 85 l 153 551 q 120 555 144 553 q 73 560 96 557 q 42 563 50 563 l 35 633 q 62 636 47 635 q 92 639 76 638 q 122 642 107 642 q 150 644 136 643 l 278 656 l 289 650 l 289 86 m 135 983 q 204 962 179 983 q 253 903 229 940 q 276 871 267 881 q 299 861 285 861 q 329 889 318 861 q 346 974 340 917 l 401 968 q 380 820 404 875 q 290 765 356 765 q 220 787 246 765 q 171 847 194 808 q 149 878 158 868 q 126 889 139 889 q 97 863 108 889 q 79 776 86 836 l 22 782 q 44 931 21 878 q 135 983 68 983 z "},"j":{"ha":383,"x_min":-100,"x_max":299,"o":"m 53 -224 q 117 -190 96 -224 q 140 -100 139 -157 l 144 551 q 113 555 136 553 q 65 560 89 557 q 33 563 42 563 l 26 633 q 54 636 39 635 q 83 639 69 638 q 114 642 99 642 q 142 644 129 643 l 269 656 l 281 650 l 281 -92 q 224 -242 278 -187 q 51 -297 168 -296 l 51 -297 q 50 -297 50 -297 q 49 -297 49 -297 q -94 -275 -28 -297 l -100 -87 l -33 -87 q -22 -127 -28 -107 q -10 -168 -15 -147 q 3 -206 -4 -187 q 7 -219 4 -212 q 53 -224 29 -224 m 88 858 q 136 912 88 864 q 192 960 185 960 q 223 937 197 960 q 274 888 249 914 q 299 858 299 863 q 274 825 299 851 q 224 775 250 799 q 192 751 197 751 q 161 776 188 751 q 111 826 135 800 q 88 858 88 851 z "},"ȷ":{"ha":383,"x_min":-100,"x_max":281,"o":"m 53 -231 q 117 -197 96 -231 q 140 -107 139 -164 l 144 551 q 113 555 136 553 q 65 560 89 557 q 33 563 42 563 l 26 633 q 54 636 39 635 q 83 639 69 638 q 114 642 99 642 q 142 644 129 643 l 269 656 l 281 650 l 281 -92 q 224 -242 278 -187 q 51 -297 168 -296 l 51 -297 q 50 -297 50 -297 q 49 -297 49 -297 q -94 -275 -28 -297 l -100 -87 l -33 -87 q -25 -113 -29 -101 q -17 -137 -21 -125 q -6 -178 -12 -154 q 10 -228 1 -199 q 53 -231 31 -231 z "},"ĵ":{"ha":383,"x_min":-100,"x_max":372,"o":"m 53 -231 q 117 -197 96 -231 q 140 -107 139 -164 l 144 551 q 113 555 136 553 q 65 560 89 557 q 33 563 42 563 l 26 633 q 54 636 39 635 q 83 639 69 638 q 114 642 99 642 q 142 644 129 643 l 269 656 l 281 650 l 281 -92 q 224 -242 278 -187 q 51 -297 168 -296 l 51 -297 q 50 -297 50 -297 q 49 -297 49 -297 q -94 -275 -28 -297 l -100 -87 l -33 -87 q -25 -113 -29 -101 q -17 -137 -21 -125 q -6 -178 -12 -154 q 10 -228 1 -199 q 53 -231 31 -231 m 313 757 l 210 874 l 103 757 l 50 785 l 182 996 l 233 996 l 372 785 l 313 757 z "},"k":{"ha":764,"x_min":21,"x_max":764,"o":"m 514 551 q 469 563 500 556 q 425 574 439 571 l 425 644 l 756 644 l 756 574 q 721 567 738 571 q 681 558 701 563 q 640 551 660 554 l 457 406 l 692 90 q 728 80 703 88 q 764 69 753 72 l 764 0 l 568 0 l 347 318 l 275 261 l 275 86 q 297 80 281 85 q 328 71 313 75 q 349 65 343 67 l 349 0 l 39 0 l 39 65 q 67 72 46 67 q 109 81 89 76 q 136 86 129 85 l 140 918 q 108 922 132 919 q 60 926 83 924 q 28 929 36 929 l 21 1000 q 49 1003 35 1001 q 79 1006 64 1004 q 109 1009 94 1008 q 136 1011 124 1010 l 264 1022 l 275 1017 l 275 353 l 514 551 z "},"ķ":{"ha":764,"x_min":21,"x_max":764,"o":"m 514 551 q 469 563 500 556 q 425 574 439 571 l 425 644 l 756 644 l 756 574 q 721 567 738 571 q 681 558 701 563 q 640 551 660 554 l 457 406 l 692 90 q 728 80 703 88 q 764 69 753 72 l 764 0 l 568 0 l 347 318 l 275 261 l 275 86 q 297 80 281 85 q 328 71 313 75 q 349 65 343 67 l 349 0 l 39 0 l 39 65 q 67 72 46 67 q 109 81 89 76 q 136 86 129 85 l 140 918 q 108 922 132 919 q 60 926 83 924 q 28 929 36 929 l 21 1000 q 49 1003 35 1001 q 79 1006 64 1004 q 109 1009 94 1008 q 136 1011 124 1010 l 264 1022 l 275 1017 l 275 353 l 514 551 m 290 -362 q 311 -203 293 -328 q 336 -69 329 -79 q 409 -87 354 -72 q 472 -110 464 -103 q 440 -187 467 -126 q 386 -307 414 -247 q 350 -385 358 -367 q 321 -378 340 -385 q 290 -362 301 -372 z "},"ĸ":{"ha":775,"x_min":35,"x_max":775,"o":"m 526 551 q 481 563 513 556 q 436 574 450 571 l 436 644 l 767 644 l 767 574 q 736 568 751 571 q 695 560 715 564 q 654 551 675 556 l 472 403 l 701 90 q 738 80 713 88 q 775 69 764 72 l 775 0 l 578 0 l 364 315 l 289 254 l 289 86 q 310 80 294 85 q 341 71 325 75 q 363 65 357 67 l 363 0 l 50 0 l 50 65 q 78 72 57 67 q 121 81 100 76 q 149 86 142 85 l 153 551 q 120 555 144 553 q 73 560 96 557 q 42 563 50 563 l 35 633 q 62 636 47 635 q 92 639 76 638 q 122 642 107 642 q 150 644 136 643 l 278 656 l 289 650 l 289 344 l 526 551 z "},"l":{"ha":390,"x_min":24,"x_max":371,"o":"m 278 86 q 304 80 285 85 q 344 71 324 75 q 371 65 364 67 l 371 0 l 39 0 l 39 65 q 67 72 46 67 q 110 81 89 76 q 138 86 131 85 l 142 918 q 110 922 133 919 q 63 926 86 924 q 31 929 39 929 l 24 1000 q 51 1003 36 1001 q 81 1006 67 1004 q 111 1009 96 1008 q 139 1011 126 1010 l 267 1022 l 278 1017 l 278 86 z "},"ĺ":{"ha":390,"x_min":24,"x_max":436,"o":"m 278 86 q 304 80 285 85 q 344 71 324 75 q 371 65 364 67 l 371 0 l 39 0 l 39 65 q 67 72 46 67 q 110 81 89 76 q 138 86 131 85 l 142 918 q 110 922 133 919 q 63 926 86 924 q 31 929 39 929 l 24 1000 q 51 1003 36 1001 q 81 1006 67 1004 q 111 1009 96 1008 q 139 1011 126 1010 l 267 1022 l 278 1017 l 278 86 m 153 1107 l 268 1315 l 436 1315 l 436 1304 l 203 1089 l 153 1107 z "},"ľ":{"ha":390,"x_min":24,"x_max":532,"o":"m 278 86 q 304 80 285 85 q 344 71 324 75 q 371 65 364 67 l 371 0 l 39 0 l 39 65 q 67 72 46 67 q 110 81 89 76 q 138 86 131 85 l 142 918 q 110 922 133 919 q 63 926 86 924 q 31 929 39 929 l 24 1000 q 51 1003 36 1001 q 81 1006 67 1004 q 111 1009 96 1008 q 139 1011 126 1010 l 267 1022 l 278 1017 l 278 86 m 350 749 q 371 908 353 783 q 396 1042 389 1032 q 468 1024 413 1039 q 532 1001 524 1008 q 499 924 525 985 q 446 804 474 864 q 410 726 418 744 q 380 733 400 726 q 350 749 360 739 z "},"ļ":{"ha":390,"x_min":24,"x_max":371,"o":"m 278 86 q 304 80 285 85 q 344 71 324 75 q 371 65 364 67 l 371 0 l 39 0 l 39 65 q 67 72 46 67 q 110 81 89 76 q 138 86 131 85 l 142 918 q 110 922 133 919 q 63 926 86 924 q 31 929 39 929 l 24 1000 q 51 1003 36 1001 q 81 1006 67 1004 q 111 1009 96 1008 q 139 1011 126 1010 l 267 1022 l 278 1017 l 278 86 m 107 -362 q 128 -203 110 -328 q 153 -69 146 -79 q 225 -87 169 -72 q 289 -110 281 -103 q 257 -187 283 -126 q 203 -307 231 -247 q 167 -385 175 -367 q 137 -378 156 -385 q 107 -362 118 -372 z "},"ŀ":{"ha":346,"x_min":24,"x_max":558,"o":"m 278 86 q 304 80 285 85 q 344 71 324 75 q 371 65 364 67 l 371 0 l 39 0 l 39 65 q 67 72 46 67 q 110 81 89 76 q 138 86 131 85 l 142 918 q 110 922 133 919 q 63 926 86 924 q 31 929 39 929 l 24 1000 q 51 1003 36 1001 q 81 1006 67 1004 q 111 1009 96 1008 q 139 1011 126 1010 l 267 1022 l 278 1017 l 278 86 m 350 536 q 398 590 350 542 q 451 638 446 638 q 484 614 458 638 q 534 565 510 590 q 558 536 558 540 q 510 478 558 526 q 451 429 461 429 q 422 454 447 429 q 373 504 396 479 q 350 536 350 529 z "},"ł":{"ha":390,"x_min":24,"x_max":392,"o":"m 278 86 q 304 80 285 85 q 344 71 324 75 q 371 65 364 67 l 371 0 l 39 0 l 39 65 q 67 72 46 67 q 110 81 89 76 q 138 86 131 85 l 140 439 l 33 339 l 26 344 l 26 433 l 140 542 l 142 918 q 110 922 133 919 q 63 926 86 924 q 31 929 39 929 l 24 1000 q 51 1003 36 1001 q 81 1006 67 1004 q 111 1009 96 1008 q 139 1011 126 1010 l 267 1022 l 278 1017 l 278 672 l 385 772 l 392 767 l 392 678 l 278 569 l 278 86 z "},"m":{"ha":1272,"x_min":32,"x_max":1244,"o":"m 579 410 q 547 512 579 476 q 456 547 514 547 q 343 521 396 547 q 288 482 308 503 l 288 86 q 312 80 294 85 q 348 71 329 75 q 374 65 367 67 l 374 0 l 49 0 l 49 65 q 77 72 56 67 q 119 81 99 76 q 147 86 140 85 l 153 542 q 120 544 144 542 q 73 548 96 546 q 42 550 50 550 l 32 619 q 60 624 46 622 q 90 628 75 626 q 119 632 104 631 q 147 635 135 633 l 276 650 l 288 644 l 288 531 q 314 565 299 549 q 406 634 350 607 q 531 661 461 661 q 671 603 624 661 q 708 528 697 572 q 738 565 721 547 q 832 634 775 607 q 960 661 889 661 q 1103 603 1056 661 q 1151 439 1151 544 l 1151 86 q 1178 80 1158 85 q 1217 71 1197 75 q 1244 65 1238 67 l 1244 0 l 924 0 l 924 65 q 949 72 931 67 q 985 81 968 76 q 1010 86 1003 85 l 1010 410 q 976 512 1010 476 q 885 547 943 547 q 769 521 824 547 q 717 485 738 503 q 719 439 719 463 l 719 86 q 744 80 726 85 q 780 71 761 75 q 804 65 799 67 l 804 0 l 493 0 l 493 65 q 519 72 500 67 q 555 81 538 76 q 579 86 572 85 l 579 410 z "},"n":{"ha":842,"x_min":32,"x_max":814,"o":"m 581 410 q 548 512 581 476 q 456 547 515 547 q 344 521 399 547 q 288 482 310 501 l 288 86 q 312 80 294 85 q 348 71 329 75 q 374 65 367 67 l 374 0 l 49 0 l 49 65 q 77 72 56 67 q 119 81 99 76 q 147 86 140 85 l 153 542 q 120 544 144 542 q 73 548 96 546 q 42 550 50 550 l 32 619 q 60 624 46 622 q 90 628 75 626 q 119 632 104 631 q 147 635 135 633 l 276 650 l 288 644 l 288 529 q 315 564 300 547 q 406 633 351 606 q 531 661 461 661 q 674 603 626 661 q 721 439 721 544 l 721 86 q 747 80 728 85 q 787 71 767 75 q 814 65 807 67 l 814 0 l 494 0 l 494 65 q 519 72 501 67 q 556 81 538 76 q 581 86 574 85 l 581 410 z "},"ń":{"ha":842,"x_min":32,"x_max":814,"o":"m 581 410 q 548 512 581 476 q 456 547 515 547 q 344 521 399 547 q 288 482 310 501 l 288 86 q 312 80 294 85 q 348 71 329 75 q 374 65 367 67 l 374 0 l 49 0 l 49 65 q 77 72 56 67 q 119 81 99 76 q 147 86 140 85 l 153 542 q 120 544 144 542 q 73 548 96 546 q 42 550 50 550 l 32 619 q 60 624 46 622 q 90 628 75 626 q 119 632 104 631 q 147 635 135 633 l 276 650 l 288 644 l 288 529 q 315 564 300 547 q 406 633 351 606 q 531 661 461 661 q 674 603 626 661 q 721 439 721 544 l 721 86 q 747 80 728 85 q 787 71 767 75 q 814 65 807 67 l 814 0 l 494 0 l 494 65 q 519 72 501 67 q 556 81 538 76 q 581 86 574 85 l 581 410 m 376 783 l 482 992 l 633 992 l 633 981 l 421 765 l 376 783 z "},"ň":{"ha":842,"x_min":32,"x_max":814,"o":"m 581 410 q 548 512 581 476 q 456 547 515 547 q 344 521 399 547 q 288 482 310 501 l 288 86 q 312 80 294 85 q 348 71 329 75 q 374 65 367 67 l 374 0 l 49 0 l 49 65 q 77 72 56 67 q 119 81 99 76 q 147 86 140 85 l 153 542 q 120 544 144 542 q 73 548 96 546 q 42 550 50 550 l 32 619 q 60 624 46 622 q 90 628 75 626 q 119 632 104 631 q 147 635 135 633 l 276 650 l 288 644 l 288 529 q 315 564 300 547 q 406 633 351 606 q 531 661 461 661 q 674 603 626 661 q 721 439 721 544 l 721 86 q 747 80 728 85 q 787 71 767 75 q 814 65 807 67 l 814 0 l 494 0 l 494 65 q 519 72 501 67 q 556 81 538 76 q 581 86 574 85 l 581 410 m 524 1004 l 582 975 l 444 765 l 393 765 l 260 975 l 314 1004 l 419 888 l 524 1004 z "},"ņ":{"ha":842,"x_min":32,"x_max":814,"o":"m 581 410 q 548 512 581 476 q 456 547 515 547 q 344 521 399 547 q 288 482 310 501 l 288 86 q 312 80 294 85 q 348 71 329 75 q 374 65 367 67 l 374 0 l 49 0 l 49 65 q 77 72 56 67 q 119 81 99 76 q 147 86 140 85 l 153 542 q 120 544 144 542 q 73 548 96 546 q 42 550 50 550 l 32 619 q 60 624 46 622 q 90 628 75 626 q 119 632 104 631 q 147 635 135 633 l 276 650 l 288 644 l 288 529 q 315 564 300 547 q 406 633 351 606 q 531 661 461 661 q 674 603 626 661 q 721 439 721 544 l 721 86 q 747 80 728 85 q 787 71 767 75 q 814 65 807 67 l 814 0 l 494 0 l 494 65 q 519 72 501 67 q 556 81 538 76 q 581 86 574 85 l 581 410 m 332 -362 q 353 -203 335 -328 q 378 -69 371 -79 q 449 -87 394 -72 q 514 -110 504 -103 q 481 -187 507 -126 q 428 -307 456 -247 q 392 -385 400 -367 q 362 -378 382 -385 q 332 -362 342 -372 z "},"ŋ":{"ha":822,"x_min":32,"x_max":719,"o":"m 581 410 q 549 513 581 479 q 456 547 517 547 q 346 525 400 547 q 288 493 310 510 l 288 86 q 315 80 294 85 q 356 71 335 75 q 383 65 376 67 l 383 0 l 49 0 l 49 65 q 77 72 56 67 q 119 81 99 76 q 147 86 140 85 l 153 542 q 120 544 144 542 q 73 548 96 546 q 42 550 50 550 l 32 619 q 60 624 46 622 q 90 628 75 626 q 119 632 104 631 q 147 635 135 633 l 276 650 l 288 644 l 288 531 q 315 565 300 549 q 408 634 353 607 q 531 661 463 661 q 672 605 625 661 q 719 439 719 549 l 719 -92 q 664 -243 719 -189 q 490 -297 611 -296 l 490 -297 q 489 -297 489 -297 q 488 -297 488 -297 q 408 -291 444 -297 q 344 -275 371 -285 l 339 -89 l 404 -89 q 422 -136 418 -124 q 451 -232 425 -146 q 492 -233 471 -233 q 558 -201 536 -233 q 581 -110 581 -168 l 581 410 z "},"ñ":{"ha":842,"x_min":32,"x_max":814,"o":"m 581 410 q 548 512 581 476 q 456 547 515 547 q 344 521 399 547 q 288 482 310 501 l 288 86 q 312 80 294 85 q 348 71 329 75 q 374 65 367 67 l 374 0 l 49 0 l 49 65 q 77 72 56 67 q 119 81 99 76 q 147 86 140 85 l 153 542 q 120 544 144 542 q 73 548 96 546 q 42 550 50 550 l 32 619 q 60 624 46 622 q 90 628 75 626 q 119 632 104 631 q 147 635 135 633 l 276 650 l 288 644 l 288 529 q 315 564 300 547 q 406 633 351 606 q 531 661 461 661 q 674 603 626 661 q 721 439 721 544 l 721 86 q 747 80 728 85 q 787 71 767 75 q 814 65 807 67 l 814 0 l 494 0 l 494 65 q 519 72 501 67 q 556 81 538 76 q 581 86 574 85 l 581 410 m 344 983 q 414 962 389 983 q 464 903 439 940 q 486 871 476 881 q 508 861 496 861 q 540 889 529 861 q 556 974 551 917 l 613 968 q 590 820 614 875 q 500 765 567 765 q 431 787 456 765 q 382 847 406 808 q 359 878 368 868 q 338 889 350 889 q 307 863 318 889 q 289 776 296 836 l 233 782 q 255 931 231 878 q 344 983 279 983 z "},"o":{"ha":785,"x_min":51,"x_max":733,"o":"m 385 -17 q 208 26 283 -17 q 92 145 132 68 q 51 322 51 222 q 94 497 51 419 q 216 617 136 574 q 400 661 296 661 q 577 619 501 661 q 693 499 653 576 q 733 322 733 422 q 691 148 733 225 q 569 27 649 71 q 385 -17 490 -17 m 404 65 q 537 128 489 65 q 585 299 585 192 q 558 442 585 378 q 485 543 531 507 q 382 579 439 579 q 247 516 296 579 q 199 346 199 453 q 226 201 199 265 q 300 101 253 138 q 404 65 347 65 z "},"ó":{"ha":785,"x_min":51,"x_max":733,"o":"m 385 -17 q 208 26 283 -17 q 92 145 132 68 q 51 322 51 222 q 94 497 51 419 q 216 617 136 574 q 400 661 296 661 q 577 619 501 661 q 693 499 653 576 q 733 322 733 422 q 691 148 733 225 q 569 27 649 71 q 385 -17 490 -17 m 404 65 q 537 128 489 65 q 585 299 585 192 q 558 442 585 378 q 485 543 531 507 q 382 579 439 579 q 247 516 296 579 q 199 346 199 453 q 226 201 199 265 q 300 101 253 138 q 404 65 347 65 m 347 783 l 451 992 l 603 992 l 603 981 l 392 765 l 347 783 z "},"ŏ":{"ha":785,"x_min":51,"x_max":733,"o":"m 385 -17 q 208 26 283 -17 q 92 145 132 68 q 51 322 51 222 q 94 497 51 419 q 216 617 136 574 q 400 661 296 661 q 577 619 501 661 q 693 499 653 576 q 733 322 733 422 q 691 148 733 225 q 569 27 649 71 q 385 -17 490 -17 m 404 65 q 537 128 489 65 q 585 299 585 192 q 558 442 585 378 q 485 543 531 507 q 382 579 439 579 q 247 516 296 579 q 199 346 199 453 q 226 201 199 265 q 300 101 253 138 q 404 65 347 65 m 547 979 q 504 824 543 882 q 393 765 465 765 q 281 824 319 765 q 238 979 242 882 l 292 986 q 328 897 304 925 q 393 868 353 868 q 458 897 433 868 q 494 986 482 925 l 547 979 z "},"ô":{"ha":785,"x_min":51,"x_max":733,"o":"m 385 -17 q 208 26 283 -17 q 92 145 132 68 q 51 322 51 222 q 94 497 51 419 q 216 617 136 574 q 400 661 296 661 q 577 619 501 661 q 693 499 653 576 q 733 322 733 422 q 691 148 733 225 q 569 27 649 71 q 385 -17 490 -17 m 404 65 q 537 128 489 65 q 585 299 585 192 q 558 442 585 378 q 485 543 531 507 q 382 579 439 579 q 247 516 296 579 q 199 346 199 453 q 226 201 199 265 q 300 101 253 138 q 404 65 347 65 m 493 757 l 389 874 l 283 757 l 229 785 l 363 996 l 414 996 l 553 785 l 493 757 z "},"ö":{"ha":785,"x_min":51,"x_max":733,"o":"m 385 -17 q 208 26 283 -17 q 92 145 132 68 q 51 322 51 222 q 94 497 51 419 q 216 617 136 574 q 400 661 296 661 q 577 619 501 661 q 693 499 653 576 q 733 322 733 422 q 691 148 733 225 q 569 27 649 71 q 385 -17 490 -17 m 404 65 q 537 128 489 65 q 585 299 585 192 q 558 442 585 378 q 485 543 531 507 q 382 579 439 579 q 247 516 296 579 q 199 346 199 453 q 226 201 199 265 q 300 101 253 138 q 404 65 347 65 m 196 856 q 239 908 196 863 q 286 953 282 953 q 337 908 294 953 q 379 856 379 863 q 336 805 379 850 q 286 760 293 760 q 240 806 283 760 q 196 856 197 851 m 408 856 q 449 908 407 863 q 494 953 490 953 q 547 908 503 953 q 592 856 592 863 q 547 805 592 850 q 494 760 501 760 q 450 805 492 760 q 408 856 408 850 z "},"ò":{"ha":785,"x_min":51,"x_max":733,"o":"m 385 -17 q 208 26 283 -17 q 92 145 132 68 q 51 322 51 222 q 94 497 51 419 q 216 617 136 574 q 400 661 296 661 q 577 619 501 661 q 693 499 653 576 q 733 322 733 422 q 691 148 733 225 q 569 27 649 71 q 385 -17 490 -17 m 404 65 q 537 128 489 65 q 585 299 585 192 q 558 442 585 378 q 485 543 531 507 q 382 579 439 579 q 247 516 296 579 q 199 346 199 453 q 226 201 199 265 q 300 101 253 138 q 404 65 347 65 m 439 783 l 394 765 l 182 981 l 182 992 l 333 992 l 439 783 z "},"ő":{"ha":785,"x_min":51,"x_max":733,"o":"m 385 -17 q 208 26 283 -17 q 92 145 132 68 q 51 322 51 222 q 94 497 51 419 q 216 617 136 574 q 400 661 296 661 q 577 619 501 661 q 693 499 653 576 q 733 322 733 422 q 691 148 733 225 q 569 27 649 71 q 385 -17 490 -17 m 404 65 q 537 128 489 65 q 585 299 585 192 q 558 442 585 378 q 485 543 531 507 q 382 579 439 579 q 247 516 296 579 q 199 346 199 453 q 226 201 199 265 q 300 101 253 138 q 404 65 347 65 m 238 783 l 319 992 l 460 992 l 460 981 l 282 765 l 238 783 m 451 783 l 556 992 l 700 992 l 700 981 l 496 765 l 451 783 z "},"ō":{"ha":785,"x_min":51,"x_max":733,"o":"m 385 -17 q 208 26 283 -17 q 92 145 132 68 q 51 322 51 222 q 94 497 51 419 q 216 617 136 574 q 400 661 296 661 q 577 619 501 661 q 693 499 653 576 q 733 322 733 422 q 691 148 733 225 q 569 27 649 71 q 385 -17 490 -17 m 404 65 q 537 128 489 65 q 585 299 585 192 q 558 442 585 378 q 485 543 531 507 q 382 579 439 579 q 247 516 296 579 q 199 346 199 453 q 226 201 199 265 q 300 101 253 138 q 404 65 347 65 m 228 885 l 557 885 l 557 800 l 228 800 l 228 885 z "},"ø":{"ha":785,"x_min":51,"x_max":733,"o":"m 139 0 l 54 0 l 133 86 q 92 146 110 113 q 51 322 51 222 q 94 497 51 419 q 216 617 136 574 q 400 661 296 661 q 576 618 501 661 q 607 599 593 610 l 650 644 l 733 644 l 653 557 q 693 499 676 531 q 733 322 733 422 q 691 148 733 225 q 569 27 649 71 q 385 -17 490 -17 q 207 26 283 -17 q 179 44 193 35 l 139 0 m 228 188 l 526 511 q 485 557 507 538 q 382 596 438 596 q 247 527 296 596 q 199 346 199 458 q 226 193 199 261 q 228 188 226 190 m 404 49 q 537 117 489 49 q 585 299 585 186 q 558 450 585 382 q 557 453 557 451 l 260 131 q 300 88 278 106 q 404 49 347 49 z "},"ǿ":{"ha":785,"x_min":51,"x_max":733,"o":"m 139 0 l 54 0 l 133 86 q 92 146 110 113 q 51 322 51 222 q 94 497 51 419 q 216 617 136 574 q 400 661 296 661 q 576 618 501 661 q 607 599 593 610 l 650 644 l 733 644 l 653 557 q 693 499 676 531 q 733 322 733 422 q 691 148 733 225 q 569 27 649 71 q 385 -17 490 -17 q 207 26 283 -17 q 179 44 193 35 l 139 0 m 228 188 l 526 511 q 485 557 507 538 q 382 596 438 596 q 247 527 296 596 q 199 346 199 458 q 226 193 199 261 q 228 188 226 190 m 404 49 q 537 117 489 49 q 585 299 585 186 q 558 450 585 382 q 557 453 557 451 l 260 131 q 300 88 278 106 q 404 49 347 49 m 347 783 l 451 992 l 603 992 l 603 981 l 392 765 l 347 783 z "},"õ":{"ha":785,"x_min":51,"x_max":733,"o":"m 385 -17 q 208 26 283 -17 q 92 145 132 68 q 51 322 51 222 q 94 497 51 419 q 216 617 136 574 q 400 661 296 661 q 577 619 501 661 q 693 499 653 576 q 733 322 733 422 q 691 148 733 225 q 569 27 649 71 q 385 -17 490 -17 m 404 65 q 537 128 489 65 q 585 299 585 192 q 558 442 585 378 q 485 543 531 507 q 382 579 439 579 q 247 516 296 579 q 199 346 199 453 q 226 201 199 265 q 300 101 253 138 q 404 65 347 65 m 315 983 q 385 962 360 983 q 433 903 410 940 q 456 871 447 881 q 478 861 465 861 q 510 889 499 861 q 526 974 521 917 l 582 968 q 560 820 585 875 q 471 765 536 765 q 400 787 425 765 q 351 847 375 808 q 328 878 338 868 q 307 889 319 889 q 276 863 288 889 q 260 776 265 836 l 203 782 q 224 931 200 878 q 315 983 249 983 z "},"œ":{"ha":1171,"x_min":51,"x_max":1146,"o":"m 368 -17 q 201 26 274 -17 q 90 146 129 69 q 51 322 51 222 q 92 496 51 418 q 208 617 133 574 q 381 661 283 661 q 540 618 472 661 q 636 518 600 579 q 733 617 675 578 q 888 661 804 661 q 1042 617 982 661 q 1124 500 1103 572 q 1131 347 1146 428 l 704 347 q 704 332 704 339 q 731 203 704 258 q 806 119 758 149 q 911 89 853 89 q 1010 111 964 89 q 1085 179 1057 133 l 1133 156 q 1083 65 1119 104 q 992 5 1046 26 q 878 -17 939 -17 q 722 22 788 -17 q 631 118 665 57 q 536 26 593 61 q 368 -17 464 -17 m 392 53 q 517 121 472 53 q 563 299 563 189 q 537 449 563 382 q 467 553 511 515 q 371 592 424 592 q 244 524 289 592 q 199 346 199 457 q 224 199 199 265 q 294 92 250 132 q 392 53 339 53 m 713 418 l 988 418 q 985 475 990 447 q 946 552 975 522 q 874 582 917 582 q 749 511 794 582 q 713 418 724 471 z "},"p":{"ha":833,"x_min":24,"x_max":782,"o":"m 276 -187 q 316 -194 286 -189 q 377 -203 346 -199 q 418 -208 408 -207 l 418 -278 l 38 -278 l 38 -212 q 66 -206 44 -211 q 108 -197 88 -201 q 136 -192 129 -193 l 139 551 q 106 557 131 553 q 59 564 82 561 q 28 568 36 567 l 24 639 q 52 640 38 640 q 82 642 67 640 q 112 644 97 643 q 140 644 126 644 l 265 650 l 276 644 l 276 507 q 289 538 281 522 q 370 628 315 594 q 501 661 425 661 q 647 621 583 661 q 747 506 711 581 q 782 332 782 432 q 738 153 782 232 q 615 28 694 74 q 432 -17 535 -17 q 333 -4 382 -17 q 276 17 303 4 l 276 -187 m 449 560 q 366 535 406 560 q 301 466 326 511 q 276 364 276 421 l 276 143 q 339 88 303 108 q 439 60 386 60 q 583 126 533 60 q 633 300 633 193 q 611 434 633 375 q 547 526 589 493 q 449 560 506 560 z "},"þ":{"ha":801,"x_min":-8,"x_max":751,"o":"m 246 -187 q 287 -194 257 -189 q 347 -203 317 -199 q 388 -208 378 -207 l 388 -278 l 7 -278 l 7 -212 q 37 -206 15 -211 q 78 -197 58 -201 q 107 -192 99 -193 l 107 0 l 111 918 q 78 922 103 919 q 31 926 54 924 q -1 929 7 929 l -8 1000 q 20 1003 6 1001 q 50 1006 35 1004 q 80 1009 65 1008 q 107 1011 94 1010 l 235 1022 l 246 1017 l 246 503 q 260 538 251 521 q 342 628 288 594 q 471 661 396 661 q 617 621 554 661 q 716 507 681 581 q 751 332 751 433 q 708 153 751 232 q 586 28 665 74 q 401 -17 507 -17 q 303 -4 351 -17 q 246 15 272 3 l 246 -187 m 417 568 q 333 547 372 568 q 270 481 294 525 q 246 378 246 438 l 246 140 q 311 82 274 104 q 408 53 358 53 q 553 122 503 53 q 603 304 603 192 q 581 441 603 382 q 516 534 558 500 q 417 568 474 568 z "},"q":{"ha":781,"x_min":51,"x_max":785,"o":"m 340 -17 q 188 24 253 -17 q 87 140 122 65 q 51 317 51 215 q 93 496 51 418 q 214 617 135 574 q 401 661 293 661 q 522 643 463 661 q 611 606 571 629 l 685 650 l 697 644 l 697 -187 q 723 -194 704 -189 q 760 -203 742 -199 q 785 -208 778 -207 l 785 -278 l 413 -278 l 413 -212 q 453 -206 422 -211 q 515 -197 485 -201 q 556 -192 546 -193 l 556 133 q 544 107 551 119 q 465 17 518 50 q 340 -17 413 -17 m 386 85 q 467 108 429 85 q 531 174 506 131 q 556 278 556 218 l 556 511 q 492 561 528 543 q 393 585 444 585 q 249 519 300 585 q 199 349 199 453 q 222 211 199 271 q 287 118 244 151 q 386 85 329 85 z "},"r":{"ha":521,"x_min":32,"x_max":503,"o":"m 286 86 q 324 80 296 85 q 381 71 353 75 q 419 65 410 67 l 419 0 l 47 0 l 47 65 q 77 72 56 67 q 119 81 99 76 q 147 86 139 85 l 151 551 q 119 555 143 553 q 71 560 94 557 q 39 563 47 563 l 32 633 q 60 636 46 635 q 90 639 75 638 q 120 642 106 642 q 149 644 135 643 l 275 656 l 286 650 l 286 526 q 303 558 293 542 q 367 633 328 604 q 457 661 406 661 q 503 656 479 661 l 490 501 q 457 512 476 508 q 424 515 438 515 q 326 492 368 515 q 286 463 301 478 l 286 86 z "},"ŕ":{"ha":521,"x_min":32,"x_max":503,"o":"m 286 86 q 324 80 296 85 q 381 71 353 75 q 419 65 410 67 l 419 0 l 47 0 l 47 65 q 77 72 56 67 q 119 81 99 76 q 147 86 139 85 l 151 551 q 119 555 143 553 q 71 560 94 557 q 39 563 47 563 l 32 633 q 60 636 46 635 q 90 639 75 638 q 120 642 106 642 q 149 644 135 643 l 275 656 l 286 650 l 286 526 q 303 558 293 542 q 367 633 328 604 q 457 661 406 661 q 503 656 479 661 l 490 501 q 457 512 476 508 q 424 515 438 515 q 326 492 368 515 q 286 463 301 478 l 286 86 m 221 783 l 325 992 l 476 992 l 476 981 l 265 765 l 221 783 z "},"ř":{"ha":521,"x_min":32,"x_max":503,"o":"m 286 86 q 324 80 296 85 q 381 71 353 75 q 419 65 410 67 l 419 0 l 47 0 l 47 65 q 77 72 56 67 q 119 81 99 76 q 147 86 139 85 l 151 551 q 119 555 143 553 q 71 560 94 557 q 39 563 47 563 l 32 633 q 60 636 46 635 q 90 639 75 638 q 120 642 106 642 q 149 644 135 643 l 275 656 l 286 650 l 286 526 q 303 558 293 542 q 367 633 328 604 q 457 661 406 661 q 503 656 479 661 l 490 501 q 457 512 476 508 q 424 515 438 515 q 326 492 368 515 q 286 463 301 478 l 286 86 m 367 1004 l 426 975 l 288 765 l 236 765 l 103 975 l 157 1004 l 263 888 l 367 1004 z "},"ŗ":{"ha":521,"x_min":32,"x_max":503,"o":"m 286 86 q 324 80 296 85 q 381 71 353 75 q 419 65 410 67 l 419 0 l 47 0 l 47 65 q 77 72 56 67 q 119 81 99 76 q 147 86 139 85 l 151 551 q 119 555 143 553 q 71 560 94 557 q 39 563 47 563 l 32 633 q 60 636 46 635 q 90 639 75 638 q 120 642 106 642 q 149 644 135 643 l 275 656 l 286 650 l 286 526 q 303 558 293 542 q 367 633 328 604 q 457 661 406 661 q 503 656 479 661 l 490 501 q 457 512 476 508 q 424 515 438 515 q 326 492 368 515 q 286 463 301 478 l 286 86 m 175 -362 q 196 -203 178 -328 q 221 -69 214 -79 q 293 -87 238 -72 q 357 -110 349 -103 q 325 -187 351 -126 q 271 -307 299 -247 q 235 -385 243 -367 q 205 -378 224 -385 q 175 -362 186 -372 z "},"s":{"ha":536,"x_min":53,"x_max":490,"o":"m 225 -17 q 136 -10 178 -17 q 58 6 94 -4 l 53 190 l 118 190 q 133 147 125 169 q 150 101 142 124 q 157 81 153 90 q 163 64 161 72 q 308 70 257 49 q 360 151 360 92 q 344 206 360 185 q 304 240 328 226 q 238 272 281 254 q 143 318 179 296 q 81 381 107 340 q 56 489 56 422 q 115 616 56 571 q 299 661 175 661 q 380 655 340 661 q 451 639 419 649 l 457 454 l 393 454 q 385 478 389 467 q 378 500 381 489 q 366 536 372 517 q 351 581 360 556 q 235 576 285 593 q 186 513 186 558 q 203 459 186 481 q 244 424 219 438 q 313 393 269 411 q 405 349 369 371 q 465 289 440 328 q 490 189 490 250 q 421 38 490 93 q 225 -17 351 -17 z "},"ś":{"ha":536,"x_min":53,"x_max":490,"o":"m 225 -17 q 136 -10 178 -17 q 58 6 94 -4 l 53 190 l 118 190 q 133 147 125 169 q 150 101 142 124 q 157 81 153 90 q 163 64 161 72 q 308 70 257 49 q 360 151 360 92 q 344 206 360 185 q 304 240 328 226 q 238 272 281 254 q 143 318 179 296 q 81 381 107 340 q 56 489 56 422 q 115 616 56 571 q 299 661 175 661 q 380 655 340 661 q 451 639 419 649 l 457 454 l 393 454 q 385 478 389 467 q 378 500 381 489 q 366 536 372 517 q 351 581 360 556 q 235 576 285 593 q 186 513 186 558 q 203 459 186 481 q 244 424 219 438 q 313 393 269 411 q 405 349 369 371 q 465 289 440 328 q 490 189 490 250 q 421 38 490 93 q 225 -17 351 -17 m 222 783 l 328 992 l 479 992 l 479 981 l 267 765 l 222 783 z "},"š":{"ha":536,"x_min":53,"x_max":490,"o":"m 225 -17 q 136 -10 178 -17 q 58 6 94 -4 l 53 190 l 118 190 q 133 147 125 169 q 150 101 142 124 q 157 81 153 90 q 163 64 161 72 q 308 70 257 49 q 360 151 360 92 q 344 206 360 185 q 304 240 328 226 q 238 272 281 254 q 143 318 179 296 q 81 381 107 340 q 56 489 56 422 q 115 616 56 571 q 299 661 175 661 q 380 655 340 661 q 451 639 419 649 l 457 454 l 393 454 q 385 478 389 467 q 378 500 381 489 q 366 536 372 517 q 351 581 360 556 q 235 576 285 593 q 186 513 186 558 q 203 459 186 481 q 244 424 219 438 q 313 393 269 411 q 405 349 369 371 q 465 289 440 328 q 490 189 490 250 q 421 38 490 93 q 225 -17 351 -17 m 368 1004 l 428 975 l 289 765 l 238 765 l 106 975 l 158 1004 l 265 888 l 368 1004 z "},"ş":{"ha":536,"x_min":53,"x_max":490,"o":"m 221 -294 q 138 -283 176 -294 l 149 -228 q 210 -244 182 -244 q 247 -233 232 -244 q 261 -199 261 -221 q 244 -165 261 -179 q 193 -146 228 -151 l 221 -17 q 136 -10 176 -17 q 58 6 94 -4 l 53 190 l 118 190 q 133 147 125 169 q 150 101 142 124 q 157 81 153 90 q 163 64 161 72 q 308 70 257 49 q 360 151 360 92 q 344 206 360 185 q 304 240 328 226 q 238 272 281 254 q 143 318 179 296 q 81 381 107 340 q 56 489 56 422 q 115 616 56 571 q 299 661 175 661 q 380 655 340 661 q 451 639 419 649 l 457 454 l 393 454 q 385 478 389 467 q 378 500 381 489 q 366 536 372 517 q 351 581 360 556 q 235 576 285 593 q 186 513 186 558 q 203 459 186 481 q 244 424 219 438 q 313 393 269 411 q 405 349 369 371 q 465 289 440 328 q 490 189 490 250 q 421 38 490 93 q 286 -14 369 -3 l 275 -76 q 346 -117 319 -90 q 374 -185 374 -144 q 328 -265 374 -236 q 221 -294 283 -294 z "},"ŝ":{"ha":536,"x_min":53,"x_max":490,"o":"m 225 -17 q 136 -10 178 -17 q 58 6 94 -4 l 53 190 l 118 190 q 133 147 125 169 q 150 101 142 124 q 157 81 153 90 q 163 64 161 72 q 308 70 257 49 q 360 151 360 92 q 344 206 360 185 q 304 240 328 226 q 238 272 281 254 q 143 318 179 296 q 81 381 107 340 q 56 489 56 422 q 115 616 56 571 q 299 661 175 661 q 380 655 340 661 q 451 639 419 649 l 457 454 l 393 454 q 385 478 389 467 q 378 500 381 489 q 366 536 372 517 q 351 581 360 556 q 235 576 285 593 q 186 513 186 558 q 203 459 186 481 q 244 424 219 438 q 313 393 269 411 q 405 349 369 371 q 465 289 440 328 q 490 189 490 250 q 421 38 490 93 q 225 -17 351 -17 m 368 757 l 265 874 l 158 757 l 106 785 l 238 996 l 289 996 l 428 785 l 368 757 z "},"ș":{"ha":536,"x_min":53,"x_max":490,"o":"m 225 -17 q 136 -10 178 -17 q 58 6 94 -4 l 53 190 l 118 190 q 133 147 125 169 q 150 101 142 124 q 157 81 153 90 q 163 64 161 72 q 308 70 257 49 q 360 151 360 92 q 344 206 360 185 q 304 240 328 226 q 238 272 281 254 q 143 318 179 296 q 81 381 107 340 q 56 489 56 422 q 115 616 56 571 q 299 661 175 661 q 380 655 340 661 q 451 639 419 649 l 457 454 l 393 454 q 385 478 389 467 q 378 500 381 489 q 366 536 372 517 q 351 581 360 556 q 235 576 285 593 q 186 513 186 558 q 203 459 186 481 q 244 424 219 438 q 313 393 269 411 q 405 349 369 371 q 465 289 440 328 q 490 189 490 250 q 421 38 490 93 q 225 -17 351 -17 m 167 -362 q 189 -203 171 -328 q 214 -69 207 -79 q 285 -87 231 -72 q 349 -110 340 -103 q 317 -187 343 -126 q 263 -307 290 -247 q 226 -385 236 -367 q 197 -378 217 -385 q 167 -362 178 -372 z "},"ß":{"ha":804,"x_min":36,"x_max":758,"o":"m 525 713 q 532 829 536 778 q 490 933 524 897 q 399 969 456 969 q 307 934 336 969 q 278 838 278 899 l 278 86 q 290 80 281 85 q 308 71 299 75 q 319 65 317 67 l 319 0 l 40 0 l 40 65 q 69 72 47 67 q 110 81 90 76 q 139 86 131 85 l 139 557 l 36 557 l 36 619 q 52 622 44 621 q 68 626 60 624 q 139 644 108 636 l 139 819 q 160 925 139 879 q 239 999 181 971 q 403 1028 297 1028 q 564 990 497 1028 q 655 872 631 951 q 649 676 679 793 q 535 640 576 665 q 494 575 494 615 q 517 518 494 542 q 592 461 540 494 q 677 399 644 428 q 734 322 710 369 q 758 206 758 274 q 697 42 758 97 q 528 -14 636 -14 q 451 -8 488 -14 q 389 6 415 -3 l 389 7 q 385 8 388 7 l 382 196 l 443 196 q 446 185 444 190 q 449 176 447 181 q 472 100 461 136 q 485 64 478 82 q 493 64 489 64 q 529 63 511 63 q 595 89 569 63 q 621 167 621 115 q 606 238 621 208 q 570 288 592 268 q 510 336 549 308 q 445 389 469 365 q 404 449 421 413 q 388 535 388 485 q 413 632 388 593 q 490 697 439 671 q 525 713 507 704 z "},"t":{"ha":489,"x_min":13,"x_max":486,"o":"m 13 619 q 135 692 76 647 q 238 790 194 738 l 268 785 l 268 644 l 486 644 l 486 633 l 471 567 l 268 567 l 268 175 q 292 101 268 124 q 364 78 317 78 q 463 89 411 78 l 475 47 q 399 0 449 17 q 288 -17 350 -17 q 163 28 196 -17 q 129 161 129 74 l 129 567 l 13 567 l 13 619 z "},"ŧ":{"ha":489,"x_min":13,"x_max":486,"o":"m 13 619 q 135 692 76 647 q 238 790 194 738 l 268 785 l 268 644 l 486 644 l 486 633 l 471 567 l 268 567 l 268 360 l 475 360 l 475 288 l 268 288 l 268 175 q 292 101 268 124 q 364 78 317 78 q 463 89 411 78 l 475 47 q 399 0 449 17 q 288 -17 350 -17 q 163 28 196 -17 q 129 161 129 74 l 129 288 l 36 288 l 36 360 l 129 360 l 129 567 l 13 567 l 13 619 z "},"ť":{"ha":489,"x_min":13,"x_max":592,"o":"m 13 619 q 135 692 76 647 q 238 790 194 738 l 268 785 l 268 644 l 486 644 l 486 633 l 471 567 l 268 567 l 268 175 q 292 101 268 124 q 364 78 317 78 q 463 89 411 78 l 475 47 q 399 0 449 17 q 288 -17 350 -17 q 163 28 196 -17 q 129 161 129 74 l 129 567 l 13 567 l 13 619 m 410 760 q 431 919 413 794 q 456 1053 449 1043 q 528 1035 472 1050 q 592 1014 583 1021 q 560 935 586 996 q 506 815 533 875 q 469 739 478 756 q 440 745 458 739 q 410 760 421 751 z "},"ţ":{"ha":489,"x_min":13,"x_max":486,"o":"m 13 619 q 135 692 76 647 q 238 790 194 738 l 268 785 l 268 644 l 486 644 l 486 633 l 471 567 l 268 567 l 268 175 q 292 101 268 124 q 364 78 317 78 q 463 89 411 78 l 475 47 q 399 0 449 17 q 288 -17 350 -17 q 269 -17 278 -17 l 258 -76 q 329 -117 304 -90 q 357 -185 357 -144 q 312 -265 357 -236 q 204 -294 267 -294 q 122 -283 160 -294 l 133 -228 q 194 -244 167 -244 q 231 -233 217 -244 q 244 -199 244 -221 q 228 -165 244 -179 q 178 -146 211 -151 l 207 -4 q 163 29 178 7 q 129 161 129 74 l 129 567 l 13 567 l 13 619 z "},"ț":{"ha":489,"x_min":13,"x_max":486,"o":"m 13 619 q 135 692 76 647 q 238 790 194 738 l 268 785 l 268 644 l 486 644 l 486 633 l 471 567 l 268 567 l 268 175 q 292 101 268 124 q 364 78 317 78 q 463 89 411 78 l 475 47 q 399 0 449 17 q 288 -17 350 -17 q 163 28 196 -17 q 129 161 129 74 l 129 567 l 13 567 l 13 619 m 151 -362 q 172 -203 154 -328 q 197 -69 190 -79 q 269 -87 214 -72 q 333 -110 324 -103 q 301 -187 326 -126 q 247 -307 275 -247 q 211 -385 219 -367 q 181 -378 201 -385 q 151 -362 161 -372 z "},"u":{"ha":810,"x_min":17,"x_max":789,"o":"m 260 235 q 292 131 260 165 q 381 97 324 97 q 490 124 440 97 q 544 163 524 142 l 546 557 q 517 563 539 558 q 474 569 496 567 q 446 574 453 572 l 442 644 q 467 647 454 646 q 494 647 481 647 q 522 649 508 649 q 547 650 536 650 l 672 656 l 683 650 l 678 104 q 707 101 685 103 q 751 99 729 100 q 779 97 772 97 l 789 28 q 765 24 778 25 q 738 19 751 22 q 710 16 724 18 q 686 13 697 14 l 556 -6 l 544 0 l 544 113 q 524 85 535 99 q 435 13 489 43 q 308 -17 381 -17 q 168 38 215 -17 q 121 206 121 93 l 125 551 q 95 556 117 553 q 52 560 74 558 q 24 564 31 563 l 17 635 q 40 636 28 635 q 67 639 53 638 q 94 642 81 642 q 121 644 108 643 l 249 656 l 260 650 l 260 235 z "},"ú":{"ha":810,"x_min":17,"x_max":789,"o":"m 260 235 q 292 131 260 165 q 381 97 324 97 q 490 124 440 97 q 544 163 524 142 l 546 557 q 517 563 539 558 q 474 569 496 567 q 446 574 453 572 l 442 644 q 467 647 454 646 q 494 647 481 647 q 522 649 508 649 q 547 650 536 650 l 672 656 l 683 650 l 678 104 q 707 101 685 103 q 751 99 729 100 q 779 97 772 97 l 789 28 q 765 24 778 25 q 738 19 751 22 q 710 16 724 18 q 686 13 697 14 l 556 -6 l 544 0 l 544 113 q 524 85 535 99 q 435 13 489 43 q 308 -17 381 -17 q 168 38 215 -17 q 121 206 121 93 l 125 551 q 95 556 117 553 q 52 560 74 558 q 24 564 31 563 l 17 635 q 40 636 28 635 q 67 639 53 638 q 94 642 81 642 q 121 644 108 643 l 249 656 l 260 650 l 260 235 m 363 783 l 468 992 l 619 992 l 619 981 l 407 765 l 363 783 z "},"ŭ":{"ha":810,"x_min":17,"x_max":789,"o":"m 260 235 q 292 131 260 165 q 381 97 324 97 q 490 124 440 97 q 544 163 524 142 l 546 557 q 517 563 539 558 q 474 569 496 567 q 446 574 453 572 l 442 644 q 467 647 454 646 q 494 647 481 647 q 522 649 508 649 q 547 650 536 650 l 672 656 l 683 650 l 678 104 q 707 101 685 103 q 751 99 729 100 q 779 97 772 97 l 789 28 q 765 24 778 25 q 738 19 751 22 q 710 16 724 18 q 686 13 697 14 l 556 -6 l 544 0 l 544 113 q 524 85 535 99 q 435 13 489 43 q 308 -17 381 -17 q 168 38 215 -17 q 121 206 121 93 l 125 551 q 95 556 117 553 q 52 560 74 558 q 24 564 31 563 l 17 635 q 40 636 28 635 q 67 639 53 638 q 94 642 81 642 q 121 644 108 643 l 249 656 l 260 650 l 260 235 m 564 979 q 521 824 560 882 q 409 765 482 765 q 297 824 336 765 q 254 979 258 882 l 307 986 q 344 897 319 925 q 408 868 368 868 q 474 897 450 868 q 510 986 499 925 l 564 979 z "},"ǔ":{"ha":810,"x_min":17,"x_max":789,"o":"m 260 235 q 292 131 260 165 q 381 97 324 97 q 490 124 440 97 q 544 163 524 142 l 546 557 q 517 563 539 558 q 474 569 496 567 q 446 574 453 572 l 442 644 q 467 647 454 646 q 494 647 481 647 q 522 649 508 649 q 547 650 536 650 l 672 656 l 683 650 l 678 104 q 707 101 685 103 q 751 99 729 100 q 779 97 772 97 l 789 28 q 765 24 778 25 q 738 19 751 22 q 710 16 724 18 q 686 13 697 14 l 556 -6 l 544 0 l 544 113 q 524 85 535 99 q 435 13 489 43 q 308 -17 381 -17 q 168 38 215 -17 q 121 206 121 93 l 125 551 q 95 556 117 553 q 52 560 74 558 q 24 564 31 563 l 17 635 q 40 636 28 635 q 67 639 53 638 q 94 642 81 642 q 121 644 108 643 l 249 656 l 260 650 l 260 235 m 510 1004 l 568 975 l 431 765 l 379 765 l 246 975 l 300 1004 l 406 888 l 510 1004 z "},"û":{"ha":810,"x_min":17,"x_max":789,"o":"m 260 235 q 292 131 260 165 q 381 97 324 97 q 490 124 440 97 q 544 163 524 142 l 546 557 q 517 563 539 558 q 474 569 496 567 q 446 574 453 572 l 442 644 q 467 647 454 646 q 494 647 481 647 q 522 649 508 649 q 547 650 536 650 l 672 656 l 683 650 l 678 104 q 707 101 685 103 q 751 99 729 100 q 779 97 772 97 l 789 28 q 765 24 778 25 q 738 19 751 22 q 710 16 724 18 q 686 13 697 14 l 556 -6 l 544 0 l 544 113 q 524 85 535 99 q 435 13 489 43 q 308 -17 381 -17 q 168 38 215 -17 q 121 206 121 93 l 125 551 q 95 556 117 553 q 52 560 74 558 q 24 564 31 563 l 17 635 q 40 636 28 635 q 67 639 53 638 q 94 642 81 642 q 121 644 108 643 l 249 656 l 260 650 l 260 235 m 510 757 l 406 874 l 300 757 l 246 785 l 379 996 l 431 996 l 568 785 l 510 757 z "},"ü":{"ha":810,"x_min":17,"x_max":789,"o":"m 260 235 q 292 131 260 165 q 381 97 324 97 q 490 124 440 97 q 544 163 524 142 l 546 557 q 517 563 539 558 q 474 569 496 567 q 446 574 453 572 l 442 644 q 467 647 454 646 q 494 647 481 647 q 522 649 508 649 q 547 650 536 650 l 672 656 l 683 650 l 678 104 q 707 101 685 103 q 751 99 729 100 q 779 97 772 97 l 789 28 q 765 24 778 25 q 738 19 751 22 q 710 16 724 18 q 686 13 697 14 l 556 -6 l 544 0 l 544 113 q 524 85 535 99 q 435 13 489 43 q 308 -17 381 -17 q 168 38 215 -17 q 121 206 121 93 l 125 551 q 95 556 117 553 q 52 560 74 558 q 24 564 31 563 l 17 635 q 40 636 28 635 q 67 639 53 638 q 94 642 81 642 q 121 644 108 643 l 249 656 l 260 650 l 260 235 m 424 856 q 465 908 424 863 q 510 953 507 953 q 563 908 518 953 q 607 856 607 863 q 563 805 607 850 q 510 760 518 760 q 466 805 507 760 q 424 856 425 850 m 213 856 q 255 908 211 863 q 301 953 299 953 q 353 908 311 953 q 396 856 396 863 q 353 805 396 850 q 301 760 310 760 q 256 806 299 760 q 213 856 213 851 z "},"ù":{"ha":810,"x_min":17,"x_max":789,"o":"m 260 235 q 292 131 260 165 q 381 97 324 97 q 490 124 440 97 q 544 163 524 142 l 546 557 q 517 563 539 558 q 474 569 496 567 q 446 574 453 572 l 442 644 q 467 647 454 646 q 494 647 481 647 q 522 649 508 649 q 547 650 536 650 l 672 656 l 683 650 l 678 104 q 707 101 685 103 q 751 99 729 100 q 779 97 772 97 l 789 28 q 765 24 778 25 q 738 19 751 22 q 710 16 724 18 q 686 13 697 14 l 556 -6 l 544 0 l 544 113 q 524 85 535 99 q 435 13 489 43 q 308 -17 381 -17 q 168 38 215 -17 q 121 206 121 93 l 125 551 q 95 556 117 553 q 52 560 74 558 q 24 564 31 563 l 17 635 q 40 636 28 635 q 67 639 53 638 q 94 642 81 642 q 121 644 108 643 l 249 656 l 260 650 l 260 235 m 454 783 l 410 765 l 199 981 l 199 992 l 350 992 l 454 783 z "},"ű":{"ha":810,"x_min":17,"x_max":789,"o":"m 260 235 q 292 131 260 165 q 381 97 324 97 q 490 124 440 97 q 544 163 524 142 l 546 557 q 517 563 539 558 q 474 569 496 567 q 446 574 453 572 l 442 644 q 467 647 454 646 q 494 647 481 647 q 522 649 508 649 q 547 650 536 650 l 672 656 l 683 650 l 678 104 q 707 101 685 103 q 751 99 729 100 q 779 97 772 97 l 789 28 q 765 24 778 25 q 738 19 751 22 q 710 16 724 18 q 686 13 697 14 l 556 -6 l 544 0 l 544 113 q 524 85 535 99 q 435 13 489 43 q 308 -17 381 -17 q 168 38 215 -17 q 121 206 121 93 l 125 551 q 95 556 117 553 q 52 560 74 558 q 24 564 31 563 l 17 635 q 40 636 28 635 q 67 639 53 638 q 94 642 81 642 q 121 644 108 643 l 249 656 l 260 650 l 260 235 m 468 783 l 572 992 l 717 992 l 717 981 l 513 765 l 468 783 m 254 783 l 336 992 l 475 992 l 475 981 l 299 765 l 254 783 z "},"ū":{"ha":810,"x_min":17,"x_max":789,"o":"m 260 235 q 292 131 260 165 q 381 97 324 97 q 490 124 440 97 q 544 163 524 142 l 546 557 q 517 563 539 558 q 474 569 496 567 q 446 574 453 572 l 442 644 q 467 647 454 646 q 494 647 481 647 q 522 649 508 649 q 547 650 536 650 l 672 656 l 683 650 l 678 104 q 707 101 685 103 q 751 99 729 100 q 779 97 772 97 l 789 28 q 765 24 778 25 q 738 19 751 22 q 710 16 724 18 q 686 13 697 14 l 556 -6 l 544 0 l 544 113 q 524 85 535 99 q 435 13 489 43 q 308 -17 381 -17 q 168 38 215 -17 q 121 206 121 93 l 125 551 q 95 556 117 553 q 52 560 74 558 q 24 564 31 563 l 17 635 q 40 636 28 635 q 67 639 53 638 q 94 642 81 642 q 121 644 108 643 l 249 656 l 260 650 l 260 235 m 244 885 l 574 885 l 574 800 l 244 800 l 244 885 z "},"ų":{"ha":810,"x_min":17,"x_max":806,"o":"m 260 235 q 292 131 260 165 q 381 97 324 97 q 490 124 440 97 q 544 163 524 142 l 546 557 q 517 563 539 558 q 474 569 496 567 q 446 574 453 572 l 442 644 q 467 647 454 646 q 494 647 481 647 q 522 649 508 649 q 547 650 536 650 l 672 656 l 683 650 l 678 104 q 707 101 685 103 q 751 99 729 100 q 779 97 772 97 l 789 28 q 785 24 788 25 q 781 19 783 22 q 713 -58 738 -22 q 689 -132 689 -94 q 707 -174 689 -160 q 754 -187 725 -187 q 781 -184 768 -187 q 806 -176 794 -181 l 806 -232 q 760 -253 785 -246 q 704 -261 735 -261 q 610 -233 646 -261 q 575 -156 575 -206 q 629 -43 575 -103 q 689 13 658 -12 q 686 13 688 13 l 556 -6 l 544 0 l 544 113 q 524 85 535 99 q 435 13 489 43 q 308 -17 381 -17 q 168 38 215 -17 q 121 206 121 93 l 125 551 q 95 556 117 553 q 52 560 74 558 q 24 564 31 563 l 17 635 q 40 636 28 635 q 67 639 53 638 q 94 642 81 642 q 121 644 108 643 l 249 656 l 260 650 l 260 235 z "},"ů":{"ha":810,"x_min":17,"x_max":789,"o":"m 260 235 q 292 131 260 165 q 381 97 324 97 q 490 124 440 97 q 544 163 524 142 l 546 557 q 517 563 539 558 q 474 569 496 567 q 446 574 453 572 l 442 644 q 467 647 454 646 q 494 647 481 647 q 522 649 508 649 q 547 650 536 650 l 672 656 l 683 650 l 678 104 q 707 101 685 103 q 751 99 729 100 q 779 97 772 97 l 789 28 q 765 24 778 25 q 738 19 751 22 q 710 16 724 18 q 686 13 697 14 l 556 -6 l 544 0 l 544 113 q 524 85 535 99 q 435 13 489 43 q 308 -17 381 -17 q 168 38 215 -17 q 121 206 121 93 l 125 551 q 95 556 117 553 q 52 560 74 558 q 24 564 31 563 l 17 635 q 40 636 28 635 q 67 639 53 638 q 94 642 81 642 q 121 644 108 643 l 249 656 l 260 650 l 260 235 m 408 744 q 307 782 347 744 q 267 882 267 819 q 307 982 267 944 q 409 1019 347 1019 q 510 982 471 1019 q 550 882 550 944 q 510 782 550 819 q 408 744 471 744 m 408 814 q 456 833 438 814 q 474 882 474 851 q 456 931 474 913 q 409 950 438 950 q 362 931 381 950 q 343 882 343 913 q 362 833 343 851 q 408 814 381 814 z "},"ũ":{"ha":810,"x_min":17,"x_max":789,"o":"m 260 235 q 292 131 260 165 q 381 97 324 97 q 490 124 440 97 q 544 163 524 142 l 546 557 q 517 563 539 558 q 474 569 496 567 q 446 574 453 572 l 442 644 q 467 647 454 646 q 494 647 481 647 q 522 649 508 649 q 547 650 536 650 l 672 656 l 683 650 l 678 104 q 707 101 685 103 q 751 99 729 100 q 779 97 772 97 l 789 28 q 765 24 778 25 q 738 19 751 22 q 710 16 724 18 q 686 13 697 14 l 556 -6 l 544 0 l 544 113 q 524 85 535 99 q 435 13 489 43 q 308 -17 381 -17 q 168 38 215 -17 q 121 206 121 93 l 125 551 q 95 556 117 553 q 52 560 74 558 q 24 564 31 563 l 17 635 q 40 636 28 635 q 67 639 53 638 q 94 642 81 642 q 121 644 108 643 l 249 656 l 260 650 l 260 235 m 331 983 q 400 962 375 983 q 450 903 425 940 q 472 871 463 881 q 494 861 482 861 q 526 889 515 861 q 542 974 538 917 l 599 968 q 576 820 600 875 q 486 765 553 765 q 417 787 442 765 q 368 847 392 808 q 345 878 354 868 q 324 889 336 889 q 293 863 304 889 q 275 776 282 836 l 219 782 q 241 931 217 878 q 331 983 265 983 z "},"v":{"ha":697,"x_min":-1,"x_max":685,"o":"m 664 644 l 685 644 l 685 574 q 684 573 685 574 q 682 572 683 572 q 657 564 672 569 q 625 551 642 558 l 385 -11 l 333 -11 q 287 104 311 49 q 235 222 263 160 l 60 551 q 29 563 50 556 q -1 574 8 571 l -1 644 l 300 644 l 300 574 q 278 567 294 572 q 247 557 263 561 q 226 551 232 553 l 315 356 q 320 346 318 351 q 325 335 322 340 q 365 253 344 290 q 396 203 381 226 l 531 551 q 507 558 525 553 l 472 568 q 449 574 454 572 l 449 644 l 664 644 z "},"w":{"ha":1043,"x_min":6,"x_max":1026,"o":"m 526 413 l 367 -11 l 315 -11 q 297 41 307 15 q 275 93 286 67 q 257 138 265 117 q 240 181 249 160 l 64 551 q 35 563 54 556 q 6 574 15 571 l 6 644 l 290 644 l 290 574 q 272 567 286 572 q 244 558 257 563 q 226 551 232 553 l 318 322 q 368 211 344 254 l 476 517 l 461 551 q 450 563 458 556 q 439 574 442 571 l 439 644 l 665 644 l 665 574 q 640 563 653 568 q 618 554 628 558 q 614 552 615 553 q 613 551 613 551 l 717 317 q 728 292 724 304 q 738 269 733 281 q 760 221 749 243 l 869 551 q 852 558 865 553 q 827 567 839 563 q 811 574 815 572 l 811 644 l 1026 644 l 1026 574 l 1025 574 q 1002 565 1018 571 q 968 551 986 558 l 758 -11 l 706 -11 q 694 21 699 6 q 683 51 689 36 q 638 175 650 146 l 526 413 z "},"ẃ":{"ha":1043,"x_min":6,"x_max":1026,"o":"m 526 413 l 367 -11 l 315 -11 q 297 41 307 15 q 275 93 286 67 q 257 138 265 117 q 240 181 249 160 l 64 551 q 35 563 54 556 q 6 574 15 571 l 6 644 l 290 644 l 290 574 q 272 567 286 572 q 244 558 257 563 q 226 551 232 553 l 318 322 q 368 211 344 254 l 476 517 l 461 551 q 450 563 458 556 q 439 574 442 571 l 439 644 l 665 644 l 665 574 q 640 563 653 568 q 618 554 628 558 q 614 552 615 553 q 613 551 613 551 l 717 317 q 728 292 724 304 q 738 269 733 281 q 760 221 749 243 l 869 551 q 852 558 865 553 q 827 567 839 563 q 811 574 815 572 l 811 644 l 1026 644 l 1026 574 l 1025 574 q 1002 565 1018 571 q 968 551 986 558 l 758 -11 l 706 -11 q 694 21 699 6 q 683 51 689 36 q 638 175 650 146 l 526 413 m 481 783 l 586 992 l 738 992 l 738 981 l 525 765 l 481 783 z "},"ŵ":{"ha":1043,"x_min":6,"x_max":1026,"o":"m 526 413 l 367 -11 l 315 -11 q 297 41 307 15 q 275 93 286 67 q 257 138 265 117 q 240 181 249 160 l 64 551 q 35 563 54 556 q 6 574 15 571 l 6 644 l 290 644 l 290 574 q 272 567 286 572 q 244 558 257 563 q 226 551 232 553 l 318 322 q 368 211 344 254 l 476 517 l 461 551 q 450 563 458 556 q 439 574 442 571 l 439 644 l 665 644 l 665 574 q 640 563 653 568 q 618 554 628 558 q 614 552 615 553 q 613 551 613 551 l 717 317 q 728 292 724 304 q 738 269 733 281 q 760 221 749 243 l 869 551 q 852 558 865 553 q 827 567 839 563 q 811 574 815 572 l 811 644 l 1026 644 l 1026 574 l 1025 574 q 1002 565 1018 571 q 968 551 986 558 l 758 -11 l 706 -11 q 694 21 699 6 q 683 51 689 36 q 638 175 650 146 l 526 413 m 628 757 l 524 874 l 418 757 l 364 785 l 497 996 l 549 996 l 686 785 l 628 757 z "},"ẅ":{"ha":1043,"x_min":6,"x_max":1026,"o":"m 526 413 l 367 -11 l 315 -11 q 297 41 307 15 q 275 93 286 67 q 257 138 265 117 q 240 181 249 160 l 64 551 q 35 563 54 556 q 6 574 15 571 l 6 644 l 290 644 l 290 574 q 272 567 286 572 q 244 558 257 563 q 226 551 232 553 l 318 322 q 368 211 344 254 l 476 517 l 461 551 q 450 563 458 556 q 439 574 442 571 l 439 644 l 665 644 l 665 574 q 640 563 653 568 q 618 554 628 558 q 614 552 615 553 q 613 551 613 551 l 717 317 q 728 292 724 304 q 738 269 733 281 q 760 221 749 243 l 869 551 q 852 558 865 553 q 827 567 839 563 q 811 574 815 572 l 811 644 l 1026 644 l 1026 574 l 1025 574 q 1002 565 1018 571 q 968 551 986 558 l 758 -11 l 706 -11 q 694 21 699 6 q 683 51 689 36 q 638 175 650 146 l 526 413 m 542 856 q 583 908 542 863 q 628 953 625 953 q 681 908 636 953 q 725 856 725 863 q 681 805 725 850 q 628 760 636 760 q 584 805 625 760 q 542 856 543 850 m 331 856 q 373 908 329 863 q 419 953 417 953 q 472 908 429 953 q 514 856 514 863 q 471 805 514 850 q 419 760 428 760 q 374 806 417 760 q 331 856 331 851 z "},"ẁ":{"ha":1043,"x_min":6,"x_max":1026,"o":"m 526 413 l 367 -11 l 315 -11 q 297 41 307 15 q 275 93 286 67 q 257 138 265 117 q 240 181 249 160 l 64 551 q 35 563 54 556 q 6 574 15 571 l 6 644 l 290 644 l 290 574 q 272 567 286 572 q 244 558 257 563 q 226 551 232 553 l 318 322 q 368 211 344 254 l 476 517 l 461 551 q 450 563 458 556 q 439 574 442 571 l 439 644 l 665 644 l 665 574 q 640 563 653 568 q 618 554 628 558 q 614 552 615 553 q 613 551 613 551 l 717 317 q 728 292 724 304 q 738 269 733 281 q 760 221 749 243 l 869 551 q 852 558 865 553 q 827 567 839 563 q 811 574 815 572 l 811 644 l 1026 644 l 1026 574 l 1025 574 q 1002 565 1018 571 q 968 551 986 558 l 758 -11 l 706 -11 q 694 21 699 6 q 683 51 689 36 q 638 175 650 146 l 526 413 m 572 783 l 528 765 l 317 981 l 317 992 l 468 992 l 572 783 z "},"x":{"ha":696,"x_min":10,"x_max":686,"o":"m 29 0 l 10 0 l 10 69 q 28 75 18 72 q 55 82 40 78 q 83 90 69 86 l 265 321 l 85 551 q 53 563 75 556 q 22 574 32 571 l 22 644 l 310 644 l 310 574 q 294 567 306 572 q 273 557 283 561 q 260 551 263 553 l 389 386 l 499 551 q 483 558 494 553 q 462 568 472 564 q 447 574 451 572 l 447 644 l 672 644 l 672 574 q 666 571 669 572 q 658 568 663 569 q 635 560 647 565 q 613 551 624 556 l 435 328 l 621 90 q 653 80 631 88 q 686 69 676 72 l 686 0 l 394 0 l 394 69 q 408 76 397 71 q 431 85 419 81 q 444 90 442 89 l 314 258 l 203 90 q 217 84 206 89 q 241 75 229 79 q 256 69 253 71 l 256 0 l 29 0 z "},"y":{"ha":697,"x_min":-1,"x_max":685,"o":"m 385 -11 l 382 -19 q 315 -158 347 -103 q 235 -251 283 -214 q 121 -289 188 -289 q 60 -285 86 -289 q 13 -275 35 -281 l 13 -42 l 76 -42 q 85 -75 81 -58 q 94 -108 90 -92 q 103 -145 99 -128 q 113 -176 108 -162 q 199 -162 160 -190 q 272 -67 238 -135 q 315 33 293 -25 q 288 104 301 69 q 235 222 263 160 l 60 551 q 29 563 50 556 q -1 574 8 571 l -1 644 l 300 644 l 300 574 q 278 567 294 572 q 247 557 263 561 q 226 551 232 553 l 315 356 q 320 346 318 351 q 325 335 322 340 q 365 253 344 290 q 396 203 381 226 l 531 551 q 507 558 525 553 l 472 568 q 449 574 454 572 l 449 644 l 685 644 l 685 574 q 684 573 685 574 q 682 572 683 572 q 657 564 672 569 q 625 551 642 558 l 385 -11 z "},"ý":{"ha":697,"x_min":-1,"x_max":685,"o":"m 385 -11 l 382 -19 q 315 -158 347 -103 q 235 -251 283 -214 q 121 -289 188 -289 q 60 -285 86 -289 q 13 -275 35 -281 l 13 -42 l 76 -42 q 85 -75 81 -58 q 94 -108 90 -92 q 103 -145 99 -128 q 113 -176 108 -162 q 199 -162 160 -190 q 272 -67 238 -135 q 315 33 293 -25 q 288 104 301 69 q 235 222 263 160 l 60 551 q 29 563 50 556 q -1 574 8 571 l -1 644 l 300 644 l 300 574 q 278 567 294 572 q 247 557 263 561 q 226 551 232 553 l 315 356 q 320 346 318 351 q 325 335 322 340 q 365 253 344 290 q 396 203 381 226 l 531 551 q 507 558 525 553 l 472 568 q 449 574 454 572 l 449 644 l 685 644 l 685 574 q 684 573 685 574 q 682 572 683 572 q 657 564 672 569 q 625 551 642 558 l 385 -11 m 294 783 l 399 992 l 551 992 l 551 981 l 339 765 l 294 783 z "},"ŷ":{"ha":697,"x_min":-1,"x_max":685,"o":"m 385 -11 l 382 -19 q 315 -158 347 -103 q 235 -251 283 -214 q 121 -289 188 -289 q 60 -285 86 -289 q 13 -275 35 -281 l 13 -42 l 76 -42 q 85 -75 81 -58 q 94 -108 90 -92 q 103 -145 99 -128 q 113 -176 108 -162 q 199 -162 160 -190 q 272 -67 238 -135 q 315 33 293 -25 q 288 104 301 69 q 235 222 263 160 l 60 551 q 29 563 50 556 q -1 574 8 571 l -1 644 l 300 644 l 300 574 q 278 567 294 572 q 247 557 263 561 q 226 551 232 553 l 315 356 q 320 346 318 351 q 325 335 322 340 q 365 253 344 290 q 396 203 381 226 l 531 551 q 507 558 525 553 l 472 568 q 449 574 454 572 l 449 644 l 685 644 l 685 574 q 684 573 685 574 q 682 572 683 572 q 657 564 672 569 q 625 551 642 558 l 385 -11 m 440 757 l 338 874 l 231 757 l 176 785 l 310 996 l 361 996 l 500 785 l 440 757 z "},"ÿ":{"ha":697,"x_min":-1,"x_max":685,"o":"m 385 -11 l 382 -19 q 315 -158 347 -103 q 235 -251 283 -214 q 121 -289 188 -289 q 60 -285 86 -289 q 13 -275 35 -281 l 13 -42 l 76 -42 q 85 -75 81 -58 q 94 -108 90 -92 q 103 -145 99 -128 q 113 -176 108 -162 q 199 -162 160 -190 q 272 -67 238 -135 q 315 33 293 -25 q 288 104 301 69 q 235 222 263 160 l 60 551 q 29 563 50 556 q -1 574 8 571 l -1 644 l 300 644 l 300 574 q 278 567 294 572 q 247 557 263 561 q 226 551 232 553 l 315 356 q 320 346 318 351 q 325 335 322 340 q 365 253 344 290 q 396 203 381 226 l 531 551 q 507 558 525 553 l 472 568 q 449 574 454 572 l 449 644 l 685 644 l 685 574 q 684 573 685 574 q 682 572 683 572 q 657 564 672 569 q 625 551 642 558 l 385 -11 m 356 856 q 397 908 354 863 q 442 953 439 953 q 494 908 450 953 q 539 856 539 863 q 494 805 539 850 q 442 760 450 760 q 397 805 439 760 q 356 856 356 850 m 143 856 q 186 908 143 863 q 233 953 229 953 q 285 908 242 953 q 328 856 328 863 q 285 805 328 850 q 233 760 242 760 q 188 806 231 760 q 143 856 144 851 z "},"ỳ":{"ha":697,"x_min":-1,"x_max":685,"o":"m 385 -11 l 382 -19 q 315 -158 347 -103 q 235 -251 283 -214 q 121 -289 188 -289 q 60 -285 86 -289 q 13 -275 35 -281 l 13 -42 l 76 -42 q 85 -75 81 -58 q 94 -108 90 -92 q 103 -145 99 -128 q 113 -176 108 -162 q 199 -162 160 -190 q 272 -67 238 -135 q 315 33 293 -25 q 288 104 301 69 q 235 222 263 160 l 60 551 q 29 563 50 556 q -1 574 8 571 l -1 644 l 300 644 l 300 574 q 278 567 294 572 q 247 557 263 561 q 226 551 232 553 l 315 356 q 320 346 318 351 q 325 335 322 340 q 365 253 344 290 q 396 203 381 226 l 531 551 q 507 558 525 553 l 472 568 q 449 574 454 572 l 449 644 l 685 644 l 685 574 q 684 573 685 574 q 682 572 683 572 q 657 564 672 569 q 625 551 642 558 l 385 -11 m 386 783 l 342 765 l 129 981 l 129 992 l 281 992 l 386 783 z "},"z":{"ha":564,"x_min":42,"x_max":540,"o":"m 511 644 l 217 79 l 403 79 q 415 115 408 94 q 432 157 422 135 q 449 203 440 179 q 468 251 458 228 l 540 251 l 518 0 l 42 0 l 336 565 l 158 565 q 138 507 149 532 q 125 472 131 489 q 114 438 119 454 l 46 438 l 46 644 l 511 644 z "},"ź":{"ha":564,"x_min":42,"x_max":540,"o":"m 511 644 l 217 79 l 403 79 q 415 115 408 94 q 432 157 422 135 q 449 203 440 179 q 468 251 458 228 l 540 251 l 518 0 l 42 0 l 336 565 l 158 565 q 138 507 149 532 q 125 472 131 489 q 114 438 119 454 l 46 438 l 46 644 l 511 644 m 242 783 l 347 992 l 499 992 l 499 981 l 286 765 l 242 783 z "},"ž":{"ha":564,"x_min":42,"x_max":540,"o":"m 511 644 l 217 79 l 403 79 q 415 115 408 94 q 432 157 422 135 q 449 203 440 179 q 468 251 458 228 l 540 251 l 518 0 l 42 0 l 336 565 l 158 565 q 138 507 149 532 q 125 472 131 489 q 114 438 119 454 l 46 438 l 46 644 l 511 644 m 389 1004 l 447 975 l 310 765 l 258 765 l 125 975 l 179 1004 l 285 888 l 389 1004 z "},"ż":{"ha":564,"x_min":42,"x_max":540,"o":"m 511 644 l 217 79 l 403 79 q 415 115 408 94 q 432 157 422 135 q 449 203 440 179 q 468 251 458 228 l 540 251 l 518 0 l 42 0 l 336 565 l 158 565 q 138 507 149 532 q 125 472 131 489 q 114 438 119 454 l 46 438 l 46 644 l 511 644 m 183 858 q 232 912 183 864 q 286 960 281 960 q 317 936 292 960 q 367 888 343 913 q 392 858 392 863 q 367 825 392 851 q 317 775 343 799 q 286 751 292 751 q 256 776 282 751 q 206 826 229 801 q 183 858 183 851 z "},"α":{"ha":808,"x_min":47,"x_max":788,"o":"m 540 0 l 540 125 q 533 107 538 117 q 455 17 507 51 q 331 -17 403 -17 q 181 24 244 -17 q 82 140 117 65 q 47 317 47 215 q 88 496 47 418 q 207 617 129 574 q 390 661 285 661 q 511 643 451 661 q 597 607 558 629 l 669 650 l 682 644 l 678 97 q 708 92 686 96 q 753 87 731 89 q 782 83 775 85 l 788 13 q 762 12 775 13 q 733 10 749 11 q 706 7 719 8 q 679 4 692 6 l 553 -6 l 540 0 m 383 64 q 459 85 424 64 q 517 150 494 107 q 540 256 540 193 l 540 522 q 478 572 514 554 q 382 597 432 597 q 244 528 294 597 q 194 344 194 460 q 219 196 194 260 q 285 98 243 132 q 383 64 328 64 z "},"⓵":{"ha":1022,"x_min":42,"x_max":981,"o":"m 511 -36 q 268 24 375 -36 q 101 190 161 83 q 42 433 42 297 q 101 676 42 569 q 268 843 161 783 q 511 903 375 903 q 754 843 647 903 q 921 676 861 783 q 981 433 981 569 q 921 190 981 297 q 754 24 861 83 q 511 -36 647 -36 m 511 11 q 729 65 633 11 q 878 215 825 119 q 932 433 932 311 q 878 651 932 556 q 729 801 825 747 q 511 856 633 856 q 293 801 389 856 q 144 651 197 747 q 90 433 90 556 q 144 215 90 311 q 293 65 197 119 q 511 11 389 11 m 585 258 q 616 253 593 257 q 663 245 639 249 q 694 240 686 242 l 694 181 l 342 181 l 342 240 q 376 246 350 242 q 426 253 401 250 q 458 258 450 257 l 458 549 l 353 549 l 353 592 q 422 618 386 601 q 492 654 458 635 q 551 692 526 674 l 585 692 l 585 258 z "},"⓶":{"ha":1022,"x_min":42,"x_max":981,"o":"m 511 -36 q 268 24 375 -36 q 101 190 161 83 q 42 433 42 297 q 101 676 42 569 q 268 843 161 783 q 511 903 375 903 q 754 843 647 903 q 921 676 861 783 q 981 433 981 569 q 921 190 981 297 q 754 24 861 83 q 511 -36 647 -36 m 511 11 q 729 65 633 11 q 878 215 825 119 q 932 433 932 311 q 878 651 932 556 q 729 801 825 747 q 511 856 633 856 q 293 801 389 856 q 144 651 197 747 q 90 433 90 556 q 144 215 90 311 q 293 65 197 119 q 511 11 389 11 m 329 283 q 513 447 451 374 q 575 574 575 519 q 558 626 575 608 q 510 647 542 644 q 433 640 479 650 q 418 586 429 626 q 405 538 413 564 q 389 485 397 513 l 339 485 l 339 671 q 415 688 372 681 q 500 694 457 694 q 646 662 599 694 q 693 558 693 629 q 614 415 693 485 q 397 290 535 344 l 628 290 q 631 299 629 294 q 636 308 633 304 q 647 332 640 317 q 665 372 654 347 l 710 372 l 689 178 l 329 178 l 329 283 z "},"⓷":{"ha":1022,"x_min":42,"x_max":981,"o":"m 511 -36 q 268 24 375 -36 q 101 190 161 83 q 42 433 42 297 q 101 676 42 569 q 268 843 161 783 q 511 903 375 903 q 754 843 647 903 q 921 676 861 783 q 981 433 981 569 q 921 190 981 297 q 754 24 861 83 q 511 -36 647 -36 m 511 11 q 729 65 633 11 q 878 215 825 119 q 932 433 932 311 q 878 651 932 556 q 729 801 825 747 q 511 856 633 856 q 293 801 389 856 q 144 651 197 747 q 90 433 90 556 q 144 215 90 311 q 293 65 197 119 q 511 11 389 11 m 369 363 q 385 326 378 343 q 400 293 393 308 q 432 217 419 246 q 544 228 510 206 q 579 299 579 251 q 535 373 579 344 q 415 411 490 401 l 410 440 q 513 510 467 464 q 560 601 560 557 q 532 644 560 632 q 450 647 504 657 q 438 619 444 635 q 424 588 432 604 q 409 554 417 572 q 392 517 401 536 l 346 517 l 349 675 q 419 689 381 683 q 507 694 458 694 q 643 672 597 694 q 689 604 689 649 q 663 546 689 575 q 592 493 636 517 q 547 472 571 482 q 606 456 579 465 q 685 402 657 435 q 714 326 714 369 q 653 210 714 253 q 486 168 593 168 q 401 174 444 168 q 333 188 358 179 l 324 363 l 369 363 z "},"⓸":{"ha":1022,"x_min":42,"x_max":981,"o":"m 511 -36 q 268 24 375 -36 q 101 190 161 83 q 42 433 42 297 q 101 676 42 569 q 268 843 161 783 q 511 903 375 903 q 754 843 647 903 q 921 676 861 783 q 981 433 981 569 q 921 190 981 297 q 754 24 861 83 q 511 -36 647 -36 m 511 11 q 729 65 633 11 q 878 215 825 119 q 932 433 932 311 q 878 651 932 556 q 729 801 825 747 q 511 856 633 856 q 293 801 389 856 q 144 651 197 747 q 90 433 90 556 q 144 215 90 311 q 293 65 197 119 q 511 11 389 11 m 611 253 q 638 247 618 251 q 678 240 658 243 q 704 235 697 236 l 704 178 l 374 178 l 374 235 q 405 240 382 236 q 451 248 428 244 q 483 253 475 251 l 483 308 l 256 308 l 246 363 l 506 689 l 611 679 l 611 403 l 700 403 l 690 308 l 611 308 l 611 253 m 483 403 l 483 579 l 340 403 l 483 403 z "},"⓹":{"ha":1022,"x_min":42,"x_max":981,"o":"m 511 -36 q 268 24 375 -36 q 101 190 161 83 q 42 433 42 297 q 101 676 42 569 q 268 843 161 783 q 511 903 375 903 q 754 843 647 903 q 921 676 861 783 q 981 433 981 569 q 921 190 981 297 q 754 24 861 83 q 511 -36 647 -36 m 511 11 q 729 65 633 11 q 878 215 825 119 q 932 433 932 311 q 878 651 932 556 q 729 801 825 747 q 511 856 633 856 q 293 801 389 856 q 144 651 197 747 q 90 433 90 556 q 144 215 90 311 q 293 65 197 119 q 511 11 389 11 m 358 318 q 365 304 361 311 q 371 292 368 297 q 387 256 379 274 q 403 219 394 239 q 490 219 456 208 q 538 251 524 229 q 553 297 553 274 q 526 367 553 343 q 454 390 499 390 q 399 386 425 390 q 343 372 372 382 l 329 372 l 360 685 l 668 685 l 657 586 l 656 585 l 656 583 q 651 581 653 582 q 649 578 650 579 q 644 574 647 576 l 464 574 q 428 574 446 574 q 397 572 410 574 l 385 469 q 510 489 438 489 q 594 473 554 489 q 658 423 633 457 q 682 342 682 389 q 649 244 682 283 q 564 186 615 204 q 457 168 513 168 q 384 172 419 168 q 324 182 349 175 l 314 318 l 358 318 z "},"⓺":{"ha":1022,"x_min":42,"x_max":981,"o":"m 511 -36 q 268 24 375 -36 q 101 190 161 83 q 42 433 42 297 q 101 676 42 569 q 268 843 161 783 q 511 903 375 903 q 754 843 647 903 q 921 676 861 783 q 981 433 981 569 q 921 190 981 297 q 754 24 861 83 q 511 -36 647 -36 m 511 11 q 729 65 633 11 q 878 215 825 119 q 932 433 932 311 q 878 651 932 556 q 729 801 825 747 q 511 856 633 856 q 293 801 389 856 q 144 651 197 747 q 90 433 90 556 q 144 215 90 311 q 293 65 197 119 q 511 11 389 11 m 415 479 q 456 501 433 493 q 525 511 486 511 q 624 490 582 510 q 689 435 665 471 q 713 351 713 400 q 654 219 713 271 q 494 168 596 168 q 333 223 389 168 q 278 389 278 278 q 341 619 278 544 q 551 694 404 694 q 619 688 582 694 q 682 669 656 681 l 688 526 l 642 526 q 628 560 635 544 q 615 590 621 576 q 604 613 610 601 q 592 642 599 625 q 463 611 503 660 q 415 479 426 568 m 411 351 q 435 254 410 292 q 500 217 461 217 q 559 248 539 217 q 579 331 579 279 q 555 426 579 392 q 494 461 531 461 q 432 432 453 461 q 411 374 415 410 l 411 351 z "},"⓻":{"ha":1022,"x_min":42,"x_max":981,"o":"m 511 -36 q 268 24 375 -36 q 101 190 161 83 q 42 433 42 297 q 101 676 42 569 q 268 843 161 783 q 511 903 375 903 q 754 843 647 903 q 921 676 861 783 q 981 433 981 569 q 921 190 981 297 q 754 24 861 83 q 511 -36 647 -36 m 511 11 q 729 65 633 11 q 878 215 825 119 q 932 433 932 311 q 878 651 932 556 q 729 801 825 747 q 511 856 633 856 q 293 801 389 856 q 144 651 197 747 q 90 433 90 556 q 144 215 90 311 q 293 65 197 119 q 511 11 389 11 m 376 182 l 376 186 l 619 574 l 410 574 q 403 558 407 565 q 397 542 400 550 q 383 510 390 526 q 369 475 375 493 l 325 475 l 343 682 l 722 682 l 528 182 l 376 182 z "},"⓼":{"ha":1022,"x_min":42,"x_max":981,"o":"m 511 -36 q 268 24 375 -36 q 101 190 161 83 q 42 433 42 297 q 101 676 42 569 q 268 843 161 783 q 511 903 375 903 q 754 843 647 903 q 921 676 861 783 q 981 433 981 569 q 921 190 981 297 q 754 24 861 83 q 511 -36 647 -36 m 511 11 q 729 65 633 11 q 878 215 825 119 q 932 433 932 311 q 878 651 932 556 q 729 801 825 747 q 511 856 633 856 q 293 801 389 856 q 144 651 197 747 q 90 433 90 556 q 144 215 90 311 q 293 65 197 119 q 511 11 389 11 m 411 415 q 381 431 394 424 q 322 481 346 449 q 297 564 297 514 q 324 632 297 601 q 402 680 351 663 q 521 697 453 697 q 628 683 583 697 q 697 644 672 669 q 721 585 721 618 q 675 500 721 536 q 604 468 644 478 q 650 447 631 457 q 711 396 686 429 q 736 313 736 363 q 676 210 736 250 q 506 171 615 171 q 388 187 438 171 q 313 231 339 203 q 288 296 288 258 q 333 383 288 349 q 411 415 364 406 m 600 285 q 568 347 600 325 q 471 392 536 368 q 454 399 463 394 q 435 376 442 389 q 419 304 419 350 q 445 239 419 263 q 517 215 471 215 q 578 234 556 215 q 600 285 600 253 m 561 485 q 579 507 572 493 q 592 572 592 531 q 570 633 592 611 q 511 654 549 654 q 452 637 474 654 q 431 588 431 619 q 462 529 431 550 q 558 485 493 508 q 561 485 560 485 z "},"⓽":{"ha":1022,"x_min":42,"x_max":981,"o":"m 511 -36 q 268 24 375 -36 q 101 190 161 83 q 42 433 42 297 q 101 676 42 569 q 268 843 161 783 q 511 903 375 903 q 754 843 647 903 q 921 676 861 783 q 981 433 981 569 q 921 190 981 297 q 754 24 861 83 q 511 -36 647 -36 m 511 11 q 729 65 633 11 q 878 215 825 119 q 932 433 932 311 q 878 651 932 556 q 729 801 825 747 q 511 856 633 856 q 293 801 389 856 q 144 651 197 747 q 90 433 90 556 q 144 215 90 311 q 293 65 197 119 q 511 11 389 11 m 596 386 q 556 364 578 372 q 486 354 525 354 q 388 375 431 356 q 322 430 346 394 q 299 514 299 465 q 357 646 299 594 q 518 697 415 697 q 678 642 622 697 q 735 476 735 588 q 671 246 735 321 q 460 171 607 171 q 392 178 429 171 q 329 196 356 185 l 324 339 l 369 339 q 384 305 378 321 q 396 275 390 289 q 408 252 401 264 q 421 224 414 240 q 549 254 508 206 q 596 386 585 297 m 600 514 q 576 611 601 574 q 513 649 550 649 q 452 617 472 649 q 432 535 432 586 q 457 439 432 474 q 518 404 482 404 q 581 433 560 404 q 600 492 596 456 l 600 514 z "},"⓪":{"ha":1022,"x_min":42,"x_max":981,"o":"m 511 11 q 729 65 633 11 q 878 215 825 119 q 932 433 932 311 q 878 651 932 556 q 729 801 825 747 q 511 856 633 856 q 293 801 389 856 q 144 651 197 747 q 90 433 90 556 q 144 215 90 311 q 293 65 197 119 q 511 11 389 11 m 511 -36 q 268 24 375 -36 q 101 190 161 83 q 42 433 42 297 q 101 676 42 569 q 268 843 161 783 q 511 903 375 903 q 754 843 647 903 q 921 676 861 783 q 981 433 981 569 q 921 190 981 297 q 754 24 861 83 q 511 -36 647 -36 m 503 168 q 371 201 425 168 q 289 294 317 235 q 261 429 261 353 q 292 567 261 507 q 381 660 322 626 q 519 694 439 694 q 651 660 596 694 q 733 567 706 626 q 761 431 761 507 q 731 294 761 354 q 643 201 701 235 q 503 168 585 168 m 513 217 q 598 267 569 217 q 626 418 626 318 q 595 583 626 522 q 508 644 564 644 q 423 594 450 644 q 396 440 396 543 q 427 278 396 339 q 513 217 458 217 z "},"①":{"ha":1022,"x_min":42,"x_max":981,"o":"m 511 -36 q 268 24 375 -36 q 101 190 161 83 q 42 433 42 297 q 101 676 42 569 q 268 843 161 783 q 511 903 375 903 q 754 843 647 903 q 921 676 861 783 q 981 433 981 569 q 921 190 981 297 q 754 24 861 83 q 511 -36 647 -36 m 511 11 q 729 65 633 11 q 878 215 825 119 q 932 433 932 311 q 878 651 932 556 q 729 801 825 747 q 511 856 633 856 q 293 801 389 856 q 144 651 197 747 q 90 433 90 556 q 144 215 90 311 q 293 65 197 119 q 511 11 389 11 m 579 258 q 610 253 588 257 q 657 245 633 249 q 689 240 681 242 l 689 181 l 336 181 l 336 240 q 370 246 344 242 q 420 253 396 250 q 453 258 444 257 l 453 549 l 349 549 l 349 592 q 417 618 381 601 q 488 654 454 635 q 546 692 522 674 l 579 692 l 579 258 z "},"②":{"ha":1022,"x_min":42,"x_max":981,"o":"m 511 -36 q 268 24 375 -36 q 101 190 161 83 q 42 433 42 297 q 101 676 42 569 q 268 843 161 783 q 511 903 375 903 q 754 843 647 903 q 921 676 861 783 q 981 433 981 569 q 921 190 981 297 q 754 24 861 83 q 511 -36 647 -36 m 511 11 q 729 65 633 11 q 878 215 825 119 q 932 433 932 311 q 878 651 932 556 q 729 801 825 747 q 511 856 633 856 q 293 801 389 856 q 144 651 197 747 q 90 433 90 556 q 144 215 90 311 q 293 65 197 119 q 511 11 389 11 m 329 283 q 513 447 451 374 q 575 574 575 519 q 558 626 575 608 q 510 647 542 644 q 433 640 479 650 q 418 586 429 626 q 405 538 413 564 q 389 485 397 513 l 339 485 l 339 671 q 415 688 372 681 q 500 694 457 694 q 646 662 599 694 q 693 558 693 629 q 614 415 693 485 q 397 290 535 344 l 628 290 q 631 299 629 294 q 636 308 633 304 q 647 332 640 317 q 665 372 654 347 l 710 372 l 689 178 l 329 178 l 329 283 z "},"③":{"ha":1022,"x_min":42,"x_max":981,"o":"m 511 -36 q 268 24 375 -36 q 101 190 161 83 q 42 433 42 297 q 101 676 42 569 q 268 843 161 783 q 511 903 375 903 q 754 843 647 903 q 921 676 861 783 q 981 433 981 569 q 921 190 981 297 q 754 24 861 83 q 511 -36 647 -36 m 511 11 q 729 65 633 11 q 878 215 825 119 q 932 433 932 311 q 878 651 932 556 q 729 801 825 747 q 511 856 633 856 q 293 801 389 856 q 144 651 197 747 q 90 433 90 556 q 144 215 90 311 q 293 65 197 119 q 511 11 389 11 m 369 363 q 385 326 378 343 q 400 293 393 308 q 432 217 419 246 q 544 228 510 206 q 579 299 579 251 q 535 373 579 344 q 415 411 490 401 l 410 440 q 513 510 467 464 q 560 601 560 557 q 532 644 560 632 q 450 647 504 657 q 438 619 444 635 q 424 588 432 604 q 409 554 417 572 q 392 517 401 536 l 346 517 l 349 675 q 419 689 381 683 q 507 694 458 694 q 643 672 597 694 q 689 604 689 649 q 663 546 689 575 q 592 493 636 517 q 547 472 571 482 q 606 456 579 465 q 685 402 657 435 q 714 326 714 369 q 653 210 714 253 q 486 168 593 168 q 401 174 444 168 q 333 188 358 179 l 324 363 l 369 363 z "},"④":{"ha":1022,"x_min":42,"x_max":981,"o":"m 511 -36 q 268 24 375 -36 q 101 190 161 83 q 42 433 42 297 q 101 676 42 569 q 268 843 161 783 q 511 903 375 903 q 754 843 647 903 q 921 676 861 783 q 981 433 981 569 q 921 190 981 297 q 754 24 861 83 q 511 -36 647 -36 m 511 11 q 729 65 633 11 q 878 215 825 119 q 932 433 932 311 q 878 651 932 556 q 729 801 825 747 q 511 856 633 856 q 293 801 389 856 q 144 651 197 747 q 90 433 90 556 q 144 215 90 311 q 293 65 197 119 q 511 11 389 11 m 611 253 q 638 247 618 251 q 678 240 658 243 q 704 235 697 236 l 704 178 l 374 178 l 374 235 q 405 240 382 236 q 451 248 428 244 q 483 253 475 251 l 483 308 l 256 308 l 246 363 l 506 689 l 611 679 l 611 403 l 700 403 l 690 308 l 611 308 l 611 253 m 483 403 l 483 579 l 340 403 l 483 403 z "}}}
